<?xml version="1.0" encoding="utf-8"?>
<!-- Generator: Adobe Illustrator 22.1.0, SVG Export Plug-In . SVG Version: 6.00 Build 0)  -->
<svg version="1.1" id="Layer_1" xmlns="http://www.w3.org/2000/svg" xmlns:xlink="http://www.w3.org/1999/xlink" x="0px" y="0px"
	 viewBox="0 0 216 39" style="enable-background:new 0 0 216 39;" xml:space="preserve">
<style type="text/css">
	.st0{fill:#FFFFFF;}
	.st1{fill:#0033B8;}
	.st2{enable-background:new    ;}
</style>
<title>button-bibi-finish</title>
<desc>Created with Sketch.</desc>
<rect id="Rectangle-10-Copy" x="2" y="37" class="st0" width="212" height="2"/>
<rect id="Rectangle-9" y="2" class="st0" width="2" height="35"/>
<rect id="Rectangle-9-Copy" x="214" y="2" class="st0" width="2" height="35"/>
<rect id="Rectangle-10" x="2" class="st0" width="212" height="2"/>
<rect id="bg" x="2" y="2" class="st1" width="212" height="35"/>
<g class="st2">
	<path class="st0" d="M39.1,13v12h-3v-9h-9v-3H39.1z M27.1,18.5h3V25h-3V18.5z"/>
	<path class="st0" d="M46.4,16v9h-3v-9h-2v-3h7v3H46.4z"/>
	<path class="st0" d="M69,13v12H57V13H69z M66,16h-6v6h6V16z"/>
	<path class="st0" d="M76.4,22h1.9l2.1-2.1V13h3v8.1L79.5,25h-8.1v-3h2v-9h3V22z"/>
	<path class="st0" d="M102.7,13v12h-3v-9h-8v-3H102.7z"/>
	<path class="st0" d="M108.7,25h-3V13h3V25z"/>
	<path class="st0" d="M114.3,17.7l2.6-4.7h7.4v12h-5v-3h2v-6h-2.6l-5,9.2l-2.6-1.5l0.7-1.3l2.1-4h-2.6V13h3V17.7z"/>
	<path class="st0" d="M128.7,19.9l2.4,1.1l-1.7-5h-1.7v-3h3.9l3.9,11.4l-2.8,1l-1.4-3.9l-1.7,4l-2.8-1.2L128.7,19.9z"/>
	<path class="st0" d="M141.1,13v12h-6v-3h3v-6h-2v-3H141.1z"/>
	<path class="st0" d="M153.4,25h-3V13h3V25z"/>
	<path class="st0" d="M156.1,20.4l2.6-2.6l-2.9-2.9l2.1-2.1l5.7,5.7l1.5-1.5V13h3v5.1l-2.4,2.4l2.7,2.7l-2.1,2.1l-5.4-5.4l-1.8,1.8
		V25h-3V20.4z"/>
	<path class="st0" d="M173.8,25h-3V13h3V25z"/>
	<path class="st0" d="M184.1,22v-6h-8v-3h11v9h2v3h-13v-3H184.1z"/>
</g>
</svg>
