<?xml version="1.0" encoding="utf-8"?>
<!-- Generator: Adobe Illustrator 22.1.0, SVG Export Plug-In . SVG Version: 6.00 Build 0)  -->
<svg version="1.1" id="Layer_1" xmlns="http://www.w3.org/2000/svg" xmlns:xlink="http://www.w3.org/1999/xlink" x="0px" y="0px"
	 viewBox="0 0 216 39" style="enable-background:new 0 0 216 39;" xml:space="preserve">
<style type="text/css">
	.st0{fill:#0033B8;}
	.st1{fill:#FFFFFF;}
	.st2{enable-background:new    ;}
</style>
<rect id="Rectangle-10-Copy" x="2" y="37" class="st0" width="212" height="2"/>
<rect id="Rectangle-9" y="2" class="st0" width="2" height="35"/>
<rect id="Rectangle-9-Copy" x="214" y="2" class="st0" width="2" height="35"/>
<rect id="Rectangle-10" x="2" class="st0" width="212" height="2"/>
<rect id="bg" x="2" y="2" class="st1" width="212" height="35"/>
<g class="st2">
	<path class="st0" d="M34.1,13h12v12h-3v-9h-6v9h-3V13z"/>
	<path class="st0" d="M60.4,13v8.1L56.6,25h-8.1v-3h6.9l2.1-2.1V16h-9v-3H60.4z"/>
	<path class="st0" d="M74.6,13v12h-3v-9h-9v-3H74.6z M62.6,18.5h3V25h-3V18.5z"/>
	<path class="st0" d="M86.5,13h8v8.1L90,25.6l-2.1-2.1l3.6-3.6V16h-8v-5h3V13z"/>
	<path class="st0" d="M108.5,13v8.1l-3.9,3.9h-8.1v-3h6.9l2.1-2.1V16h-9v-3H108.5z"/>
	<path class="st0" d="M118.5,22v-6h-8v-3h11v9h2v3h-13v-3H118.5z"/>
	<path class="st0" d="M135.1,25h-3V13h3V25z"/>
	<path class="st0" d="M138.4,16h-1v-3h12v12h-12v-3h9v-6h-5v3h-3V16z"/>
	<path class="st0" d="M153.7,22v-9h11v12h-3v-9h-5v9h-5v-3H153.7z"/>
	<path class="st0" d="M176.3,22l0.8,0l2.1-2.1V13h3v8.1l-3.9,3.9h-10.6V13h3v9h2.6v-9h3V22z"/>
</g>
</svg>
