<?xml version="1.0" encoding="utf-8"?>
<!-- Generator: Adobe Illustrator 22.1.0, SVG Export Plug-In . SVG Version: 6.00 Build 0)  -->
<svg version="1.1" id="Layer_1" xmlns="http://www.w3.org/2000/svg" xmlns:xlink="http://www.w3.org/1999/xlink" x="0px" y="0px"
	 viewBox="0 0 216 39" style="enable-background:new 0 0 216 39;" xml:space="preserve">
<style type="text/css">
	.st0{fill:#FFFFFF;}
	.st1{fill:#0033B8;}
	.st2{enable-background:new    ;}
</style>
<rect id="Rectangle-10-Copy" x="2" y="37" class="st0" width="212" height="2"/>
<rect id="Rectangle-9" y="2" class="st0" width="2" height="35"/>
<rect id="Rectangle-9-Copy" x="214" y="2" class="st0" width="2" height="35"/>
<rect id="Rectangle-10" x="2" class="st0" width="212" height="2"/>
<rect id="bg" x="2" y="2" class="st1" width="212" height="35"/>
<g class="st2">
	<path class="st0" d="M66.4,13v12h-12V13H66.4z M63.4,16h-6v6h6V16z"/>
	<path class="st0" d="M70.7,22v-9h11v12h-3v-9h-5v9h-5v-3H70.7z"/>
	<path class="st0" d="M95,13v12h-3v-9h-8v-3H95z"/>
	<path class="st0" d="M98.3,16h-1v-3h12v12h-12v-3h9v-6h-5v3h-3V16z"/>
	<path class="st0" d="M112.3,13h12v12h-3v-9h-6v9h-3V13z"/>
	<path class="st0" d="M135.9,19h-3v-6h3V19z"/>
	<path class="st0" d="M137.9,20.4l2.6-2.6l-2.9-2.9l2.1-2.1l5.7,5.7l1.5-1.5v-4h3v5.1l-2.4,2.4l2.7,2.7l-2.1,2.1l-5.4-5.4l-1.8,1.8
		V25h-3L137.9,20.4L137.9,20.4z"/>
	<path class="st0" d="M155.6,25h-3V13h3V25z"/>
	<path class="st0" d="M161.6,25h-3V13h3V25z"/>
</g>
</svg>
