<?xml version="1.0" encoding="utf-8"?>
<!-- Generator: Adobe Illustrator 22.1.0, SVG Export Plug-In . SVG Version: 6.00 Build 0)  -->
<svg version="1.1" id="Layer_1" xmlns="http://www.w3.org/2000/svg" xmlns:xlink="http://www.w3.org/1999/xlink" x="0px" y="0px"
	 viewBox="0 0 67 39" style="enable-background:new 0 0 67 39;" xml:space="preserve">
<style type="text/css">
	.st0{fill:#0033B8;}
	.st1{fill:#FFFFFF;}
	.st2{fill:#45DC19;}
</style>
<rect id="Rectangle-10-Copy" x="2" y="37" class="st0" width="63" height="2"/>
<rect id="Rectangle-9" y="2" class="st0" width="2" height="35"/>
<rect id="Rectangle-9-Copy" x="65" y="2" class="st0" width="2" height="35"/>
<rect id="Rectangle-10" x="2" class="st0" width="63" height="2"/>
<rect id="bg" x="2" y="2" class="st1" width="63" height="35"/>
<g>
	<polygon class="st2" points="41,15 41,13 39,13 39,11 29,11 29,13 27,13 27,15 25,15 25,25 27,25 27,27 29,27 29,29 39,29 39,27 
		41,27 41,25 43,25 43,15 	"/>
	<rect x="24" y="27" class="st2" width="3" height="3"/>
</g>
<g>
	<rect x="31" y="15" class="st1" width="2" height="2"/>
	<polygon class="st1" points="35,21 33,21 33,19 31,19 31,17 29,17 29,19 29,21 31,21 31,23 33,23 33,25 35,25 37,25 37,23 35,23 	
		"/>
	<rect x="37" y="21" class="st1" width="2" height="2"/>
</g>
</svg>
