<?xml version="1.0" encoding="utf-8"?>
<!-- Generator: Adobe Illustrator 22.1.0, SVG Export Plug-In . SVG Version: 6.00 Build 0)  -->
<svg version="1.1" id="Layer_1" xmlns="http://www.w3.org/2000/svg" xmlns:xlink="http://www.w3.org/1999/xlink" x="0px" y="0px"
	 viewBox="0 0 216 39" style="enable-background:new 0 0 216 39;" xml:space="preserve">
<style type="text/css">
	.st0{fill:#FFFFFF;}
	.st1{fill:#0033B8;}
</style>
<rect id="Rectangle-10-Copy" x="2" y="37" class="st0" width="212" height="2"/>
<rect id="Rectangle-9" y="2" class="st0" width="2" height="35"/>
<rect id="Rectangle-9-Copy" x="214" y="2" class="st0" width="2" height="35"/>
<rect id="Rectangle-10" x="2" class="st0" width="212" height="2"/>
<rect id="bg" x="2" y="2" class="st1" width="212" height="35"/>
<g>
	<polygon class="st0" points="79,16 88,16 88,25 91,25 91,13 79,13 	"/>
	<rect x="79" y="18.5" class="st0" width="3" height="6.5"/>
	<polygon class="st0" points="96.5,11 93.5,11 93.5,16 101.5,16 101.5,19.9 97.9,23.5 100,25.6 104.5,21.1 104.5,13 96.5,13 	"/>
	<polygon class="st0" points="109.7,11 106.7,11 106.7,16 114.7,16 114.7,19.9 111.1,23.5 113.2,25.6 117.7,21.1 117.7,13 109.7,13 
			"/>
	<polygon class="st0" points="132,18.1 132,13 129,13 129,17 127.5,18.5 121.8,12.8 119.7,14.9 122.6,17.8 120,20.4 120,25 123,25 
		123,21.7 124.8,19.9 130.2,25.3 132.3,23.2 129.6,20.5 	"/>
	<rect x="134" y="13" class="st0" width="3" height="6"/>
</g>
</svg>
