<?xml version="1.0" encoding="utf-8"?>
<!-- Generator: Adobe Illustrator 22.1.0, SVG Export Plug-In . SVG Version: 6.00 Build 0)  -->
<svg version="1.1" id="Layer_1" xmlns="http://www.w3.org/2000/svg" xmlns:xlink="http://www.w3.org/1999/xlink" x="0px" y="0px"
	 viewBox="0 0 216 39" style="enable-background:new 0 0 216 39;" xml:space="preserve">
<style type="text/css">
	.st0{fill:#FFFFFF;}
	.st1{fill:#0033B8;}
	.st2{enable-background:new    ;}
</style>
<title>button/one copy 3</title>
<desc>Created with Sketch.</desc>
<g id="Treender">
	<g id="_x30_3-press-start" transform="translate(-72.000000, -296.000000)">
		<rect id="Rectangle-10-Copy" x="74" y="333" class="st0" width="212" height="2"/>
		<rect id="Rectangle-9" x="72" y="298" class="st0" width="2" height="35"/>
		<rect id="Rectangle-9-Copy" x="286" y="298" class="st0" width="2" height="35"/>
		<rect id="Rectangle-10" x="74" y="296" class="st0" width="212" height="2"/>
		<rect id="bg" x="74" y="298" class="st1" width="212" height="35"/>
		<g class="st2">
			<path class="st0" d="M152.8,309v12h-3v-9h-9v-3H152.8z M140.8,314.5h3v6.5h-3V314.5z"/>
			<path class="st0" d="M158.3,309h8v8.1l-4.5,4.5l-2.1-2.1l3.6-3.6V312h-8v-5h3V309z"/>
			<path class="st0" d="M171.5,309h8v8.1l-4.5,4.5l-2.1-2.1l3.6-3.6V312h-8v-5h3V309z"/>
			<path class="st0" d="M181.8,316.4l2.6-2.6l-2.9-2.9l2.1-2.1l5.7,5.7l1.5-1.5V309h3v5.1l-2.4,2.4l2.7,2.7l-2.1,2.1l-5.4-5.4
				l-1.8,1.8v3.4h-3V316.4z"/>
			<path class="st0" d="M198.8,315h-3v-6h3V315z"/>
			<path class="st0" d="M210.5,321h-3v-12h3V321z"/>
			<path class="st0" d="M218.8,309v12h-6v-3h3v-6h-2v-3H218.8z"/>
		</g>
	</g>
</g>
</svg>
