<?xml version="1.0" encoding="utf-8"?>
<!-- Generator: Adobe Illustrator 22.1.0, SVG Export Plug-In . SVG Version: 6.00 Build 0)  -->
<svg version="1.1" id="Layer_1" xmlns="http://www.w3.org/2000/svg" x="0px" y="0px"
     viewBox="0 0 216 39" style="enable-background:new 0 0 216 39;" xml:space="preserve">
<style type="text/css">
	.st0{fill:#0033B8;}
	.st1{fill:#FFFFFF;}
	.st2{enable-background:new    ;}
</style>
<rect id="Rectangle-10-Copy" x="2" y="37" class="st0" width="212" height="2"/>
<rect id="Rectangle-9" y="2" class="st0" width="2" height="35"/>
<rect id="Rectangle-9-Copy" x="214" y="2" class="st0" width="2" height="35"/>
<rect id="Rectangle-10" x="2" class="st0" width="212" height="2"/>
<rect id="bg" x="2" y="2" class="st1" width="212" height="35"/>
<g class="st2">
	<path class="st0" d="M39.7,20.4v0.8h-3v-1.4c0-0.8,0.3-1.4,0.8-1.7c0.3-0.2,1-0.4,1.9-0.6c0.1,0,0.2-0.1,0.3-0.1c0-0.1,0-0.2,0-0.4
		c0-0.7-0.5-1-1.5-1c-0.7,0-1.3,0.4-1.7,1.2l-0.7,1.3l-2.7-1.3l0.7-1.4c0-0.1,0.1-0.2,0.3-0.5c1.1-1.6,2.4-2.4,4.1-2.4
		c1.3,0,2.4,0.4,3.3,1.1c0.8,0.7,1.2,1.7,1.2,2.9C42.7,18.9,41.7,20.1,39.7,20.4z M36.7,21.7h3V25h-3V21.7z"/>
	<path class="st0" d="M49.3,22h1.9l2.1-2.1V13h3v8.1L52.4,25h-8.1v-3h2v-9h3V22z"/>
	<path class="st0" d="M70.9,25h-12V13h3v9h6v-6h-0.5l-0.3,0.7l-0.3,0.7l-2.8-1.1l1.3-3.3h5.5V25z"/>
	<path class="st0" d="M79.3,13v12h-6v-3h3v-6h-2v-3H79.3z"/>
	<path class="st0" d="M90.9,19h-3v-6h3V19z"/>
	<path class="st0" d="M95.8,17.7l2.6-4.7h7.4v12h-5v-3h2v-6h-2.6l-5,9.2l-2.6-1.5l0.7-1.3l2.1-4h-2.6V13h3V17.7z"/>
	<path class="st0" d="M111.8,25h-3V13h3V25z"/>
	<path class="st0" d="M132.6,13v12h-3v-9h-9v-3H132.6z M120.6,18.5h3V25h-3V18.5z"/>
	<path class="st0" d="M140.9,13v12h-6v-3h3v-6h-2v-3H140.9z"/>
	<path class="st0" d="M151.2,22v-6h-8v-3h11v9h2v3h-13v-3H151.2z"/>
	<path class="st0" d="M167.2,19h-3v-6h3V19z"/>
	<path class="st0" d="M172.1,17.7l2.6-4.7h7.4v12h-5v-3h2v-6h-2.6l-5,9.2l-2.6-1.5l0.7-1.3l2.1-4h-2.6V13h3V17.7z"/>
</g>
</svg>
