<?xml version="1.0" encoding="utf-8"?>
<!-- Generator: Adobe Illustrator 22.1.0, SVG Export Plug-In . SVG Version: 6.00 Build 0)  -->
<svg version="1.1" id="Layer_1" xmlns="http://www.w3.org/2000/svg" xmlns:xlink="http://www.w3.org/1999/xlink" x="0px" y="0px"
	 viewBox="0 0 216 39" style="enable-background:new 0 0 216 39;" xml:space="preserve">
<style type="text/css">
	.st0{fill:#FFFFFF;}
	.st1{fill:#0033B8;}
	.st2{enable-background:new    ;}
</style>
<rect id="Rectangle-10-Copy" x="2" y="37" class="st0" width="212" height="2"/>
<rect id="Rectangle-9" y="2" class="st0" width="2" height="35"/>
<rect id="Rectangle-9-Copy" x="214" y="2" class="st0" width="2" height="35"/>
<rect id="Rectangle-10" x="2" class="st0" width="212" height="2"/>
<rect id="bg" x="2" y="2" class="st1" width="212" height="35"/>
<g class="st2">
	<path class="st0" d="M39.9,13v8.1l-4.5,4.5l-2.1-2.1l3.6-3.6V16h-9v-3H39.9z M30.9,28h-3v-9.5h3V28z"/>
	<path class="st0" d="M42.6,13h12v12h-3v-9h-6v9h-3V13z"/>
	<path class="st0" d="M66.2,22l0.8,0l2.1-2.1V13h3v8.1L68.2,25H57.6V13h3v9h2.6v-9h3V22z"/>
	<path class="st0" d="M80.1,13v12h-6v-3h3v-6h-2v-3H80.1z"/>
	<path class="st0" d="M89.1,20.4l2.6-2.6l-2.9-2.9l2.1-2.1l5.7,5.7l1.5-1.5V13h3v5.1l-2.4,2.4l2.7,2.7l-2.1,2.1l-5.4-5.4l-1.8,1.8
		V25h-3V20.4z"/>
	<path class="st0" d="M106.8,25h-3V13h3V25z"/>
	<path class="st0" d="M117.1,22v-6h-8v-3h11v9h2v3h-13v-3H117.1z"/>
	<path class="st0" d="M142.3,13v12h-3v-9h-9v-3H142.3z M130.3,18.5h3V25h-3V18.5z"/>
	<path class="st0" d="M147.8,13h8v8.1l-4.5,4.5l-2.1-2.1l3.6-3.6V16h-8v-5h3V13z"/>
	<path class="st0" d="M161,13h8v8.1l-4.5,4.5l-2.1-2.1l3.6-3.6V16h-8v-5h3V13z"/>
	<path class="st0" d="M171.3,20.4l2.6-2.6l-2.9-2.9l2.1-2.1l5.7,5.7l1.5-1.5V13h3v5.1l-2.4,2.4l2.7,2.7l-2.1,2.1l-5.4-5.4l-1.8,1.8
		V25h-3V20.4z"/>
	<path class="st0" d="M188.3,19h-3v-6h3V19z"/>
</g>
</svg>
