<?xml version="1.0" encoding="utf-8"?>
<!-- Generator: Adobe Illustrator 22.1.0, SVG Export Plug-In . SVG Version: 6.00 Build 0)  -->
<svg version="1.1" id="Layer_1" xmlns="http://www.w3.org/2000/svg" x="0px" y="0px"
     viewBox="0 0 334 70" style="enable-background:new 0 0 334 70;" xml:space="preserve">
<style type="text/css">
	.st0{fill:#FFFFFF;}
	.st1{fill:#0033B8;}
	.st2{enable-background:new    ;}
</style>
<g>
	<g>
		<rect x="47" class="st0" width="240" height="60"/>
		<rect x="47" y="53.1" class="st1" width="240" height="3"/>
		<rect x="47" y="4.1" class="st1" width="240" height="3"/>
		<g class="st2">
			<path class="st1" d="M79.1,38.6h-4.3V25.7h-8.6v12.9h-8.6v-4.3H62V21.4h17.1V38.6z"/>
			<path class="st1" d="M87.7,38.6h-4.3V21.4h4.3V38.6z"/>
			<path class="st1" d="M96.3,30H92v-8.6h4.3V30z"/>
			<path class="st1" d="M117.7,38.6h-17.1v-4.3h12.9v-8.6h-8.6V30h-4.3v-8.6h17.1V38.6z"/>
			<path class="st1" d="M139.1,34.5h-4.3v4.1H122v-4.3h12.9v-8.6H122v-8.6h4.3v4.3h12.9V34.5z"/>
			<path class="st1" d="M160.6,34.5h-4.3v4.1H152v-4.3h4.3v-8.6h-12.9v-4.3h17.1V34.5z M147.7,47.1h-4.3V30h4.3V47.1z"/>
			<path class="st1" d="M182,38.6h-4.3V25.7h-12.9v-4.3H182V38.6z M169.1,38.6h-4.3V30h4.3V38.6z"/>
			<path class="st1" d="M199.1,38.6h-4.3V21.4h4.3V38.6z"/>
			<path class="st1" d="M220.6,38.6h-4.3V25.7h-12.9v-4.3h17.1V38.6z"/>
			<path class="st1" d="M237.7,38.6h-4.3v-4.3h-4.3v4.3h-4.3V30h8.6v-4.3h-8.6v-4.3h12.9V38.6z"/>
			<path class="st1" d="M259.1,34.4h-4.3v4.2H242V21.4h17.1V34.4z M254.9,34.2v-8.5h-8.6v8.5H254.9z"/>
			<path class="st1" d="M276.3,38.6h-12.9v-4.3h8.6v-8.6h-4.3v-4.3h8.6V38.6z"/>
		</g>
	</g>
	<g id="right">
		<polygon class="st0" points="331,67 334,70 287,70 287,39 334,39 331,42 329,44 318.4,54.5 329,65 		"/>
		<polygon class="st1" points="331,42 329,44 287,44 287,42 		"/>
		<polygon class="st1" points="331,67 287,67 287,65 329,65 		"/>
	</g>
	<g id="left">
		<polygon class="st0" points="3,67 0,70 47,70 47,39 0,39 3,42 5,44 15.6,54.5 5,65 		"/>
		<polygon class="st1" points="3,42 5,44 47,44 47,42 		"/>
		<polygon class="st1" points="3,67 47,67 47,65 5,65 		"/>
	</g>
</g>
</svg>
