<?xml version="1.0" encoding="utf-8"?>
<!-- Generator: Adobe Illustrator 22.1.0, SVG Export Plug-In . SVG Version: 6.00 Build 0)  -->
<svg version="1.1" id="Layer_1" xmlns="http://www.w3.org/2000/svg" xmlns:xlink="http://www.w3.org/1999/xlink" x="0px" y="0px"
	 viewBox="0 0 360 180" style="enable-background:new 0 0 360 180;" xml:space="preserve">
<style type="text/css">
	.st0{fill:#FFFFFF;}
	.st1{fill:#0033B8;}
</style>
<rect id="Rectangle-13-Copy" class="st0" width="360" height="180"/>
<path id="Fill-1" class="st1" d="M249.6,40v9.3h23.2v27.8h9.3V40H249.6z M203.2,40v9.3h7v27.8h9.3V49.3h13.9v18.6h-7v9.3h16.2v-9.3
	V49.3V40H203.2z M180,40v9.3h7v7h9.3v-7V40H180z M140.6,40v9.3h23.2v27.8h9.3V49.3V40H140.6z M117.4,40v9.3h7v27.8h9.3V49.3V40
	H117.4z M101.2,40v13.9H87.3V40H78v44.1h9.3V63.2h23.2v-9.3V40H101.2z M249.6,77.1h9.3V60.9h-9.3V77.1z M249.6,95.7v7v9.3h23.2v18.6
	h-18.6v9.3h27.8v-37.1h-23.2v-7H249.6z M210.2,102.6v9.3h23.2v18.6h-23.2v9.3h32.5v-9.3v-18.6v-9.3H210.2z M187,102.6v9.3h7v18.6
	h-23.2v9.3h32.5v-9.3v-18.6v-9.3H187z M131.3,102.6v9.3v27.8h7h16.2v-9.3h-13.9v-18.6h13.9v18.6h9.3v-18.6v-9.3H131.3z M91.9,102.6
	v9.3v18.6h-7v9.3h16.2v-9.3v-18.6h13.9v27.8h9.3v-27.8v-9.3H91.9z"/>
<rect id="Rectangle" y="167" class="st1" width="360" height="3"/>
<rect id="Rectangle_1_" y="10" class="st1" width="360" height="3"/>
</svg>
