<svg xmlns="http://www.w3.org/2000/svg" viewBox="0 0 360 629"><defs><style>.cls-1{opacity:0.4;}.cls-2{fill:#fff;}</style></defs><title>pattern3</title><g id="Layer_2" data-name="Layer 2"><g id="Layer_1-2" data-name="Layer 1"><g id="pattern" class="cls-1"><rect class="cls-2" x="6" y="82.7" width="3" height="3"/><path class="cls-2" d="M9,85.7v3H3v-6H6v-18H0v3H3v9H0v24H3v-9h9v-6Z"/><rect class="cls-2" x="280.75" y="82.7" width="3" height="3"/><rect class="cls-2" x="271.75" y="73.7" width="3" height="3"/><rect class="cls-2" x="283.75" y="85.7" width="3" height="3"/><rect class="cls-2" x="292.75" y="94.7" width="3" height="3"/><rect class="cls-2" x="292.75" y="70.7" width="3" height="3"/><rect class="cls-2" x="283.75" y="61.7" width="3" height="3"/><rect class="cls-2" x="295.75" y="73.7" width="3" height="3"/><rect class="cls-2" x="304.75" y="82.7" width="3" height="3"/><path class="cls-2" d="M307.75,85.7v3h-6v-6h3v-18h-18v3h-6v-6h3v-3h-6v9h-9v6h3v-3h6v6h-3v18h18v-3h6v6h-3v3h6v-9h9v-6Zm-9-9v12h-12v3h-9v-9h3v-12h12v-3h9v9Z"/><rect class="cls-2" x="342" y="82.7" width="3" height="3"/><rect class="cls-2" x="333" y="73.7" width="3" height="3"/><rect class="cls-2" x="345" y="85.7" width="3" height="3"/><rect class="cls-2" x="354" y="94.7" width="3" height="3"/><rect class="cls-2" x="354" y="70.7" width="3" height="3"/><rect class="cls-2" x="345" y="61.7" width="3" height="3"/><polygon class="cls-2" points="357 73.7 357 76.7 360 76.7 360 67.7 360 73.7 357 73.7"/><polygon class="cls-2" points="360 91.7 360 88.7 354 88.7 351 88.7 348 88.7 348 91.7 339 91.7 339 82.7 342 82.7 342 79.7 342 76.7 342 70.7 348 70.7 351 70.7 354 70.7 354 67.7 360 67.7 360 64.7 351 64.7 348 64.7 348 67.7 342 67.7 342 61.7 345 61.7 345 58.7 342 58.7 339 58.7 339 61.7 339 67.7 333 67.7 330 67.7 330 70.7 330 73.7 333 73.7 333 70.7 339 70.7 339 76.7 336 76.7 336 79.7 336 91.7 336 94.7 339 94.7 351 94.7 354 94.7 354 91.7 360 91.7"/><rect class="cls-2" x="357" y="97.7" width="3" height="3"/><rect class="cls-2" x="222" y="82.7" width="3" height="3"/><rect class="cls-2" x="213" y="73.7" width="3" height="3"/><rect class="cls-2" x="225" y="85.7" width="3" height="3"/><rect class="cls-2" x="234" y="94.7" width="3" height="3"/><rect class="cls-2" x="234" y="70.7" width="3" height="3"/><rect class="cls-2" x="225" y="61.7" width="3" height="3"/><rect class="cls-2" x="237" y="73.7" width="3" height="3"/><rect class="cls-2" x="246" y="82.7" width="3" height="3"/><path class="cls-2" d="M249,85.7v3h-6v-6h3v-18H228v3h-6v-6h3v-3h-6v9h-9v6h3v-3h6v6h-3v18h18v-3h6v6h-3v3h6v-9h9v-6Zm-9-9v12H228v3h-9v-9h3v-12h12v-3h9v9Z"/><rect class="cls-2" x="163.25" y="82.7" width="3" height="3"/><rect class="cls-2" x="154.25" y="73.7" width="3" height="3"/><rect class="cls-2" x="166.25" y="85.7" width="3" height="3"/><rect class="cls-2" x="175.25" y="94.7" width="3" height="3"/><rect class="cls-2" x="175.25" y="70.7" width="3" height="3"/><rect class="cls-2" x="166.25" y="61.7" width="3" height="3"/><rect class="cls-2" x="178.25" y="73.7" width="3" height="3"/><rect class="cls-2" x="187.25" y="82.7" width="3" height="3"/><path class="cls-2" d="M190.25,85.7v3h-6v-6h3v-18h-18v3h-6v-6h3v-3h-6v9h-9v6h3v-3h6v6h-3v18h18v-3h6v6h-3v3h6v-9h9v-6Zm-9-9v12h-12v3h-9v-9h3v-12h12v-3h9v9Z"/><rect class="cls-2" x="104.5" y="82.7" width="3" height="3"/><rect class="cls-2" x="95.5" y="73.7" width="3" height="3"/><rect class="cls-2" x="107.5" y="85.7" width="3" height="3"/><rect class="cls-2" x="116.5" y="94.7" width="3" height="3"/><rect class="cls-2" x="116.5" y="70.7" width="3" height="3"/><rect class="cls-2" x="107.5" y="61.7" width="3" height="3"/><rect class="cls-2" x="119.5" y="73.7" width="3" height="3"/><rect class="cls-2" x="128.5" y="82.7" width="3" height="3"/><path class="cls-2" d="M131.5,85.7v3h-6v-6h3v-18h-18v3h-6v-6h3v-3h-6v9h-9v6h3v-3h6v6h-3v18h18v-3h6v6h-3v3h6v-9h9v-6Zm-9-9v12h-12v3h-9v-9h3v-12h12v-3h9v9Z"/><rect class="cls-2" x="39" y="82.7" width="3" height="3"/><rect class="cls-2" x="30" y="73.7" width="3" height="3"/><rect class="cls-2" x="42" y="85.7" width="3" height="3"/><rect class="cls-2" x="51" y="94.7" width="3" height="3"/><rect class="cls-2" x="51" y="70.7" width="3" height="3"/><rect class="cls-2" x="42" y="61.7" width="3" height="3"/><rect class="cls-2" x="54" y="73.7" width="3" height="3"/><rect class="cls-2" x="63" y="82.7" width="3" height="3"/><path class="cls-2" d="M66,85.7v3H60v-6h3v-18H45v3H39v-6h3v-3H36v9H27v6h3v-3h6v6H33v18H51v-3h6v6H54v3h6v-9h9v-6Zm-9-9v12H45v3H36v-9h3v-12H51v-3h9v9Z"/><rect class="cls-2" x="6" y="200" width="3" height="3"/><path class="cls-2" d="M9,203v3H3v-6H6V182H0v3H3v9H0v24H3v-9h9v-6Z"/><rect class="cls-2" x="280.75" y="200" width="3" height="3"/><rect class="cls-2" x="271.75" y="191" width="3" height="3"/><rect class="cls-2" x="283.75" y="203" width="3" height="3"/><rect class="cls-2" x="292.75" y="212" width="3" height="3"/><rect class="cls-2" x="292.75" y="188" width="3" height="3"/><rect class="cls-2" x="283.75" y="179" width="3" height="3"/><rect class="cls-2" x="295.75" y="191" width="3" height="3"/><rect class="cls-2" x="304.75" y="200" width="3" height="3"/><path class="cls-2" d="M307.75,203v3h-6v-6h3V182h-18v3h-6v-6h3v-3h-6v9h-9v6h3v-3h6v6h-3v18h18v-3h6v6h-3v3h6v-9h9v-6Zm-9-9v12h-12v3h-9v-9h3V188h12v-3h9v9Z"/><rect class="cls-2" x="342" y="200" width="3" height="3"/><rect class="cls-2" x="333" y="191" width="3" height="3"/><rect class="cls-2" x="345" y="203" width="3" height="3"/><rect class="cls-2" x="354" y="212" width="3" height="3"/><rect class="cls-2" x="354" y="188" width="3" height="3"/><rect class="cls-2" x="345" y="179" width="3" height="3"/><polygon class="cls-2" points="357 191 357 194 360 194 360 185 360 191 357 191"/><rect class="cls-2" x="357" y="215" width="3" height="3"/><polygon class="cls-2" points="360 209 360 206 354 206 351 206 348 206 348 209 339 209 339 200 342 200 342 197 342 194 342 188 348 188 351 188 354 188 354 185 360 185 360 182 351 182 348 182 348 185 342 185 342 179 345 179 345 176 342 176 339 176 339 179 339 185 333 185 330 185 330 188 330 191 333 191 333 188 339 188 339 194 336 194 336 197 336 209 336 212 339 212 351 212 354 212 354 209 360 209"/><rect class="cls-2" x="222" y="200" width="3" height="3"/><rect class="cls-2" x="213" y="191" width="3" height="3"/><rect class="cls-2" x="225" y="203" width="3" height="3"/><rect class="cls-2" x="234" y="212" width="3" height="3"/><rect class="cls-2" x="234" y="188" width="3" height="3"/><rect class="cls-2" x="225" y="179" width="3" height="3"/><rect class="cls-2" x="237" y="191" width="3" height="3"/><rect class="cls-2" x="246" y="200" width="3" height="3"/><path class="cls-2" d="M249,203v3h-6v-6h3V182H228v3h-6v-6h3v-3h-6v9h-9v6h3v-3h6v6h-3v18h18v-3h6v6h-3v3h6v-9h9v-6Zm-9-9v12H228v3h-9v-9h3V188h12v-3h9v9Z"/><rect class="cls-2" x="163.25" y="200" width="3" height="3"/><rect class="cls-2" x="154.25" y="191" width="3" height="3"/><rect class="cls-2" x="166.25" y="203" width="3" height="3"/><rect class="cls-2" x="175.25" y="212" width="3" height="3"/><rect class="cls-2" x="175.25" y="188" width="3" height="3"/><rect class="cls-2" x="166.25" y="179" width="3" height="3"/><rect class="cls-2" x="178.25" y="191" width="3" height="3"/><rect class="cls-2" x="187.25" y="200" width="3" height="3"/><path class="cls-2" d="M190.25,203v3h-6v-6h3V182h-18v3h-6v-6h3v-3h-6v9h-9v6h3v-3h6v6h-3v18h18v-3h6v6h-3v3h6v-9h9v-6Zm-9-9v12h-12v3h-9v-9h3V188h12v-3h9v9Z"/><rect class="cls-2" x="104.5" y="200" width="3" height="3"/><rect class="cls-2" x="95.5" y="191" width="3" height="3"/><rect class="cls-2" x="107.5" y="203" width="3" height="3"/><rect class="cls-2" x="116.5" y="212" width="3" height="3"/><rect class="cls-2" x="116.5" y="188" width="3" height="3"/><rect class="cls-2" x="107.5" y="179" width="3" height="3"/><rect class="cls-2" x="119.5" y="191" width="3" height="3"/><rect class="cls-2" x="128.5" y="200" width="3" height="3"/><path class="cls-2" d="M131.5,203v3h-6v-6h3V182h-18v3h-6v-6h3v-3h-6v9h-9v6h3v-3h6v6h-3v18h18v-3h6v6h-3v3h6v-9h9v-6Zm-9-9v12h-12v3h-9v-9h3V188h12v-3h9v9Z"/><rect class="cls-2" x="39" y="200" width="3" height="3"/><rect class="cls-2" x="30" y="191" width="3" height="3"/><rect class="cls-2" x="42" y="203" width="3" height="3"/><rect class="cls-2" x="51" y="212" width="3" height="3"/><rect class="cls-2" x="51" y="188" width="3" height="3"/><rect class="cls-2" x="42" y="179" width="3" height="3"/><rect class="cls-2" x="54" y="191" width="3" height="3"/><rect class="cls-2" x="63" y="200" width="3" height="3"/><path class="cls-2" d="M66,203v3H60v-6h3V182H45v3H39v-6h3v-3H36v9H27v6h3v-3h6v6H33v18H51v-3h6v6H54v3h6v-9h9v-6Zm-9-9v12H45v3H36v-9h3V188H51v-3h9v9Z"/><rect class="cls-2" x="6" y="317" width="3" height="3"/><path class="cls-2" d="M9,320v3H3v-6H6V299H0v3H3v9H0v24H3v-9h9v-6Z"/><rect class="cls-2" x="280.75" y="317" width="3" height="3"/><rect class="cls-2" x="271.75" y="308" width="3" height="3"/><rect class="cls-2" x="283.75" y="320" width="3" height="3"/><rect class="cls-2" x="292.75" y="329" width="3" height="3"/><rect class="cls-2" x="292.75" y="305" width="3" height="3"/><rect class="cls-2" x="283.75" y="296" width="3" height="3"/><rect class="cls-2" x="295.75" y="308" width="3" height="3"/><rect class="cls-2" x="304.75" y="317" width="3" height="3"/><path class="cls-2" d="M307.75,320v3h-6v-6h3V299h-18v3h-6v-6h3v-3h-6v9h-9v6h3v-3h6v6h-3v18h18v-3h6v6h-3v3h6v-9h9v-6Zm-9-9v12h-12v3h-9v-9h3V305h12v-3h9v9Z"/><rect class="cls-2" x="342" y="317" width="3" height="3"/><rect class="cls-2" x="333" y="308" width="3" height="3"/><rect class="cls-2" x="345" y="320" width="3" height="3"/><rect class="cls-2" x="354" y="329" width="3" height="3"/><rect class="cls-2" x="354" y="305" width="3" height="3"/><rect class="cls-2" x="345" y="296" width="3" height="3"/><polygon class="cls-2" points="357 308 357 311 360 311 360 302 360 308 357 308"/><polygon class="cls-2" points="360 326 360 323 354 323 351 323 348 323 348 326 339 326 339 317 342 317 342 314 342 311 342 305 348 305 351 305 354 305 354 302 360 302 360 299 351 299 348 299 348 302 342 302 342 296 345 296 345 293 342 293 339 293 339 296 339 302 333 302 330 302 330 305 330 308 333 308 333 305 339 305 339 311 336 311 336 314 336 326 336 329 339 329 351 329 354 329 354 326 360 326"/><rect class="cls-2" x="357" y="332" width="3" height="3"/><rect class="cls-2" x="222" y="317" width="3" height="3"/><rect class="cls-2" x="213" y="308" width="3" height="3"/><rect class="cls-2" x="225" y="320" width="3" height="3"/><rect class="cls-2" x="234" y="329" width="3" height="3"/><rect class="cls-2" x="234" y="305" width="3" height="3"/><rect class="cls-2" x="225" y="296" width="3" height="3"/><rect class="cls-2" x="237" y="308" width="3" height="3"/><rect class="cls-2" x="246" y="317" width="3" height="3"/><path class="cls-2" d="M249,320v3h-6v-6h3V299H228v3h-6v-6h3v-3h-6v9h-9v6h3v-3h6v6h-3v18h18v-3h6v6h-3v3h6v-9h9v-6Zm-9-9v12H228v3h-9v-9h3V305h12v-3h9v9Z"/><rect class="cls-2" x="163.25" y="317" width="3" height="3"/><rect class="cls-2" x="154.25" y="308" width="3" height="3"/><rect class="cls-2" x="166.25" y="320" width="3" height="3"/><rect class="cls-2" x="175.25" y="329" width="3" height="3"/><rect class="cls-2" x="175.25" y="305" width="3" height="3"/><rect class="cls-2" x="166.25" y="296" width="3" height="3"/><rect class="cls-2" x="178.25" y="308" width="3" height="3"/><rect class="cls-2" x="187.25" y="317" width="3" height="3"/><path class="cls-2" d="M190.25,320v3h-6v-6h3V299h-18v3h-6v-6h3v-3h-6v9h-9v6h3v-3h6v6h-3v18h18v-3h6v6h-3v3h6v-9h9v-6Zm-9-9v12h-12v3h-9v-9h3V305h12v-3h9v9Z"/><rect class="cls-2" x="104.5" y="317" width="3" height="3"/><rect class="cls-2" x="95.5" y="308" width="3" height="3"/><rect class="cls-2" x="107.5" y="320" width="3" height="3"/><rect class="cls-2" x="116.5" y="329" width="3" height="3"/><rect class="cls-2" x="116.5" y="305" width="3" height="3"/><rect class="cls-2" x="107.5" y="296" width="3" height="3"/><rect class="cls-2" x="119.5" y="308" width="3" height="3"/><rect class="cls-2" x="128.5" y="317" width="3" height="3"/><path class="cls-2" d="M131.5,320v3h-6v-6h3V299h-18v3h-6v-6h3v-3h-6v9h-9v6h3v-3h6v6h-3v18h18v-3h6v6h-3v3h6v-9h9v-6Zm-9-9v12h-12v3h-9v-9h3V305h12v-3h9v9Z"/><rect class="cls-2" x="39" y="317" width="3" height="3"/><rect class="cls-2" x="30" y="308" width="3" height="3"/><rect class="cls-2" x="42" y="320" width="3" height="3"/><rect class="cls-2" x="51" y="329" width="3" height="3"/><rect class="cls-2" x="51" y="305" width="3" height="3"/><rect class="cls-2" x="42" y="296" width="3" height="3"/><rect class="cls-2" x="54" y="308" width="3" height="3"/><rect class="cls-2" x="63" y="317" width="3" height="3"/><path class="cls-2" d="M66,320v3H60v-6h3V299H45v3H39v-6h3v-3H36v9H27v6h3v-3h6v6H33v18H51v-3h6v6H54v3h6v-9h9v-6Zm-9-9v12H45v3H36v-9h3V305H51v-3h9v9Z"/><rect class="cls-2" x="6" y="435" width="3" height="3"/><path class="cls-2" d="M9,438v3H3v-6H6V417H0v3H3v9H0v24H3v-9h9v-6Z"/><rect class="cls-2" x="6" y="552" width="3" height="3"/><path class="cls-2" d="M9,555v3H3v-6H6V534H0v3H3v9H0v24H3v-9h9v-6Z"/><path class="cls-2" d="M9,488v3H3v-6H6V467H0v3H3v9H0v24H3v-9h9v-6Z"/><rect class="cls-2" x="280.75" y="435" width="3" height="3"/><rect class="cls-2" x="271.75" y="426" width="3" height="3"/><rect class="cls-2" x="283.75" y="438" width="3" height="3"/><rect class="cls-2" x="292.75" y="447" width="3" height="3"/><rect class="cls-2" x="292.75" y="423" width="3" height="3"/><rect class="cls-2" x="283.75" y="414" width="3" height="3"/><rect class="cls-2" x="295.75" y="426" width="3" height="3"/><rect class="cls-2" x="304.75" y="435" width="3" height="3"/><path class="cls-2" d="M307.75,438v3h-6v-6h3V417h-18v3h-6v-6h3v-3h-6v9h-9v6h3v-3h6v6h-3v18h18v-3h6v6h-3v3h6v-9h9v-6Zm-9-9v12h-12v3h-9v-9h3V423h12v-3h9v9Z"/><rect class="cls-2" x="342" y="435" width="3" height="3"/><rect class="cls-2" x="333" y="426" width="3" height="3"/><rect class="cls-2" x="345" y="438" width="3" height="3"/><rect class="cls-2" x="354" y="447" width="3" height="3"/><rect class="cls-2" x="354" y="423" width="3" height="3"/><rect class="cls-2" x="345" y="414" width="3" height="3"/><polygon class="cls-2" points="357 426 357 429 360 429 360 420 360 426 357 426"/><polygon class="cls-2" points="360 444 360 441 354 441 351 441 348 441 348 444 339 444 339 435 342 435 342 432 342 429 342 423 348 423 351 423 354 423 354 420 360 420 360 417 351 417 348 417 348 420 342 420 342 414 345 414 345 411 342 411 339 411 339 414 339 420 333 420 330 420 330 423 330 426 333 426 333 423 339 423 339 429 336 429 336 432 336 444 336 447 339 447 351 447 354 447 354 444 360 444"/><rect class="cls-2" x="357" y="450" width="3" height="3"/><rect class="cls-2" x="342" y="552" width="3" height="3"/><rect class="cls-2" x="333" y="543" width="3" height="3"/><rect class="cls-2" x="345" y="555" width="3" height="3"/><rect class="cls-2" x="354" y="564" width="3" height="3"/><rect class="cls-2" x="354" y="540" width="3" height="3"/><rect class="cls-2" x="345" y="531" width="3" height="3"/><polygon class="cls-2" points="357 543 357 546 360 546 360 537 360 543 357 543"/><polygon class="cls-2" points="360 561 360 558 354 558 351 558 348 558 348 561 339 561 339 552 342 552 342 549 342 546 342 540 348 540 351 540 354 540 354 537 360 537 360 534 351 534 348 534 348 537 342 537 342 531 345 531 345 528 342 528 339 528 339 531 339 537 333 537 330 537 330 540 330 543 333 543 333 540 339 540 339 546 336 546 336 549 336 561 336 564 339 564 351 564 354 564 354 561 360 561"/><rect class="cls-2" x="357" y="567" width="3" height="3"/><rect class="cls-2" x="222" y="435" width="3" height="3"/><rect class="cls-2" x="213" y="426" width="3" height="3"/><rect class="cls-2" x="225" y="438" width="3" height="3"/><rect class="cls-2" x="234" y="447" width="3" height="3"/><rect class="cls-2" x="234" y="423" width="3" height="3"/><rect class="cls-2" x="225" y="414" width="3" height="3"/><rect class="cls-2" x="237" y="426" width="3" height="3"/><rect class="cls-2" x="246" y="435" width="3" height="3"/><path class="cls-2" d="M249,438v3h-6v-6h3V417H228v3h-6v-6h3v-3h-6v9h-9v6h3v-3h6v6h-3v18h18v-3h6v6h-3v3h6v-9h9v-6Zm-9-9v12H228v3h-9v-9h3V423h12v-3h9v9Z"/><rect class="cls-2" x="163.25" y="435" width="3" height="3"/><rect class="cls-2" x="154.25" y="426" width="3" height="3"/><rect class="cls-2" x="166.25" y="438" width="3" height="3"/><rect class="cls-2" x="175.25" y="447" width="3" height="3"/><rect class="cls-2" x="175.25" y="423" width="3" height="3"/><rect class="cls-2" x="166.25" y="414" width="3" height="3"/><rect class="cls-2" x="178.25" y="426" width="3" height="3"/><rect class="cls-2" x="187.25" y="435" width="3" height="3"/><path class="cls-2" d="M190.25,438v3h-6v-6h3V417h-18v3h-6v-6h3v-3h-6v9h-9v6h3v-3h6v6h-3v18h18v-3h6v6h-3v3h6v-9h9v-6Zm-9-9v12h-12v3h-9v-9h3V423h12v-3h9v9Z"/><rect class="cls-2" x="104.5" y="435" width="3" height="3"/><rect class="cls-2" x="95.5" y="426" width="3" height="3"/><rect class="cls-2" x="107.5" y="438" width="3" height="3"/><rect class="cls-2" x="116.5" y="447" width="3" height="3"/><rect class="cls-2" x="116.5" y="423" width="3" height="3"/><rect class="cls-2" x="107.5" y="414" width="3" height="3"/><rect class="cls-2" x="119.5" y="426" width="3" height="3"/><rect class="cls-2" x="128.5" y="435" width="3" height="3"/><path class="cls-2" d="M131.5,438v3h-6v-6h3V417h-18v3h-6v-6h3v-3h-6v9h-9v6h3v-3h6v6h-3v18h18v-3h6v6h-3v3h6v-9h9v-6Zm-9-9v12h-12v3h-9v-9h3V423h12v-3h9v9Z"/><rect class="cls-2" x="39" y="435" width="3" height="3"/><rect class="cls-2" x="30" y="426" width="3" height="3"/><rect class="cls-2" x="42" y="438" width="3" height="3"/><rect class="cls-2" x="51" y="447" width="3" height="3"/><rect class="cls-2" x="51" y="423" width="3" height="3"/><rect class="cls-2" x="42" y="414" width="3" height="3"/><rect class="cls-2" x="54" y="426" width="3" height="3"/><rect class="cls-2" x="63" y="435" width="3" height="3"/><path class="cls-2" d="M66,438v3H60v-6h3V417H45v3H39v-6h3v-3H36v9H27v6h3v-3h6v6H33v18H51v-3h6v6H54v3h6v-9h9v-6Zm-9-9v12H45v3H36v-9h3V423H51v-3h9v9Z"/><rect class="cls-2" x="278.75" y="552" width="3" height="3"/><rect class="cls-2" x="269.75" y="543" width="3" height="3"/><rect class="cls-2" x="281.75" y="555" width="3" height="3"/><rect class="cls-2" x="290.75" y="564" width="3" height="3"/><rect class="cls-2" x="290.75" y="540" width="3" height="3"/><rect class="cls-2" x="281.75" y="531" width="3" height="3"/><rect class="cls-2" x="293.75" y="543" width="3" height="3"/><rect class="cls-2" x="302.75" y="552" width="3" height="3"/><path class="cls-2" d="M305.75,555v3h-6v-6h3V534h-18v3h-6v-6h3v-3h-6v9h-9v6h3v-3h6v6h-3v18h18v-3h6v6h-3v3h6v-9h9v-6Zm-9-9v12h-12v3h-9v-9h3V540h12v-3h9v9Z"/><rect class="cls-2" x="220" y="552" width="3" height="3"/><rect class="cls-2" x="211" y="543" width="3" height="3"/><rect class="cls-2" x="223" y="555" width="3" height="3"/><rect class="cls-2" x="232" y="564" width="3" height="3"/><rect class="cls-2" x="232" y="540" width="3" height="3"/><rect class="cls-2" x="223" y="531" width="3" height="3"/><rect class="cls-2" x="235" y="543" width="3" height="3"/><rect class="cls-2" x="244" y="552" width="3" height="3"/><path class="cls-2" d="M247,555v3h-6v-6h3V534H226v3h-6v-6h3v-3h-6v9h-9v6h3v-3h6v6h-3v18h18v-3h6v6h-3v3h6v-9h9v-6Zm-9-9v12H226v3h-9v-9h3V540h12v-3h9v9Z"/><rect class="cls-2" x="161.25" y="552" width="3" height="3"/><rect class="cls-2" x="152.25" y="543" width="3" height="3"/><rect class="cls-2" x="164.25" y="555" width="3" height="3"/><rect class="cls-2" x="173.25" y="564" width="3" height="3"/><rect class="cls-2" x="173.25" y="540" width="3" height="3"/><rect class="cls-2" x="164.25" y="531" width="3" height="3"/><rect class="cls-2" x="176.25" y="543" width="3" height="3"/><rect class="cls-2" x="185.25" y="552" width="3" height="3"/><path class="cls-2" d="M188.25,555v3h-6v-6h3V534h-18v3h-6v-6h3v-3h-6v9h-9v6h3v-3h6v6h-3v18h18v-3h6v6h-3v3h6v-9h9v-6Zm-9-9v12h-12v3h-9v-9h3V540h12v-3h9v9Z"/><rect class="cls-2" x="102.5" y="552" width="3" height="3"/><rect class="cls-2" x="93.5" y="543" width="3" height="3"/><rect class="cls-2" x="105.5" y="555" width="3" height="3"/><rect class="cls-2" x="114.5" y="564" width="3" height="3"/><rect class="cls-2" x="114.5" y="540" width="3" height="3"/><rect class="cls-2" x="105.5" y="531" width="3" height="3"/><rect class="cls-2" x="117.5" y="543" width="3" height="3"/><rect class="cls-2" x="126.5" y="552" width="3" height="3"/><path class="cls-2" d="M129.5,555v3h-6v-6h3V534h-18v3h-6v-6h3v-3h-6v9h-9v6h3v-3h6v6h-3v18h18v-3h6v6h-3v3h6v-9h9v-6Zm-9-9v12h-12v3h-9v-9h3V540h12v-3h9v9Z"/><rect class="cls-2" x="37" y="552" width="3" height="3"/><rect class="cls-2" x="28" y="543" width="3" height="3"/><rect class="cls-2" x="40" y="555" width="3" height="3"/><rect class="cls-2" x="49" y="564" width="3" height="3"/><rect class="cls-2" x="49" y="540" width="3" height="3"/><rect class="cls-2" x="40" y="531" width="3" height="3"/><rect class="cls-2" x="52" y="543" width="3" height="3"/><rect class="cls-2" x="61" y="552" width="3" height="3"/><path class="cls-2" d="M64,555v3H58v-6h3V534H43v3H37v-6h3v-3H34v9H25v6h3v-3h6v6H31v18H49v-3h6v6H52v3h6v-9h9v-6Zm-9-9v12H43v3H34v-9h3V540H49v-3h9v9Z"/><rect class="cls-2" x="250.75" y="24" width="3" height="3"/><rect class="cls-2" x="241.75" y="15" width="3" height="3"/><rect class="cls-2" x="253.75" y="27" width="3" height="3"/><rect class="cls-2" x="262.75" y="36" width="3" height="3"/><rect class="cls-2" x="262.75" y="12" width="3" height="3"/><rect class="cls-2" x="253.75" y="3" width="3" height="3"/><rect class="cls-2" x="265.75" y="15" width="3" height="3"/><rect class="cls-2" x="274.75" y="24" width="3" height="3"/><path class="cls-2" d="M277.75,27v3h-6V24h3V6h-18V9h-6V3h3V0h-6V9h-9v6h3V12h6v6h-3V36h18V33h6v6h-3v3h6V33h9V27Zm-9-9V30h-12v3h-9V24h3V12h12V9h9v9Z"/><rect class="cls-2" x="309.5" y="24" width="3" height="3"/><rect class="cls-2" x="300.5" y="15" width="3" height="3"/><rect class="cls-2" x="312.5" y="27" width="3" height="3"/><rect class="cls-2" x="321.5" y="36" width="3" height="3"/><rect class="cls-2" x="321.5" y="12" width="3" height="3"/><rect class="cls-2" x="312.5" y="3" width="3" height="3"/><rect class="cls-2" x="324.5" y="15" width="3" height="3"/><rect class="cls-2" x="333.5" y="24" width="3" height="3"/><path class="cls-2" d="M336.5,27v3h-6V24h3V6h-18V9h-6V3h3V0h-6V9h-9v6h3V12h6v6h-3V36h18V33h6v6h-3v3h6V33h9V27Zm-9-9V30h-12v3h-9V24h3V12h12V9h9v9Z"/><rect class="cls-2" x="192" y="24" width="3" height="3"/><rect class="cls-2" x="183" y="15" width="3" height="3"/><rect class="cls-2" x="195" y="27" width="3" height="3"/><rect class="cls-2" x="204" y="36" width="3" height="3"/><rect class="cls-2" x="204" y="12" width="3" height="3"/><rect class="cls-2" x="195" y="3" width="3" height="3"/><rect class="cls-2" x="207" y="15" width="3" height="3"/><rect class="cls-2" x="216" y="24" width="3" height="3"/><path class="cls-2" d="M219,27v3h-6V24h3V6H198V9h-6V3h3V0h-6V9h-9v6h3V12h6v6h-3V36h18V33h6v6h-3v3h6V33h9V27Zm-9-9V30H198v3h-9V24h3V12h12V9h9v9Z"/><rect class="cls-2" x="133.25" y="24" width="3" height="3"/><rect class="cls-2" x="124.25" y="15" width="3" height="3"/><rect class="cls-2" x="136.25" y="27" width="3" height="3"/><rect class="cls-2" x="145.25" y="36" width="3" height="3"/><rect class="cls-2" x="145.25" y="12" width="3" height="3"/><rect class="cls-2" x="136.25" y="3" width="3" height="3"/><rect class="cls-2" x="148.25" y="15" width="3" height="3"/><rect class="cls-2" x="157.25" y="24" width="3" height="3"/><path class="cls-2" d="M160.25,27v3h-6V24h3V6h-18V9h-6V3h3V0h-6V9h-9v6h3V12h6v6h-3V36h18V33h6v6h-3v3h6V33h9V27Zm-9-9V30h-12v3h-9V24h3V12h12V9h9v9Z"/><rect class="cls-2" x="74.5" y="24" width="3" height="3"/><rect class="cls-2" x="65.5" y="15" width="3" height="3"/><rect class="cls-2" x="77.5" y="27" width="3" height="3"/><rect class="cls-2" x="86.5" y="36" width="3" height="3"/><rect class="cls-2" x="86.5" y="12" width="3" height="3"/><rect class="cls-2" x="77.5" y="3" width="3" height="3"/><rect class="cls-2" x="89.5" y="15" width="3" height="3"/><rect class="cls-2" x="98.5" y="24" width="3" height="3"/><path class="cls-2" d="M101.5,27v3h-6V24h3V6h-18V9h-6V3h3V0h-6V9h-9v6h3V12h6v6h-3V36h18V33h6v6h-3v3h6V33h9V27Zm-9-9V30h-12v3h-9V24h3V12h12V9h9v9Z"/><rect class="cls-2" x="247.75" y="141.4" width="3" height="3"/><rect class="cls-2" x="238.75" y="132.4" width="3" height="3"/><rect class="cls-2" x="250.75" y="144.4" width="3" height="3"/><rect class="cls-2" x="259.75" y="153.4" width="3" height="3"/><rect class="cls-2" x="259.75" y="129.4" width="3" height="3"/><rect class="cls-2" x="250.75" y="120.4" width="3" height="3"/><rect class="cls-2" x="262.75" y="132.4" width="3" height="3"/><rect class="cls-2" x="271.75" y="141.4" width="3" height="3"/><path class="cls-2" d="M274.75,144.4v3h-6v-6h3v-18h-18v3h-6v-6h3v-3h-6v9h-9v6h3v-3h6v6h-3v18h18v-3h6v6h-3v3h6v-9h9v-6Zm-9-9v12h-12v3h-9v-9h3v-12h12v-3h9v9Z"/><rect class="cls-2" x="306.5" y="141.4" width="3" height="3"/><rect class="cls-2" x="297.5" y="132.4" width="3" height="3"/><rect class="cls-2" x="309.5" y="144.4" width="3" height="3"/><rect class="cls-2" x="318.5" y="153.4" width="3" height="3"/><rect class="cls-2" x="318.5" y="129.4" width="3" height="3"/><rect class="cls-2" x="309.5" y="120.4" width="3" height="3"/><rect class="cls-2" x="321.5" y="132.4" width="3" height="3"/><rect class="cls-2" x="330.5" y="141.4" width="3" height="3"/><path class="cls-2" d="M333.5,144.4v3h-6v-6h3v-18h-18v3h-6v-6h3v-3h-6v9h-9v6h3v-3h6v6h-3v18h18v-3h6v6h-3v3h6v-9h9v-6Zm-9-9v12h-12v3h-9v-9h3v-12h12v-3h9v9Z"/><polygon class="cls-2" points="357 132.4 357 135.4 360 135.4 360 129.4 360 132.4 357 132.4"/><polygon class="cls-2" points="354 126.4 354 129.4 354 132.4 357 132.4 357 129.4 360 129.4 360 126.4 357 126.4 354 126.4"/><polygon class="cls-2" points="357 15 357 18 360 18 360 12 360 15 357 15"/><polygon class="cls-2" points="354 9 354 12 354 15 357 15 357 12 360 12 360 9 357 9 354 9"/><rect class="cls-2" x="189" y="141.4" width="3" height="3"/><rect class="cls-2" x="180" y="132.4" width="3" height="3"/><rect class="cls-2" x="192" y="144.4" width="3" height="3"/><rect class="cls-2" x="201" y="153.4" width="3" height="3"/><rect class="cls-2" x="201" y="129.4" width="3" height="3"/><rect class="cls-2" x="192" y="120.4" width="3" height="3"/><rect class="cls-2" x="204" y="132.4" width="3" height="3"/><rect class="cls-2" x="213" y="141.4" width="3" height="3"/><path class="cls-2" d="M216,144.4v3h-6v-6h3v-18H195v3h-6v-6h3v-3h-6v9h-9v6h3v-3h6v6h-3v18h18v-3h6v6h-3v3h6v-9h9v-6Zm-9-9v12H195v3h-9v-9h3v-12h12v-3h9v9Z"/><rect class="cls-2" x="130.25" y="141.4" width="3" height="3"/><rect class="cls-2" x="121.25" y="132.4" width="3" height="3"/><rect class="cls-2" x="133.25" y="144.4" width="3" height="3"/><rect class="cls-2" x="142.25" y="153.4" width="3" height="3"/><rect class="cls-2" x="142.25" y="129.4" width="3" height="3"/><rect class="cls-2" x="133.25" y="120.4" width="3" height="3"/><rect class="cls-2" x="145.25" y="132.4" width="3" height="3"/><rect class="cls-2" x="154.25" y="141.4" width="3" height="3"/><path class="cls-2" d="M157.25,144.4v3h-6v-6h3v-18h-18v3h-6v-6h3v-3h-6v9h-9v6h3v-3h6v6h-3v18h18v-3h6v6h-3v3h6v-9h9v-6Zm-9-9v12h-12v3h-9v-9h3v-12h12v-3h9v9Z"/><rect class="cls-2" x="71.5" y="141.4" width="3" height="3"/><rect class="cls-2" x="62.5" y="132.4" width="3" height="3"/><rect class="cls-2" x="74.5" y="144.4" width="3" height="3"/><rect class="cls-2" x="83.5" y="153.4" width="3" height="3"/><rect class="cls-2" x="83.5" y="129.4" width="3" height="3"/><rect class="cls-2" x="74.5" y="120.4" width="3" height="3"/><rect class="cls-2" x="86.5" y="132.4" width="3" height="3"/><rect class="cls-2" x="95.5" y="141.4" width="3" height="3"/><path class="cls-2" d="M98.5,144.4v3h-6v-6h3v-18h-18v3h-6v-6h3v-3h-6v9h-9v6h3v-3h6v6h-3v18h18v-3h6v6h-3v3h6v-9h9v-6Zm-9-9v12h-12v3h-9v-9h3v-12h12v-3h9v9Z"/><rect class="cls-2" x="6" y="141.4" width="3" height="3"/><rect class="cls-2" x="9" y="144.4" width="3" height="3"/><rect class="cls-2" x="18" y="153.4" width="3" height="3"/><rect class="cls-2" x="18" y="129.4" width="3" height="3"/><rect class="cls-2" x="9" y="120.4" width="3" height="3"/><rect class="cls-2" x="21" y="132.4" width="3" height="3"/><rect class="cls-2" x="30" y="141.4" width="3" height="3"/><path class="cls-2" d="M33,144.4v3H27v-6h3v-18H12v3H6v-6H9v-3H3v9H0v3H3v6H0v18H18v-3h6v6H21v3h6v-9h9v-6Zm-9-9v12H12v3H3v-9H6v-12H18v-3h9v9Z"/><rect class="cls-2" x="6" y="24" width="3" height="3"/><rect class="cls-2" x="9" y="27" width="3" height="3"/><rect class="cls-2" x="18" y="36" width="3" height="3"/><rect class="cls-2" x="18" y="12" width="3" height="3"/><rect class="cls-2" x="9" y="3" width="3" height="3"/><rect class="cls-2" x="21" y="15" width="3" height="3"/><rect class="cls-2" x="30" y="24" width="3" height="3"/><path class="cls-2" d="M33,27v3H27V24h3V6H12V9H6V3H9V0H3V9H0v3H3v6H0V36H18V33h6v6H21v3h6V33h9V27Zm-9-9V30H12v3H3V24H6V12H18V9h9v9Z"/><rect class="cls-2" x="247.75" y="258.8" width="3" height="3"/><rect class="cls-2" x="238.75" y="249.8" width="3" height="3"/><rect class="cls-2" x="250.75" y="261.8" width="3" height="3"/><rect class="cls-2" x="259.75" y="270.8" width="3" height="3"/><rect class="cls-2" x="259.75" y="246.8" width="3" height="3"/><rect class="cls-2" x="250.75" y="237.8" width="3" height="3"/><rect class="cls-2" x="262.75" y="249.8" width="3" height="3"/><rect class="cls-2" x="271.75" y="258.8" width="3" height="3"/><path class="cls-2" d="M274.75,261.8v3h-6v-6h3v-18h-18v3h-6v-6h3v-3h-6v9h-9v6h3v-3h6v6h-3v18h18v-3h6v6h-3v3h6v-9h9v-6Zm-9-9v12h-12v3h-9v-9h3v-12h12v-3h9v9Z"/><rect class="cls-2" x="306.5" y="258.8" width="3" height="3"/><rect class="cls-2" x="297.5" y="249.8" width="3" height="3"/><rect class="cls-2" x="309.5" y="261.8" width="3" height="3"/><rect class="cls-2" x="318.5" y="270.8" width="3" height="3"/><rect class="cls-2" x="318.5" y="246.8" width="3" height="3"/><rect class="cls-2" x="309.5" y="237.8" width="3" height="3"/><rect class="cls-2" x="321.5" y="249.8" width="3" height="3"/><rect class="cls-2" x="330.5" y="258.8" width="3" height="3"/><path class="cls-2" d="M333.5,261.8v3h-6v-6h3v-18h-18v3h-6v-6h3v-3h-6v9h-9v6h3v-3h6v6h-3v18h18v-3h6v6h-3v3h6v-9h9v-6Zm-9-9v12h-12v3h-9v-9h3v-12h12v-3h9v9Z"/><polygon class="cls-2" points="357 249.8 357 252.8 360 252.8 360 246.8 360 249.8 357 249.8"/><polygon class="cls-2" points="354 243.8 354 246.8 354 249.8 357 249.8 357 246.8 360 246.8 360 243.8 357 243.8 354 243.8"/><rect class="cls-2" x="189" y="258.8" width="3" height="3"/><rect class="cls-2" x="180" y="249.8" width="3" height="3"/><rect class="cls-2" x="192" y="261.8" width="3" height="3"/><rect class="cls-2" x="201" y="270.8" width="3" height="3"/><rect class="cls-2" x="201" y="246.8" width="3" height="3"/><rect class="cls-2" x="192" y="237.8" width="3" height="3"/><rect class="cls-2" x="204" y="249.8" width="3" height="3"/><rect class="cls-2" x="213" y="258.8" width="3" height="3"/><path class="cls-2" d="M216,261.8v3h-6v-6h3v-18H195v3h-6v-6h3v-3h-6v9h-9v6h3v-3h6v6h-3v18h18v-3h6v6h-3v3h6v-9h9v-6Zm-9-9v12H195v3h-9v-9h3v-12h12v-3h9v9Z"/><rect class="cls-2" x="130.25" y="258.8" width="3" height="3"/><rect class="cls-2" x="121.25" y="249.8" width="3" height="3"/><rect class="cls-2" x="133.25" y="261.8" width="3" height="3"/><rect class="cls-2" x="142.25" y="270.8" width="3" height="3"/><rect class="cls-2" x="142.25" y="246.8" width="3" height="3"/><rect class="cls-2" x="133.25" y="237.8" width="3" height="3"/><rect class="cls-2" x="145.25" y="249.8" width="3" height="3"/><rect class="cls-2" x="154.25" y="258.8" width="3" height="3"/><path class="cls-2" d="M157.25,261.8v3h-6v-6h3v-18h-18v3h-6v-6h3v-3h-6v9h-9v6h3v-3h6v6h-3v18h18v-3h6v6h-3v3h6v-9h9v-6Zm-9-9v12h-12v3h-9v-9h3v-12h12v-3h9v9Z"/><rect class="cls-2" x="71.5" y="258.8" width="3" height="3"/><rect class="cls-2" x="62.5" y="249.8" width="3" height="3"/><rect class="cls-2" x="74.5" y="261.8" width="3" height="3"/><rect class="cls-2" x="83.5" y="270.8" width="3" height="3"/><rect class="cls-2" x="83.5" y="246.8" width="3" height="3"/><rect class="cls-2" x="74.5" y="237.8" width="3" height="3"/><rect class="cls-2" x="86.5" y="249.8" width="3" height="3"/><rect class="cls-2" x="95.5" y="258.8" width="3" height="3"/><path class="cls-2" d="M98.5,261.8v3h-6v-6h3v-18h-18v3h-6v-6h3v-3h-6v9h-9v6h3v-3h6v6h-3v18h18v-3h6v6h-3v3h6v-9h9v-6Zm-9-9v12h-12v3h-9v-9h3v-12h12v-3h9v9Z"/><rect class="cls-2" x="6" y="258.8" width="3" height="3"/><rect class="cls-2" x="9" y="261.8" width="3" height="3"/><rect class="cls-2" x="18" y="270.8" width="3" height="3"/><rect class="cls-2" x="18" y="246.8" width="3" height="3"/><rect class="cls-2" x="9" y="237.8" width="3" height="3"/><rect class="cls-2" x="21" y="249.8" width="3" height="3"/><rect class="cls-2" x="30" y="258.8" width="3" height="3"/><path class="cls-2" d="M33,261.8v3H27v-6h3v-18H12v3H6v-6H9v-3H3v9H0v3H3v6H0v18H18v-3h6v6H21v3h6v-9h9v-6Zm-9-9v12H12v3H3v-9H6v-12H18v-3h9v9Z"/><rect class="cls-2" x="247.75" y="376.2" width="3" height="3"/><rect class="cls-2" x="238.75" y="367.2" width="3" height="3"/><rect class="cls-2" x="250.75" y="379.2" width="3" height="3"/><rect class="cls-2" x="259.75" y="388.2" width="3" height="3"/><rect class="cls-2" x="259.75" y="364.2" width="3" height="3"/><rect class="cls-2" x="250.75" y="355.2" width="3" height="3"/><rect class="cls-2" x="262.75" y="367.2" width="3" height="3"/><rect class="cls-2" x="271.75" y="376.2" width="3" height="3"/><path class="cls-2" d="M274.75,379.2v3h-6v-6h3v-18h-18v3h-6v-6h3v-3h-6v9h-9v6h3v-3h6v6h-3v18h18v-3h6v6h-3v3h6v-9h9v-6Zm-9-9v12h-12v3h-9v-9h3v-12h12v-3h9v9Z"/><rect class="cls-2" x="306.5" y="376.2" width="3" height="3"/><rect class="cls-2" x="297.5" y="367.2" width="3" height="3"/><rect class="cls-2" x="309.5" y="379.2" width="3" height="3"/><rect class="cls-2" x="318.5" y="388.2" width="3" height="3"/><rect class="cls-2" x="318.5" y="364.2" width="3" height="3"/><rect class="cls-2" x="309.5" y="355.2" width="3" height="3"/><rect class="cls-2" x="321.5" y="367.2" width="3" height="3"/><rect class="cls-2" x="330.5" y="376.2" width="3" height="3"/><path class="cls-2" d="M333.5,379.2v3h-6v-6h3v-18h-18v3h-6v-6h3v-3h-6v9h-9v6h3v-3h6v6h-3v18h18v-3h6v6h-3v3h6v-9h9v-6Zm-9-9v12h-12v3h-9v-9h3v-12h12v-3h9v9Z"/><polygon class="cls-2" points="357 367.2 357 370.2 360 370.2 360 364.2 360 367.2 357 367.2"/><polygon class="cls-2" points="354 361.2 354 364.2 354 367.2 357 367.2 357 364.2 360 364.2 360 361.2 357 361.2 354 361.2"/><rect class="cls-2" x="189" y="376.2" width="3" height="3"/><rect class="cls-2" x="180" y="367.2" width="3" height="3"/><rect class="cls-2" x="192" y="379.2" width="3" height="3"/><rect class="cls-2" x="201" y="388.2" width="3" height="3"/><rect class="cls-2" x="201" y="364.2" width="3" height="3"/><rect class="cls-2" x="192" y="355.2" width="3" height="3"/><rect class="cls-2" x="204" y="367.2" width="3" height="3"/><rect class="cls-2" x="213" y="376.2" width="3" height="3"/><path class="cls-2" d="M216,379.2v3h-6v-6h3v-18H195v3h-6v-6h3v-3h-6v9h-9v6h3v-3h6v6h-3v18h18v-3h6v6h-3v3h6v-9h9v-6Zm-9-9v12H195v3h-9v-9h3v-12h12v-3h9v9Z"/><rect class="cls-2" x="130.25" y="376.2" width="3" height="3"/><rect class="cls-2" x="121.25" y="367.2" width="3" height="3"/><rect class="cls-2" x="133.25" y="379.2" width="3" height="3"/><rect class="cls-2" x="142.25" y="388.2" width="3" height="3"/><rect class="cls-2" x="142.25" y="364.2" width="3" height="3"/><rect class="cls-2" x="133.25" y="355.2" width="3" height="3"/><rect class="cls-2" x="145.25" y="367.2" width="3" height="3"/><rect class="cls-2" x="154.25" y="376.2" width="3" height="3"/><path class="cls-2" d="M157.25,379.2v3h-6v-6h3v-18h-18v3h-6v-6h3v-3h-6v9h-9v6h3v-3h6v6h-3v18h18v-3h6v6h-3v3h6v-9h9v-6Zm-9-9v12h-12v3h-9v-9h3v-12h12v-3h9v9Z"/><rect class="cls-2" x="71.5" y="376.2" width="3" height="3"/><rect class="cls-2" x="62.5" y="367.2" width="3" height="3"/><rect class="cls-2" x="74.5" y="379.2" width="3" height="3"/><rect class="cls-2" x="83.5" y="388.2" width="3" height="3"/><rect class="cls-2" x="83.5" y="364.2" width="3" height="3"/><rect class="cls-2" x="74.5" y="355.2" width="3" height="3"/><rect class="cls-2" x="86.5" y="367.2" width="3" height="3"/><rect class="cls-2" x="95.5" y="376.2" width="3" height="3"/><path class="cls-2" d="M98.5,379.2v3h-6v-6h3v-18h-18v3h-6v-6h3v-3h-6v9h-9v6h3v-3h6v6h-3v18h18v-3h6v6h-3v3h6v-9h9v-6Zm-9-9v12h-12v3h-9v-9h3v-12h12v-3h9v9Z"/><rect class="cls-2" x="6" y="376.2" width="3" height="3"/><rect class="cls-2" x="9" y="379.2" width="3" height="3"/><rect class="cls-2" x="18" y="388.2" width="3" height="3"/><rect class="cls-2" x="18" y="364.2" width="3" height="3"/><rect class="cls-2" x="9" y="355.2" width="3" height="3"/><rect class="cls-2" x="21" y="367.2" width="3" height="3"/><rect class="cls-2" x="30" y="376.2" width="3" height="3"/><path class="cls-2" d="M33,379.2v3H27v-6h3v-18H12v3H6v-6H9v-3H3v9H0v3H3v6H0v18H18v-3h6v6H21v3h6v-9h9v-6Zm-9-9v12H12v3H3v-9H6v-12H18v-3h9v9Z"/><rect class="cls-2" x="247.75" y="611" width="3" height="3"/><rect class="cls-2" x="238.75" y="602" width="3" height="3"/><rect class="cls-2" x="250.75" y="614" width="3" height="3"/><rect class="cls-2" x="259.75" y="623" width="3" height="3"/><rect class="cls-2" x="259.75" y="599" width="3" height="3"/><rect class="cls-2" x="250.75" y="590" width="3" height="3"/><rect class="cls-2" x="262.75" y="602" width="3" height="3"/><rect class="cls-2" x="271.75" y="611" width="3" height="3"/><path class="cls-2" d="M274.75,614v3h-6v-6h3V593h-18v3h-6v-6h3v-3h-6v9h-9v6h3v-3h6v6h-3v18h18v-3h6v6h-3v3h6v-9h9v-6Zm-9-9v12h-12v3h-9v-9h3V599h12v-3h9v9Z"/><rect class="cls-2" x="306.5" y="611" width="3" height="3"/><rect class="cls-2" x="297.5" y="602" width="3" height="3"/><rect class="cls-2" x="309.5" y="614" width="3" height="3"/><rect class="cls-2" x="318.5" y="623" width="3" height="3"/><rect class="cls-2" x="318.5" y="599" width="3" height="3"/><rect class="cls-2" x="309.5" y="590" width="3" height="3"/><rect class="cls-2" x="321.5" y="602" width="3" height="3"/><rect class="cls-2" x="330.5" y="611" width="3" height="3"/><path class="cls-2" d="M333.5,614v3h-6v-6h3V593h-18v3h-6v-6h3v-3h-6v9h-9v6h3v-3h6v6h-3v18h18v-3h6v6h-3v3h6v-9h9v-6Zm-9-9v12h-12v3h-9v-9h3V599h12v-3h9v9Z"/><polygon class="cls-2" points="357 602 357 605 360 605 360 599 360 602 357 602"/><polygon class="cls-2" points="354 596 354 599 354 602 357 602 357 599 360 599 360 596 357 596 354 596"/><rect class="cls-2" x="189" y="611" width="3" height="3"/><rect class="cls-2" x="180" y="602" width="3" height="3"/><rect class="cls-2" x="192" y="614" width="3" height="3"/><rect class="cls-2" x="201" y="623" width="3" height="3"/><rect class="cls-2" x="201" y="599" width="3" height="3"/><rect class="cls-2" x="192" y="590" width="3" height="3"/><rect class="cls-2" x="204" y="602" width="3" height="3"/><rect class="cls-2" x="213" y="611" width="3" height="3"/><path class="cls-2" d="M216,614v3h-6v-6h3V593H195v3h-6v-6h3v-3h-6v9h-9v6h3v-3h6v6h-3v18h18v-3h6v6h-3v3h6v-9h9v-6Zm-9-9v12H195v3h-9v-9h3V599h12v-3h9v9Z"/><rect class="cls-2" x="130.25" y="611" width="3" height="3"/><rect class="cls-2" x="121.25" y="602" width="3" height="3"/><rect class="cls-2" x="133.25" y="614" width="3" height="3"/><rect class="cls-2" x="142.25" y="623" width="3" height="3"/><rect class="cls-2" x="142.25" y="599" width="3" height="3"/><rect class="cls-2" x="133.25" y="590" width="3" height="3"/><rect class="cls-2" x="145.25" y="602" width="3" height="3"/><rect class="cls-2" x="154.25" y="611" width="3" height="3"/><path class="cls-2" d="M157.25,614v3h-6v-6h3V593h-18v3h-6v-6h3v-3h-6v9h-9v6h3v-3h6v6h-3v18h18v-3h6v6h-3v3h6v-9h9v-6Zm-9-9v12h-12v3h-9v-9h3V599h12v-3h9v9Z"/><rect class="cls-2" x="71.5" y="611" width="3" height="3"/><rect class="cls-2" x="62.5" y="602" width="3" height="3"/><rect class="cls-2" x="74.5" y="614" width="3" height="3"/><rect class="cls-2" x="83.5" y="623" width="3" height="3"/><rect class="cls-2" x="83.5" y="599" width="3" height="3"/><rect class="cls-2" x="74.5" y="590" width="3" height="3"/><rect class="cls-2" x="86.5" y="602" width="3" height="3"/><rect class="cls-2" x="95.5" y="611" width="3" height="3"/><path class="cls-2" d="M98.5,614v3h-6v-6h3V593h-18v3h-6v-6h3v-3h-6v9h-9v6h3v-3h6v6h-3v18h18v-3h6v6h-3v3h6v-9h9v-6Zm-9-9v12h-12v3h-9v-9h3V599h12v-3h9v9Z"/><rect class="cls-2" x="6" y="611" width="3" height="3"/><rect class="cls-2" x="9" y="614" width="3" height="3"/><rect class="cls-2" x="18" y="623" width="3" height="3"/><rect class="cls-2" x="18" y="599" width="3" height="3"/><rect class="cls-2" x="9" y="590" width="3" height="3"/><rect class="cls-2" x="21" y="602" width="3" height="3"/><rect class="cls-2" x="30" y="611" width="3" height="3"/><path class="cls-2" d="M33,614v3H27v-6h3V593H12v3H6v-6H9v-3H3v9H0v3H3v6H0v18H18v-3h6v6H21v3h6v-9h9v-6Zm-9-9v12H12v3H3v-9H6V599H18v-3h9v9Z"/><rect class="cls-2" x="247.75" y="493.6" width="3" height="3"/><rect class="cls-2" x="238.75" y="484.6" width="3" height="3"/><rect class="cls-2" x="250.75" y="496.6" width="3" height="3"/><rect class="cls-2" x="259.75" y="505.6" width="3" height="3"/><rect class="cls-2" x="259.75" y="481.6" width="3" height="3"/><rect class="cls-2" x="250.75" y="472.6" width="3" height="3"/><rect class="cls-2" x="262.75" y="484.6" width="3" height="3"/><rect class="cls-2" x="271.75" y="493.6" width="3" height="3"/><path class="cls-2" d="M274.75,496.6v3h-6v-6h3v-18h-18v3h-6v-6h3v-3h-6v9h-9v6h3v-3h6v6h-3v18h18v-3h6v6h-3v3h6v-9h9v-6Zm-9-9v12h-12v3h-9v-9h3v-12h12v-3h9v9Z"/><rect class="cls-2" x="306.5" y="493.6" width="3" height="3"/><rect class="cls-2" x="297.5" y="484.6" width="3" height="3"/><rect class="cls-2" x="309.5" y="496.6" width="3" height="3"/><rect class="cls-2" x="318.5" y="505.6" width="3" height="3"/><rect class="cls-2" x="318.5" y="481.6" width="3" height="3"/><rect class="cls-2" x="309.5" y="472.6" width="3" height="3"/><rect class="cls-2" x="321.5" y="484.6" width="3" height="3"/><rect class="cls-2" x="330.5" y="493.6" width="3" height="3"/><path class="cls-2" d="M333.5,496.6v3h-6v-6h3v-18h-18v3h-6v-6h3v-3h-6v9h-9v6h3v-3h6v6h-3v18h18v-3h6v6h-3v3h6v-9h9v-6Zm-9-9v12h-12v3h-9v-9h3v-12h12v-3h9v9Z"/><polygon class="cls-2" points="357 484.6 357 487.6 360 487.6 360 481.6 360 484.6 357 484.6"/><polygon class="cls-2" points="354 478.6 354 481.6 354 484.6 357 484.6 357 481.6 360 481.6 360 478.6 357 478.6 354 478.6"/><rect class="cls-2" x="189" y="493.6" width="3" height="3"/><rect class="cls-2" x="180" y="484.6" width="3" height="3"/><rect class="cls-2" x="192" y="496.6" width="3" height="3"/><rect class="cls-2" x="201" y="505.6" width="3" height="3"/><rect class="cls-2" x="201" y="481.6" width="3" height="3"/><rect class="cls-2" x="192" y="472.6" width="3" height="3"/><rect class="cls-2" x="204" y="484.6" width="3" height="3"/><rect class="cls-2" x="213" y="493.6" width="3" height="3"/><path class="cls-2" d="M216,496.6v3h-6v-6h3v-18H195v3h-6v-6h3v-3h-6v9h-9v6h3v-3h6v6h-3v18h18v-3h6v6h-3v3h6v-9h9v-6Zm-9-9v12H195v3h-9v-9h3v-12h12v-3h9v9Z"/><rect class="cls-2" x="130.25" y="493.6" width="3" height="3"/><rect class="cls-2" x="121.25" y="484.6" width="3" height="3"/><rect class="cls-2" x="133.25" y="496.6" width="3" height="3"/><rect class="cls-2" x="142.25" y="505.6" width="3" height="3"/><rect class="cls-2" x="142.25" y="481.6" width="3" height="3"/><rect class="cls-2" x="133.25" y="472.6" width="3" height="3"/><rect class="cls-2" x="145.25" y="484.6" width="3" height="3"/><rect class="cls-2" x="154.25" y="493.6" width="3" height="3"/><path class="cls-2" d="M157.25,496.6v3h-6v-6h3v-18h-18v3h-6v-6h3v-3h-6v9h-9v6h3v-3h6v6h-3v18h18v-3h6v6h-3v3h6v-9h9v-6Zm-9-9v12h-12v3h-9v-9h3v-12h12v-3h9v9Z"/><rect class="cls-2" x="71.5" y="493.6" width="3" height="3"/><rect class="cls-2" x="62.5" y="484.6" width="3" height="3"/><rect class="cls-2" x="74.5" y="496.6" width="3" height="3"/><rect class="cls-2" x="83.5" y="505.6" width="3" height="3"/><rect class="cls-2" x="83.5" y="481.6" width="3" height="3"/><rect class="cls-2" x="74.5" y="472.6" width="3" height="3"/><rect class="cls-2" x="86.5" y="484.6" width="3" height="3"/><rect class="cls-2" x="95.5" y="493.6" width="3" height="3"/><path class="cls-2" d="M98.5,496.6v3h-6v-6h3v-18h-18v3h-6v-6h3v-3h-6v9h-9v6h3v-3h6v6h-3v18h18v-3h6v6h-3v3h6v-9h9v-6Zm-9-9v12h-12v3h-9v-9h3v-12h12v-3h9v9Z"/><rect class="cls-2" x="6" y="493.6" width="3" height="3"/><rect class="cls-2" x="9" y="496.6" width="3" height="3"/><rect class="cls-2" x="18" y="505.6" width="3" height="3"/><rect class="cls-2" x="18" y="481.6" width="3" height="3"/><rect class="cls-2" x="9" y="472.6" width="3" height="3"/><rect class="cls-2" x="21" y="484.6" width="3" height="3"/><rect class="cls-2" x="30" y="493.6" width="3" height="3"/><path class="cls-2" d="M33,496.6v3H27v-6h3v-18H12v3H6v-6H9v-3H3v9H0v3H3v6H0v18H18v-3h6v6H21v3h6v-9h9v-6Zm-9-9v12H12v3H3v-9H6v-12H18v-3h9v9Z"/></g></g></g></svg>
