<?xml version="1.0" encoding="utf-8"?>
<!-- Generator: Adobe Illustrator 22.1.0, SVG Export Plug-In . SVG Version: 6.00 Build 0)  -->
<svg version="1.1" id="Layer_1" xmlns="http://www.w3.org/2000/svg" xmlns:xlink="http://www.w3.org/1999/xlink" x="0px" y="0px"
	 viewBox="0 0 360 630" style="enable-background:new 0 0 360 630;" xml:space="preserve">
<style type="text/css">
	.st0{fill:#FFFFFF;fill-opacity:0.6;}
</style>
<path id="Fill-1" class="st0" d="M13,112v4h4v-4H13z M9,108v4h4v-4H9z M17,108v4h4v-4H17z M5,104v4h4v-4H5z M21,104v4h4v-4H21z
	 M1,100v4h4v-4H1z M25,100v4h4v-4H25z M73,92v-4h-4v4H41v-4h-4v4H0v8h1v-4h28v4h4v-4h44v-4H73z M53,76h-4v4h4V76z M53,72v-4h-4v4H53
	z M49,80h-4v4h4V80z M49,68v-4h-4v4H49z M45,84h-4v4h4V84z M45,60h-4v4h4V60z M41,84v4h4v-4H41z M65,84v4h4v-4H65z M45,80v4h4v-4H45
	z M61,80v4h4v-4H61z M49,76v4h4v-4H49z M57,76v4h4v-4H57z M53,72v4h4v-4H53z M49,68v4h4v-4H49z M57,68v4h4v-4H57z M45,64v4h4v-4H45z
	 M61,64v4h4v-4H61z M41,60v4h4v-4H41z M65,60v4h4v-4H65z M33,52v-4h-4v4H1v-4H0v8h37v4h4v-4h28v4h4v-4h4v-4H33z M1,44v4h4v-4H1z
	 M25,44v4h4v-4H25z M5,40v4h4v-4H5z M21,40v4h4v-4H21z M9,36v4h4v-4H9z M17,36v4h4v-4H17z M13,32v4h4v-4H13z"/>
<path id="Fill-1_1_" class="st0" d="M383,250v4h4v-4H383z M379,246v4h4v-4H379z M387,246v4h4v-4H387z M375,242v4h4v-4H375z M391,242
	v4h4v-4H391z M371,238v4h4v-4H371z M395,238v4h4v-4H395z M443,230v-4h-4v4h-28v-4h-4v4h-44v-4h-4v4h-28v-4h-4v4h-4v4h44v4h4v-4h28v4
	h4v-4h44v-4H443z M423,214h-4v4h4V214z M423,210v-4h-4v4H423z M419,218h-4v4h4V218z M419,206v-4h-4v4H419z M415,222h-4v4h4V222z
	 M415,198h-4v4h4V198z M355,222v4h4v-4H355z M359,198h-4v4h4V198z M351,218v4h4v-4H351z M355,202h-4v4h4V202z M347,214v4h4v-4H347z
	 M351,206h-4v4h4V206z M331,222v4h4v-4H331z M355,222v4h4v-4H355z M411,222v4h4v-4H411z M435,222v4h4v-4H435z M335,218v4h4v-4H335z
	 M351,218v4h4v-4H351z M415,218v4h4v-4H415z M431,218v4h4v-4H431z M339,214v4h4v-4H339z M347,214v4h4v-4H347z M419,214v4h4v-4H419z
	 M427,214v4h4v-4H427z M343,210v4h4v-4H343z M423,210v4h4v-4H423z M339,206v4h4v-4H339z M347,206v4h4v-4H347z M419,206v4h4v-4H419z
	 M427,206v4h4v-4H427z M335,202v4h4v-4H335z M351,202v4h4v-4H351z M415,202v4h4v-4H415z M431,202v4h4v-4H431z M331,198v4h4v-4H331z
	 M355,198v4h4v-4H355z M411,198v4h4v-4H411z M435,198v4h4v-4H435z M403,190v-4h-4v4h-28v-4h-4v4h-44v4h4v4h4v-4h28v4h4v-4h44v4h4v-4
	h28v4h4v-4h4v-4H403z M371,182v4h4v-4H371z M395,182v4h4v-4H395z M375,178v4h4v-4H375z M391,178v4h4v-4H391z M379,174v4h4v-4H379z
	 M387,174v4h4v-4H387z M383,170v4h4v-4H383z"/>
<path id="Fill-1_2_" class="st0" d="M351,38v4h4v-4H351z M347,34v4h4v-4H347z M355,34v4h4v-4H355z M343,30v4h4v-4H343z M359,30v4h4
	v-4H359z M339,26v4h4v-4H339z M363,26v4h4v-4H363z M411,18v-4h-4v4h-28v-4h-4v4h-44v-4h-4v4h-28v-4h-4v4h-4v4h44v4h4v-4h28v4h4v-4
	h44v-4H411z M299,10v4h4v-4H299z M323,10v4h4v-4H323z M379,10v4h4v-4H379z M403,10v4h4v-4H403z M303,6v4h4V6H303z M319,6v4h4V6H319z
	 M383,6v4h4V6H383z M399,6v4h4V6H399z M307,2v4h4V2H307z M315,2v4h4V2H315z M387,2v4h4V2H387z M395,2v4h4V2H395z M387,2v4h4V2H387z
	 M383,6v4h4V6H383z M379,10v4h4v-4H379z M323,10v4h4v-4H323z M319,6v4h4V6H319z M315,2v4h4V2H315z M311,0v2h4V0H311z M315,2v4h4V2
	H315z M319,6v4h4V6H319z M323,10v4h4v-4H323z M379,10v4h4v-4H379z M383,6v4h4V6H383z M387,2v4h4V2H387z M395,0v2h-4V0H395z"/>
<path id="Fill-1-Copy" class="st0" d="M30,345v4h4v-4H30z M34,349v4h4v-4H34z M26,349v4h4v-4H26z M38,353v4h4v-4H38z M22,353v4h4v-4
	H22z M42,357v4h4v-4H42z M18,357v4h4v-4H18z M50,365v-4h-4v4H18v-4h-4v4H0v4h6v4h4v-4h44v4h4v-4h28v4h4v-4h4v-4H50z M82,373v4h4v-4
	H82z M58,373v4h4v-4H58z M2,373v4h4v-4H2z M78,377v4h4v-4H78z M62,377v4h4v-4H62z M0,377v4h2v-4H0z M74,381v4h4v-4H74z M66,381v4h4
	v-4H66z M70,385v4h4v-4H70z M74,389v4h4v-4H74z M66,389v4h4v-4H66z M78,393v4h4v-4H78z M62,393v4h4v-4H62z M0,393v4h2v-4H0z M82,397
	v4h4v-4H82z M58,397v4h4v-4H58z M2,397v4h4v-4H2z M0,377v4h2v-4H0z M0,393v4h2v-4H0z M2,373v4h4v-4H2z M2,397v4h4v-4H2z M58,373v4h4
	v-4H58z M58,397v4h4v-4H58z M62,377v4h4v-4H62z M62,393v4h4v-4H62z M66,381v4h4v-4H66z M66,389v4h4v-4H66z M90,405v-4h-4v4H58v-4h-4
	v4H10v-4H6v4H0v4h14v4h4v-4h28v4h4v-4h44v-4H90z M66,389v4h4v-4H66z M66,381v4h4v-4H66z M62,393v4h4v-4H62z M62,377v4h4v-4H62z
	 M58,397v4h4v-4H58z M58,373v4h4v-4H58z M2,397v4h4v-4H2z M2,373v4h4v-4H2z M0,393v4h2v-4H0z M0,377v4h2v-4H0z M42,413v4h4v-4H42z
	 M18,413v4h4v-4H18z M38,417v4h4v-4H38z M22,417v4h4v-4H22z M34,421v4h4v-4H34z M26,421v4h4v-4H26z M30,425v4h4v-4H30z"/>
<path id="Fill-1-Copy-2" class="st0" d="M100,672v4h4v-4H100z M96,668v4h4v-4H96z M104,668v4h4v-4H104z M92,664v4h4v-4H92z M108,664
	v4h4v-4H108z M88,660v4h4v-4H88z M112,660v4h4v-4H112z M160,652v-4h-4v4h-28v-4h-4v4H80v-4h-4v4H48v-4h-4v4h-4v4h44v4h4v-4h28v4h4
	v-4h44v-4H160z M140,636h-4v4h4V636z M140,632v-4h-4v4H140z M136,640h-4v4h4V640z M136,628v-4h-4v4H136z M132,644h-4v4h4V644z
	 M132,620h-4v4h4V620z M72,644v4h4v-4H72z M76,620h-4v4h4V620z M68,640v4h4v-4H68z M72,624h-4v4h4V624z M64,636v4h4v-4H64z M68,628
	h-4v4h4V628z M48,644v4h4v-4H48z M72,644v4h4v-4H72z M128,644v4h4v-4H128z M152,644v4h4v-4H152z M52,640v4h4v-4H52z M68,640v4h4v-4
	H68z M132,640v4h4v-4H132z M148,640v4h4v-4H148z M56,636v4h4v-4H56z M64,636v4h4v-4H64z M136,636v4h4v-4H136z M144,636v4h4v-4H144z
	 M60,632v4h4v-4H60z M140,632v4h4v-4H140z M56,628v4h4v-4H56z M64,628v4h4v-4H64z M136,628v4h4v-4H136z M144,628v4h4v-4H144z
	 M52,624v4h4v-4H52z M68,624v4h4v-4H68z M132,624v4h4v-4H132z M148,624v4h4v-4H148z M48,620v4h4v-4H48z M72,620v4h4v-4H72z M128,620
	v4h4v-4H128z M152,620v4h4v-4H152z M120,612v-4h-4v4H88v-4h-4v4H40v4h4v4h4v-4h28v4h4v-4h44v4h4v-4h28v4h4v-4h4v-4H120z M88,604v4h4
	v-4H88z M112,604v4h4v-4H112z M92,600v4h4v-4H92z M108,600v4h4v-4H108z M96,596v4h4v-4H96z M104,596v4h4v-4H104z M100,592v4h4v-4
	H100z"/>
<path id="Fill-1-Copy-2_1_" class="st0" d="M278,543v4h4v-4H278z M274,539v4h4v-4H274z M282,539v4h4v-4H282z M270,535v4h4v-4H270z
	 M286,535v4h4v-4H286z M266,531v4h4v-4H266z M290,531v4h4v-4H290z M338,523v-4h-4v4h-28v-4h-4v4h-44v-4h-4v4h-28v-4h-4v4h-4v4h44v4
	h4v-4h28v4h4v-4h44v-4H338z M318,507h-4v4h4V507z M318,503v-4h-4v4H318z M314,511h-4v4h4V511z M314,499v-4h-4v4H314z M310,515h-4v4
	h4V515z M310,491h-4v4h4V491z M250,515v4h4v-4H250z M254,491h-4v4h4V491z M246,511v4h4v-4H246z M250,495h-4v4h4V495z M242,507v4h4
	v-4H242z M246,499h-4v4h4V499z M226,515v4h4v-4H226z M250,515v4h4v-4H250z M306,515v4h4v-4H306z M330,515v4h4v-4H330z M230,511v4h4
	v-4H230z M246,511v4h4v-4H246z M310,511v4h4v-4H310z M326,511v4h4v-4H326z M234,507v4h4v-4H234z M242,507v4h4v-4H242z M314,507v4h4
	v-4H314z M322,507v4h4v-4H322z M238,503v4h4v-4H238z M318,503v4h4v-4H318z M234,499v4h4v-4H234z M242,499v4h4v-4H242z M314,499v4h4
	v-4H314z M322,499v4h4v-4H322z M230,495v4h4v-4H230z M246,495v4h4v-4H246z M310,495v4h4v-4H310z M326,495v4h4v-4H326z M226,491v4h4
	v-4H226z M250,491v4h4v-4H250z M306,491v4h4v-4H306z M330,491v4h4v-4H330z M298,483v-4h-4v4h-28v-4h-4v4h-44v4h4v4h4v-4h28v4h4v-4
	h44v4h4v-4h28v4h4v-4h4v-4H298z M266,475v4h4v-4H266z M290,475v4h4v-4H290z M270,471v4h4v-4H270z M286,471v4h4v-4H286z M274,467v4h4
	v-4H274z M282,467v4h4v-4H282z M278,463v4h4v-4H278z"/>
</svg>
