<?xml version="1.0" encoding="utf-8"?>
<!-- Generator: Adobe Illustrator 22.1.0, SVG Export Plug-In . SVG Version: 6.00 Build 0)  -->
<svg version="1.1" id="Layer_1" xmlns="http://www.w3.org/2000/svg" xmlns:xlink="http://www.w3.org/1999/xlink" x="0px" y="0px"
	 viewBox="0 0 92 16" style="enable-background:new 0 0 92 16;" xml:space="preserve">
<style type="text/css">
	.st0{fill:#FFFFFF;}
</style>
<g>
	<path class="st0" d="M6,10.9H2.2V0.6H6V10.9z M6,15.6H2.2v-4.1H6V15.6z"/>
	<path class="st0" d="M24.1,0.6v15h-3.8V4.4H9.1V0.6H24.1z M9.1,7.5h3.8v8.1H9.1V7.5z"/>
	<path class="st0" d="M30.7,8.1H27V0.6h3.8V8.1z"/>
	<path class="st0" d="M47.4,10h-3.2l4.7,5.6H33.5v-3.8h7.4l-7.8-9.1L36,0.4l1.2,1.4l6.4,7.5V0.6h3.8V10z"/>
	<path class="st0" d="M65.6,15.6h-15v-15h3.8v11.2h7.5V4.4h-0.6l-0.4,0.9l-0.4,0.9l-3.5-1.4l1.7-4.2h6.9V15.6z"/>
	<path class="st0" d="M73.1,15.6h-3.8v-15h3.8V15.6z"/>
	<path class="st0" d="M89.8,0.6v15H86V4.4H76V0.6H89.8z"/>
</g>
</svg>
