<?xml version="1.0" encoding="utf-8"?>
<!-- Generator: Adobe Illustrator 22.1.0, SVG Export Plug-In . SVG Version: 6.00 Build 0)  -->
<svg version="1.1" id="Layer_1" xmlns="http://www.w3.org/2000/svg" xmlns:xlink="http://www.w3.org/1999/xlink" x="0px" y="0px"
	 viewBox="0 0 333 25" style="enable-background:new 0 0 333 25;" xml:space="preserve">
<style type="text/css">
	.st0{enable-background:new    ;}
	.st1{fill:#0033B8;}
</style>
<g>
	<g class="st0">
		<path class="st1" d="M175.6,20.5h-4.1V4.3h4.1V20.5z"/>
		<path class="st1" d="M179.2,14.2l3.5-3.6l-4-4l2.9-2.9l7.7,7.7l2-2V4.3h4v6.9l-3.2,3.2l3.6,3.6l-2.9,2.9l-7.3-7.3l-2.4,2.4v4.5h-4
			V14.2z"/>
		<path class="st1" d="M207.6,4.3h16.2v16.2h-4.1V8.3h-8.1v12.2h-4V4.3z"/>
		<path class="st1" d="M231.9,20.5h-4V4.3h4V20.5z"/>
		<path class="st1" d="M240,20.5h-4V4.3h4V20.5z"/>
		<path class="st1" d="M258,4.3v16.2h-4V8.3h-10.8v-4H258z"/>
		<path class="st1" d="M274.7,20.5h-4.1V4.3h4.1V20.5z"/>
		<path class="st1" d="M293.6,14.4h-3.4l5,6.1h-16.6v-4h8l-8.4-9.9l3.1-2.6l1.3,1.6l6.9,8.1V4.3h4V14.4z"/>
		<path class="st1" d="M297.1,4.3h16.2v16.2h-4.1V8.3h-8.1v12.2h-4V4.3z"/>
		<path class="st1" d="M320.7,4.3h10.8v11l-6.1,6.1l-2.9-2.9l4.9-4.9V8.3h-10.8V1.6h4V4.3z"/>
	</g>
	<g class="st0">
		<path class="st1" d="M17.7,4.3v11l-6.1,6.1l-2.9-2.9l4.9-4.9V8.3H1.5v-4H17.7z M5.5,24.5h-4V11.7h4V24.5z"/>
		<path class="st1" d="M21.3,4.3h16.2v16.2h-4.1V8.3h-8.1v12.2h-4.1V4.3z"/>
		<path class="st1" d="M53.2,16.4l1.1,0l2.9-2.9V4.3h4.1v11l-5.2,5.2H41.6V4.3h4.1v12.2h3.5V4.3h4V16.4z"/>
		<path class="st1" d="M68.2,4.3H79v11l-6.1,6.1L70,18.4l4.9-4.9V8.3H64.1V1.6h4V4.3z"/>
		<path class="st1" d="M94.3,12.4h-4V4.3h4V12.4z"/>
		<path class="st1" d="M105.9,8.3h-9.4v-4h16.2v4h-2.7v12.2h-4.1V8.3z"/>
		<path class="st1" d="M131,4.3v11l-5.2,5.2h-11v-4h9.3l2.9-2.9V8.3h-12.1v-4H131z"/>
	</g>
	<g>
		<rect x="141.1" y="8.5" class="st1" width="4" height="4"/>
		<polygon class="st1" points="153.1,4.5 153.1,0.5 149.1,0.5 149.1,4.5 145.1,4.5 145.1,8.5 149.1,8.5 149.1,20.5 153.1,20.5 
			153.1,8.5 157.1,8.5 157.1,4.5 		"/>
		<rect x="157.1" y="8.5" class="st1" width="4" height="4"/>
	</g>
</g>
</svg>
