<?xml version="1.0" encoding="utf-8"?>
<!-- Generator: Adobe Illustrator 22.1.0, SVG Export Plug-In . SVG Version: 6.00 Build 0)  -->
<svg version="1.1" id="Layer_1" xmlns="http://www.w3.org/2000/svg" xmlns:xlink="http://www.w3.org/1999/xlink" x="0px" y="0px"
	 viewBox="0 0 237 18" style="enable-background:new 0 0 237 18;" xml:space="preserve">
<style type="text/css">
	.st0{fill:#0033B8;}
</style>
<g>
	<path class="st0" d="M0.3,18h18V0h-18C0.3,0,0.3,18,0.3,18z M4.8,4.5h9v9h-9V4.5z"/>
	<rect x="21.8" class="st0" width="4.5" height="9"/>
	<rect x="28.7" class="st0" width="4.5" height="9"/>
	<polygon class="st0" points="53.9,10.3 50.7,13.5 49.5,13.5 49.5,0 45,0 45,13.5 41.1,13.5 41.1,0 36.6,0 36.6,18 52.6,18 
		58.4,12.2 58.4,0 53.9,0 	"/>
	<polygon class="st0" points="61.4,4.5 62.9,4.5 62.9,9 67.4,9 67.4,4.5 74.9,4.5 74.9,13.5 61.4,13.5 61.4,18 79.4,18 79.4,0 
		61.4,0 	"/>
	<rect x="83.9" class="st0" width="4.5" height="18"/>
	<polygon class="st0" points="92.9,18 97.4,18 97.4,4.5 106.4,4.5 106.4,18 110.9,18 110.9,0 92.9,0 	"/>
	<polygon class="st0" points="114.7,4.5 128.2,4.5 128.2,18 132.7,18 132.7,0 114.7,0 	"/>
	<rect x="114.7" y="8.2" class="st0" width="4.5" height="9.8"/>
	<path class="st0" d="M146.7,18h18V0h-18V18z M151.2,4.5h9v9h-9V4.5z"/>
	<rect x="168.1" class="st0" width="4.5" height="9"/>
	<polygon class="st0" points="176.5,4.5 179.5,4.5 179.5,13.5 175,13.5 175,18 184,18 184,0 176.5,0 	"/>
	<rect x="188.5" class="st0" width="4.5" height="18"/>
	<polygon class="st0" points="213,0 196.5,0 196.5,4.5 208.5,4.5 208.5,13.5 196.5,13.5 196.5,18 216,18 216,13.5 213,13.5 	"/>
	<polygon class="st0" points="218.7,0 218.7,4.5 232.2,4.5 232.2,18 236.7,18 236.7,0 	"/>
	<rect x="218.7" y="8.2" class="st0" width="4.5" height="9.8"/>
</g>
</svg>
