<?xml version="1.0" encoding="utf-8"?>
<!-- Generator: Adobe Illustrator 22.1.0, SVG Export Plug-In . SVG Version: 6.00 Build 0)  -->
<svg version="1.1" id="Layer_1" xmlns="http://www.w3.org/2000/svg" xmlns:xlink="http://www.w3.org/1999/xlink" x="0px" y="0px"
	 viewBox="0 0 315 19" style="enable-background:new 0 0 315 19;" xml:space="preserve">
<style type="text/css">
	.st0{fill:#FFFFFF;}
</style>
<g>
	<path class="st0" d="M3.8,10.4H0V2.6h3.8V10.4z"/>
	<path class="st0" d="M15.8,14.3V6.5h-10V2.6h13.8v11.7H22v3.9H5.8v-3.9H15.8z"/>
	<path class="st0" d="M27.8,10.4H24V2.6h3.8V10.4z"/>
	<path class="st0" d="M39.8,14.3V6.5h-10V2.6h13.8v11.7H46v3.9H29.8v-3.9H39.8z"/>
	<path class="st0" d="M58.5,14.3V2.6h13.8v15.6h-3.8V6.5h-6.2v11.7H56v-3.9H58.5z"/>
	<path class="st0" d="M75.6,12.2l3.3-3.4l-3.7-3.8l2.6-2.8l7.1,7.4l1.9-2v-5h3.8v6.7l-3,3.1l3.4,3.5l-2.6,2.8l-6.8-7.1l-2.2,2.3v4.4
		h-3.8V12.2z"/>
	<path class="st0" d="M114.8,2.6v15.6H111V6.5h-10V2.6H114.8z"/>
	<path class="st0" d="M132.2,12.3h-3.2l4.7,5.8h-15.4v-3.9h7.4L118,4.8l2.9-2.5l1.2,1.5l6.4,7.8v-9h3.8V12.3z"/>
	<path class="st0" d="M139.2,18.2h-3.8V2.6h3.8V18.2z"/>
	<path class="st0" d="M148.4,14.3h2.3l2.7-2.8V2.6h3.8v10.6l-4.9,5h-10.1v-3.9h2.5V2.6h3.8V14.3z"/>
	<path class="st0" d="M168,12.2l3.3-3.4l-3.7-3.8l2.6-2.8l7.1,7.4l1.9-2v-5h3.8v6.7l-3,3.1l3.4,3.5l-2.6,2.8l-6.8-7.1l-2.2,2.3v4.4
		H168V12.2z"/>
	<path class="st0" d="M189.5,2.6h10v10.6l-5.6,5.8l-2.7-2.8l4.5-4.7v-5h-10V0h3.8V2.6z"/>
	<path class="st0" d="M223.7,2.6v15.6H220V6.5h-10V2.6H223.7z"/>
	<path class="st0" d="M236.6,14.3V6.5h-10V2.6h13.8v11.7h2.5v3.9h-16.2v-3.9H236.6z"/>
	<path class="st0" d="M253.6,6.5h-8.8V2.6h15v3.9h-2.5v11.7h-3.8V6.5z"/>
	<path class="st0" d="M285.6,2.6v15.6h-15V2.6H285.6z M281.9,6.5h-7.5v7.8h7.5V6.5z"/>
	<path class="st0" d="M293.1,18.2h-3.8V2.6h3.8V18.2z"/>
	<path class="st0" d="M307.6,14.3l1,0l2.7-2.8V2.6h3.8v10.6l-4.8,5h-13.3V2.6h3.8v11.7h3.2V2.6h3.8V14.3z"/>
</g>
</svg>
