<?xml version="1.0" encoding="utf-8"?>
<!-- Generator: Adobe Illustrator 22.1.0, SVG Export Plug-In . SVG Version: 6.00 Build 0)  -->
<svg version="1.1" id="Layer_1" xmlns="http://www.w3.org/2000/svg" x="0px" y="0px"
     viewBox="0 0 250 22" style="enable-background:new 0 0 250 22;" xml:space="preserve">
<style type="text/css">
	.st0{enable-background:new    ;}
	.st1{fill:#FFFFFF;}
</style>
<g class="st0">
	<path class="st1" d="M4.7,3h12v12.2l-6.8,6.8l-3.2-3.2l5.4-5.4V7.5h-12V0h4.5V3z"/>
	<path class="st1" d="M24.1,12h-4.5V3h4.5V12z"/>
	<path class="st1" d="M27.6,3h18v18h-4.5V7.5h-9V21h-4.5V3z"/>
	<path class="st1" d="M52.1,16.5V3h16.5v18h-4.5V7.5h-7.5V21h-7.5v-4.5H52.1z"/>
	<path class="st1" d="M90.3,3v18h-4.5V7.5H72.3V3H90.3z M72.3,11.2h4.5V21h-4.5V11.2z"/>
	<path class="st1" d="M98.6,3h12v12.2l-6.8,6.8l-3.2-3.2l5.4-5.4V7.5h-12V0h4.5V3z"/>
	<path class="st1" d="M127.6,12h-4.5V3h4.5V12z"/>
	<path class="st1" d="M140.5,7.5H130V3h18v4.5h-3V21h-4.5V7.5z"/>
	<path class="st1" d="M168.4,3v12.2l-5.8,5.8h-12.2v-4.5h10.3l3.2-3.2V7.5h-13.5V3H168.4z"/>
	<path class="st1" d="M186.4,21h-4.5V3h4.5V21z"/>
	<path class="st1" d="M207.4,14.2h-3.8l5.6,6.8h-18.5v-4.5h8.9l-9.3-11l3.5-2.9l1.4,1.7l7.7,9V3h4.5V14.2z"/>
	<path class="st1" d="M211.3,3h18v18h-4.5V7.5h-9V21h-4.5V3z"/>
	<path class="st1" d="M237.6,3h12v12.2l-6.8,6.8l-3.2-3.2l5.4-5.4V7.5h-12V0h4.5V3z"/>
</g>
</svg>
