<?xml version="1.0" encoding="utf-8"?>
<!-- Generator: Adobe Illustrator 22.1.0, SVG Export Plug-In . SVG Version: 6.00 Build 0)  -->
<svg version="1.1" id="Layer_1" xmlns="http://www.w3.org/2000/svg" xmlns:xlink="http://www.w3.org/1999/xlink" x="0px" y="0px"
	 viewBox="0 0 221.5 28" style="enable-background:new 0 0 221.5 28;" xml:space="preserve">
<style type="text/css">
	.st0{fill:#0033B8;}
</style>
<g>
	<polygon class="st0" points="218.2,20.5 218.2,7.5 218.2,1 211.7,1 193.6,1 193.6,7.5 211.7,7.5 211.7,20.5 193.6,20.5 193.6,27 
		211.7,27 218.2,27 221.5,27 221.5,20.5 	"/>
	<polygon class="st0" points="188.6,0.9 182.1,0.9 182.1,1 170.6,1 170.6,0.9 164.1,0.9 164.1,1 164,1 164,7.5 164.1,7.5 
		164.1,27.1 170.6,27.1 170.6,7.5 182.1,7.5 182.1,27.1 188.6,27.1 188.6,7.5 188.7,7.5 188.7,1 188.6,1 	"/>
	<polygon class="st0" points="159.1,0.9 152.6,0.9 152.6,1 134.5,1 134.5,7.5 152.6,7.5 152.6,27.1 159.1,27.1 159.1,7.5 159.1,7.5 
		159.1,1 159.1,1 	"/>
	<g>
		<polygon class="st0" points="69.1,0.8 62.6,0.8 51,0.8 44.5,0.8 44.4,1 44.4,7.5 44.5,27.2 51,27.2 51,7.5 62.6,7.5 62.6,20.5 
			59.2,20.5 59.2,27.2 62.6,27.2 69.1,27.2 69.1,27 69.1,20.5 69.1,1 		"/>
		<polygon class="st0" points="27.9,0.8 21.4,0.8 21.4,1 9.8,1 9.8,0.8 3.3,0.8 3.3,1 3.3,1 3.3,7.5 3.3,7.5 3.3,20.5 0,20.5 0,27 
			3.3,27 3.3,27.2 9.8,27.2 9.8,27 9.9,27 9.9,20.5 9.8,20.5 9.8,7.5 21.4,7.5 21.4,27.2 27.9,27.2 27.9,7.5 28,7.5 28,1 27.9,1 		
			"/>
		<polygon class="st0" points="92.2,1 74,1 74,7.5 92.2,7.5 92.2,27.2 98.7,27.2 98.7,7.5 102,7.5 102,1 98.7,1 		"/>
		<rect x="32.9" y="0.8" class="st0" width="6.5" height="26.3"/>
	</g>
	<rect x="123" y="0.9" class="st0" width="6.5" height="26.3"/>
</g>
</svg>
