<svg xmlns="http://www.w3.org/2000/svg" viewBox="0 0 32 32"><defs><style>.cls-1{fill:#2fddfc;}.cls-2{fill:#ebdedc;}.cls-3{fill:#ccc1bf;}.cls-4{fill:#00388b;}.cls-5{fill:#fff;}.cls-6{fill:#ffd3af;}.cls-7{fill:#05224d;}.cls-8{fill:#00aeef;}.cls-9{fill:#3cb0ec;}</style></defs><title>favicon</title><g id="Layer_2" data-name="Layer 2"><g id="Layer_6" data-name="Layer 6"><rect class="cls-1" width="32" height="32"/><rect class="cls-2" y="20.71" width="32" height="11.29"/><rect class="cls-3" x="2.75" y="23.95" width="6.24" height="1.74"/><rect class="cls-3" x="10.74" y="28.69" width="6.24" height="1.74"/><rect class="cls-3" x="19.8" y="22.1" width="6.24" height="1.74"/><rect class="cls-3" x="24.61" y="27.82" width="6.24" height="1.74"/><path class="cls-4" d="M26.77,10.9v.48h-1v.48h-1v.48h-.48v.48h-1v-.48h-.48v-1h-.48v-1H22v-1h-.49V9H21V8h-.48v-1H20v-1h-.48v-1h-.48V4.66H18.6v-1h-.48V3.22h.48V2.74h1V2.26h1V1.78H21V1.3h1v1h.48v1h.48V3.7h.48v1h.48v1h.48V6.1h.48v1h.48v.48h.48v1h.48v1h.48v1h.48v.48Z"/><path class="cls-5" d="M26.77,12.34v.48h-1v.49h-.48v.48h-1v-.48h-.48v-.49h.48v-.48h.48v-.48h1v-.48h1V10.9h.48v.48h.48v1Z"/><path class="cls-6" d="M27.25,13.31v.48h-1v.48H24.85v-.48h.48v-.48h.48v-.49h1v-.48h1v1Z"/><path class="cls-7" d="M20,3.7h3.37v8.64H20Z"/><path class="cls-4" d="M9.48,1.3H22.93V19.07H9.48Z"/><path class="cls-7" d="M17.64,1.3h.48V17.15h-.48Z"/><path class="cls-4" d="M11.4,16.19h2.88v6.24H11.4Z"/><path class="cls-4" d="M18.6,19.07h2.88v6.24H18.6Z"/><path class="cls-7" d="M9.48,16.67H22.93v.48H9.48Z"/><path class="cls-8" d="M16.2,3.7h3.36v.48H16.2Z"/><path class="cls-5" d="M15.72,3.22H20V3.7H15.72Z"/><path class="cls-9" d="M16.68,3.22h2.4V4.66h-2.4Z"/><path class="cls-5" d="M15.24,2.74h5.28v.48H15.24Z"/><path class="cls-5" d="M14.76,2.26H21v.48H14.76Z"/><path class="cls-5" d="M14.28,1.78h7.2v.48h-7.2Z"/><path class="cls-5" d="M13.8,1.3H22v.48H13.8Z"/><path class="cls-9" d="M17.16,1.3H18.6v1H17.16Z"/><path class="cls-9" d="M17.64,2.26h.48v.48h-.48Z"/><path class="cls-9" d="M17.16,2.74H18.6v2.4H17.16Z"/><path class="cls-8" d="M16.68,1.3h2.4v.48h-2.4Z"/><path class="cls-7" d="M12.36,4.18v1h-.48v.48H11.4v1h-.48v1h-.48v1H10v1H6.59v-1h.49V8H8.52V7.54H9V7.06H8.52V6.58H9V6.1H8.52V5.62H9V3.7h3.84v.48Z"/><path class="cls-4" d="M11.88,4.18v1H11.4v.48h-.48v1h-.48v1H10v1H9.48v1H9v.48H8.52v1H8v1H7.56v1H7.08v.49h-1v-.49H5.63v-.48h-1v-.48h-1v-.48H3.23V10.9h.48v-1h.48V9h.48V8h.48V7.54h.48v-1h.48V6.1h.48v-1h.49v-1h.48V3.7H8v-1h.48v-1h1v.48H10v.48h1v.48h1V3.7h.48v.48Z"/><path class="cls-5" d="M6.11,13.79v.48h-1v-.48H4.67v-.48h-1v-.49h-1v-1h.48v-.48h.48v.48h1v.48h1v.48h.48v.49h.48v.48Z"/><path class="cls-6" d="M4.19,14.75v-.48h-1v-.48H2.75v-1h1v.49h1v.48h.48v.48h.48v.48Z"/><rect class="cls-6" x="9.96" width="12.49" height="1.3"/></g></g></svg>