<svg xmlns="http://www.w3.org/2000/svg" viewBox="0 0 192 192"><defs><style>.cls-1{fill:#2fddfc;}.cls-2{fill:#ebdedc;}.cls-3{fill:#ccc1bf;}.cls-4{fill:#00388b;}.cls-5{fill:#fff;}.cls-6{fill:#ffd3af;}.cls-7{fill:#05224d;}.cls-8{fill:#00aeef;}.cls-9{fill:#3cb0ec;}</style></defs><title>icon-192</title><g id="Layer_2" data-name="Layer 2"><g id="Layer_6" data-name="Layer 6"><rect class="cls-1" width="192" height="192"/><rect class="cls-2" y="124.29" width="192" height="67.71"/><rect class="cls-3" x="16.51" y="143.69" width="37.47" height="10.45"/><rect class="cls-3" x="64.42" y="172.13" width="37.47" height="10.45"/><rect class="cls-3" x="118.82" y="132.59" width="37.47" height="10.45"/><rect class="cls-3" x="147.64" y="166.9" width="37.47" height="10.45"/><path class="cls-4" d="M160.61,65.42V68.3h-5.76v2.89h-5.77v2.88H146.2V77h-5.76V74.07h-2.88V68.3h-2.89V62.54h-2.88V56.78h-2.88V53.89H126V48.13h-2.88V42.37h-2.89V36.6h-2.88V30.84H114.5V28h-2.88V22.19h-2.88V19.31h2.88V16.43h5.76V13.55h5.77V10.66H126V7.78h5.76v5.77h2.88v5.76h2.89v2.88h2.88V28h2.88v5.76h2.88V36.6h2.88v5.77H152v2.88h2.88V51h2.88v5.77h2.88v5.76h2.88v2.88Z"/><path class="cls-5" d="M160.61,74.07V77h-5.76v2.88H152v2.88H146.2V79.83h-2.88V77h2.88V74.07h2.88V71.19h5.77V68.3h5.76V65.42h2.88V68.3h2.88v5.77Z"/><path class="cls-6" d="M163.49,79.83v2.88h-5.76v2.88h-8.65V82.71H152V79.83h2.88V77h5.76V74.07h5.76v5.76Z"/><path class="cls-7" d="M120.26,22.19h20.18V74.07H120.26Z"/><path class="cls-4" d="M56.86,7.78h80.7V114.41H56.86Z"/><path class="cls-7" d="M105.85,7.78h2.89v95.11h-2.89Z"/><path class="cls-4" d="M68.39,97.12H85.68v37.47H68.39Z"/><path class="cls-4" d="M111.62,114.41h17.29v37.47H111.62Z"/><path class="cls-7" d="M56.86,100h80.7v2.89H56.86Z"/><path class="cls-8" d="M97.21,22.19h20.17v2.88H97.21Z"/><path class="cls-5" d="M94.33,19.31h25.93v2.88H94.33Z"/><path class="cls-9" d="M100.09,19.31H114.5V28H100.09Z"/><path class="cls-5" d="M91.44,16.43h31.71v2.88H91.44Z"/><path class="cls-5" d="M88.56,13.55H126v2.88H88.56Z"/><path class="cls-5" d="M85.68,10.66h43.23v2.89H85.68Z"/><path class="cls-5" d="M82.8,7.78h49v2.88h-49Z"/><path class="cls-9" d="M103,7.78h8.65v5.77H103Z"/><path class="cls-9" d="M105.85,13.55h2.89v2.88h-2.89Z"/><path class="cls-9" d="M103,16.43h8.65V30.84H103Z"/><path class="cls-8" d="M100.09,7.78H114.5v2.88H100.09Z"/><path class="cls-7" d="M74.15,25.07v5.77H71.27v2.88H68.39v5.76H65.51v5.77H62.62V51H59.74v5.77H39.57V51h2.88V48.13H51.1V45.25H54V42.37H51.1V39.48H54V36.6H51.1V33.72H54V22.19H77v2.88Z"/><path class="cls-4" d="M71.27,25.07v5.77H68.39v2.88H65.51v5.76H62.62v5.77H59.74V51H56.86v5.77H54v2.88H51.1v5.76H48.22v5.77H45.33V77H42.45v2.88H36.69V77H33.81V74.07H28V71.19H22.28V68.3H19.4V65.42h2.88V59.66h2.88V53.89H28V48.13h2.88V45.25h2.89V39.48h2.88V36.6h2.88V30.84h2.88V25.07h2.88V22.19h2.89V16.43H51.1V10.66h5.76v2.89h2.88v2.88h5.77v2.88h5.76v2.88h2.88v2.88Z"/><path class="cls-5" d="M36.69,82.71v2.88H30.92V82.71H28V79.83H22.28V77H16.51V71.19H19.4V68.3h2.88v2.89H28v2.88h5.77V77h2.88v2.88h2.88v2.88Z"/><path class="cls-6" d="M25.16,88.48V85.59H19.4V82.71H16.51V77h5.77v2.88H28v2.88h2.88v2.88h2.89v2.89Z"/><rect class="cls-6" x="59.74" width="74.93" height="7.78"/></g></g></svg>