<svg xmlns="http://www.w3.org/2000/svg" viewBox="0 0 512 512"><defs><style>.cls-1{fill:#2fddfc;}.cls-2{fill:#ebdedc;}.cls-3{fill:#ccc1bf;}.cls-4{fill:#00388b;}.cls-5{fill:#fff;}.cls-6{fill:#ffd3af;}.cls-7{fill:#05224d;}.cls-8{fill:#00aeef;}.cls-9{fill:#3cb0ec;}</style></defs><title>icon-512</title><g id="Layer_2" data-name="Layer 2"><g id="Layer_6" data-name="Layer 6"><rect class="cls-1" width="512" height="512"/><rect class="cls-2" y="331.44" width="512" height="180.56"/><rect class="cls-3" x="44.04" y="383.19" width="99.91" height="27.87"/><rect class="cls-3" x="171.79" y="459" width="99.91" height="27.87"/><rect class="cls-3" x="316.86" y="353.57" width="99.91" height="27.87"/><rect class="cls-3" x="393.71" y="445.07" width="99.91" height="27.87"/><path class="cls-4" d="M428.3,174.46v7.68H412.93v7.69H397.56v7.68h-7.69v7.69H374.5v-7.69h-7.69V182.14h-7.68V166.77h-7.69V151.4h-7.68v-7.68h-7.69V128.35h-7.68V113H320.7V97.6H313V82.23h-7.69V74.55h-7.68V59.18H290V51.49h7.69V43.81H313V36.12h15.37V28.44h7.68V20.75h15.37V36.12h7.69V51.49h7.68v7.69h7.69V74.55h7.68V89.92h7.69V97.6h7.69V113h7.68v7.68h7.69V136h7.68V151.4h7.69v15.37H436v7.69Z"/><path class="cls-5" d="M428.3,197.51v7.69H412.93v7.68h-7.69v7.69H389.87v-7.69h-7.69V205.2h7.69v-7.69h7.69v-7.68h15.37v-7.69H428.3v-7.68H436v7.68h7.69v15.37Z"/><path class="cls-6" d="M436,212.88v7.69H420.61v7.68H397.56v-7.68h7.68v-7.69h7.69V205.2H428.3v-7.69h15.37v15.37Z"/><path class="cls-7" d="M320.7,59.18h53.8V197.51H320.7Z"/><path class="cls-4" d="M151.63,20.75H366.81V305.1H151.63Z"/><path class="cls-7" d="M282.28,20.75H290V274.36h-7.68Z"/><path class="cls-4" d="M182.37,259h46.11V358.9H182.37Z"/><path class="cls-4" d="M297.65,305.1h46.11V405H297.65Z"/><path class="cls-7" d="M151.63,266.68H366.81v7.68H151.63Z"/><path class="cls-8" d="M259.22,59.18H313v7.68h-53.8Z"/><path class="cls-5" d="M251.54,51.49H320.7v7.69H251.54Z"/><path class="cls-9" d="M266.91,51.49h38.42V74.55H266.91Z"/><path class="cls-5" d="M243.85,43.81h84.54v7.68H243.85Z"/><path class="cls-5" d="M236.17,36.12h99.9v7.69h-99.9Z"/><path class="cls-5" d="M228.48,28.44H343.76v7.68H228.48Z"/><path class="cls-5" d="M220.8,20.75H351.44v7.69H220.8Z"/><path class="cls-9" d="M274.59,20.75h23.06V36.12H274.59Z"/><path class="cls-9" d="M282.28,36.12H290v7.69h-7.68Z"/><path class="cls-9" d="M274.59,43.81h23.06V82.23H274.59Z"/><path class="cls-8" d="M266.91,20.75h38.42v7.69H266.91Z"/><path class="cls-7" d="M197.74,66.86V82.23h-7.68v7.69h-7.69v15.37h-7.69v15.37H167V136h-7.69V151.4H105.52V136h7.68v-7.68h23.06v-7.69h7.68V113h-7.68v-7.69h7.68V97.6h-7.68V89.92h7.68V59.18h61.49v7.68Z"/><path class="cls-4" d="M190.06,66.86V82.23h-7.69v7.69h-7.69v15.37H167v15.37h-7.69V136h-7.68V151.4h-7.69v7.69h-7.68v15.37h-7.69v15.37h-7.68V205.2H113.2v7.68H97.83V205.2H90.15v-7.69H74.78v-7.68H59.41v-7.69H51.72v-7.68h7.69V159.09h7.68V143.72h7.69V128.35h7.68v-7.69h7.69V105.29h7.68V97.6h7.69V82.23h7.68V66.86h7.69V59.18h7.68V43.81h7.69V28.44h15.37v7.68h7.68v7.69h15.37v7.68h15.38v7.69h7.68v7.68Z"/><path class="cls-5" d="M97.83,220.57v7.68H82.46v-7.68H74.78v-7.69H59.41V205.2H44V189.83h7.68v-7.69h7.69v7.69H74.78v7.68H90.15v7.69h7.68v7.68h7.69v7.69Z"/><path class="cls-6" d="M67.09,235.94v-7.69H51.72v-7.68H44V205.2H59.41v7.68H74.78v7.69h7.68v7.68h7.69v7.69Z"/><rect class="cls-6" x="159.31" width="199.81" height="20.75"/></g></g></svg>