<svg xmlns="http://www.w3.org/2000/svg" viewBox="0 0 100 100"><defs><style>.cls-1{fill:#f9f9f9;}.cls-2{fill:gray;}.cls-3{fill:#464646;}.cls-4{fill:#363636;}.cls-5{fill:#949494;}.cls-6{fill:#fff;}.cls-7{fill:#cfcfcf;}.cls-8{fill:#666;}.cls-9{fill:#afafaf;}.cls-10{fill:#dbdbdb;}.cls-11{fill:#999;}.cls-12{fill:#333;}</style></defs><title>sqr-bw-shafir</title><g id="Layer_2" data-name="Layer 2"><g id="Layer_5" data-name="Layer 5"><g id="sqr-bw-shaked"><rect class="cls-1" width="100" height="100"/><path class="cls-2" d="M99,1V99H1V1H99m1-1H0V100H100V0Z"/><rect class="cls-3" x="64.65" y="69.69" width="17.57" height="30.31"/><rect class="cls-4" x="70.51" y="69.69" width="7.81" height="30.31"/><rect class="cls-5" x="80.27" y="32.59" width="1.95" height="7.81"/><rect class="cls-5" x="84.17" y="56.02" width="1.95" height="13.67"/><rect class="cls-6" x="13.88" y="71.64" width="15.62" height="28.36"/><rect class="cls-7" x="21.69" y="81.41" width="15.62" height="18.59"/><rect class="cls-8" x="19.74" y="13.07" width="13.67" height="74.19"/><rect class="cls-6" x="23.65" y="81.41" width="50.76" height="18.59"/><rect class="cls-9" x="31.46" y="81.41" width="21.48" height="1.95"/><rect class="cls-10" x="33.41" y="83.36" width="17.57" height="1.95"/><rect class="cls-10" x="35.36" y="85.31" width="13.67" height="1.95"/><rect class="cls-10" x="37.31" y="87.26" width="9.76" height="1.95"/><rect class="cls-7" x="66.6" y="71.64" width="15.62" height="28.36"/><rect class="cls-7" x="68.55" y="87.26" width="11.72" height="12.74"/><rect class="cls-6" x="68.55" y="71.64" width="15.62" height="28.36"/><rect class="cls-10" x="23.65" y="18.93" width="50.76" height="62.48"/><rect x="33.41" y="67.74" width="17.57" height="1.95"/><rect x="49.03" y="65.79" width="3.9" height="1.95"/><rect x="35.36" y="69.69" width="11.71" height="1.95"/><rect class="cls-9" x="37.31" y="59.93" width="3.9" height="1.95"/><rect class="cls-9" x="37.31" y="63.83" width="3.9" height="1.95"/><rect class="cls-9" x="35.36" y="59.93" width="1.95" height="3.9"/><rect class="cls-11" x="47.08" y="50.17" width="3.9" height="5.86"/><rect class="cls-6" x="50.98" y="50.17" width="3.9" height="5.86"/><rect class="cls-12" x="45.12" y="48.21" width="11.71" height="1.95"/><rect class="cls-12" x="54.89" y="50.17" width="3.9" height="1.95"/><rect class="cls-11" x="27.55" y="50.17" width="3.9" height="5.86"/><rect class="cls-6" x="31.46" y="50.17" width="3.9" height="5.86"/><rect class="cls-12" x="25.6" y="48.21" width="11.71" height="1.95"/><rect class="cls-12" x="23.65" y="50.17" width="3.9" height="1.95"/><rect class="cls-10" x="72.46" y="46.26" width="9.76" height="17.57"/><rect class="cls-8" x="19.74" y="13.07" width="62.48" height="5.86"/><rect class="cls-8" x="21.69" y="11.12" width="60.53" height="5.86"/><rect class="cls-8" x="82.22" y="59.93" width="5.86" height="23.43"/><rect class="cls-8" x="80.27" y="57.98" width="5.86" height="27.33"/><rect class="cls-8" x="82.22" y="38.45" width="5.86" height="19.52"/><rect class="cls-8" x="80.27" y="36.5" width="5.86" height="23.43"/><rect class="cls-8" x="78.32" y="34.55" width="5.86" height="27.33"/><rect class="cls-8" x="54.89" y="3.31" width="19.52" height="5.86"/><rect class="cls-8" x="45.12" y="5.26" width="31.24" height="5.86"/><rect class="cls-8" x="39.27" y="7.21" width="39.05" height="5.86"/><rect class="cls-8" x="27.55" y="7.21" width="19.52" height="5.86"/><rect class="cls-8" x="25.6" y="9.17" width="23.43" height="5.86"/><rect class="cls-8" x="23.65" y="11.12" width="27.33" height="5.86"/><rect class="cls-8" x="13.88" y="44.31" width="5.86" height="19.52"/><rect class="cls-8" x="15.84" y="42.36" width="5.86" height="23.43"/><rect class="cls-8" x="17.79" y="40.4" width="5.86" height="27.33"/><rect class="cls-8" x="13.88" y="61.88" width="5.86" height="23.43"/><rect class="cls-8" x="15.84" y="59.93" width="5.86" height="27.33"/><rect class="cls-8" x="66.6" y="13.07" width="15.62" height="74.19"/><rect class="cls-7" x="43.17" y="89.22" width="1.95" height="1.95"/><rect class="cls-7" x="41.22" y="91.17" width="1.95" height="1.95"/><rect class="cls-7" x="39.27" y="93.12" width="1.95" height="1.95"/><rect class="cls-7" x="37.31" y="95.07" width="1.95" height="1.95"/><rect class="cls-7" x="35.36" y="97.03" width="1.95" height="1.95"/><rect class="cls-7" x="33.41" y="98.98" width="1.95" height="1.02"/><rect class="cls-8" x="11.93" y="63.83" width="5.86" height="19.52"/><path class="cls-2" d="M99,1V99H1V1H99m1-1H0V100H100V0Z"/></g></g></g></svg>