<svg xmlns="http://www.w3.org/2000/svg" viewBox="0 0 100 111"><defs><style>.cls-1{fill:#fff;}.cls-2{fill:#0033b8;}.cls-3{fill:#00388b;}.cls-4{fill:#05224d;}.cls-5{fill:#00aeef;}.cls-6{fill:#3cb0ec;}.cls-7{fill:#ffd3af;}.cls-8{fill:#b1b1b1;}.cls-9{fill:#eab293;}.cls-10{fill:#be8768;}.cls-11{fill:#dadada;}</style></defs><title>sqr-c-gantz_2</title><g id="Layer_2" data-name="Layer 2"><g id="Layer_5" data-name="Layer 5"><g id="sqr-c-gantz"><rect class="cls-1" width="100" height="100"/><path class="cls-2" d="M44.22,98v1.46l1.8-.9V98ZM0,0V100H100V0ZM98,98H2V2H98ZM44.22,98v1.46l1.8-.9V98Zm0,0v1.46l1.8-.9V98Zm0,0v1.46l1.8-.9V98Z"/><rect class="cls-3" x="14.46" y="82.35" width="17.29" height="17.65"/><rect class="cls-4" x="20.22" y="82.35" width="7.68" height="17.65"/><rect class="cls-3" x="22.14" y="80.43" width="53.79" height="19.57"/><rect class="cls-4" x="66.33" y="84.28" width="17.29" height="15.72"/><rect class="cls-4" x="41.35" y="80.43" width="1.92" height="19.57"/><rect class="cls-3" x="68.25" y="82.35" width="17.29" height="17.65"/><path class="cls-5" d="M49,90H35.59V92H49Z"/><path class="cls-1" d="M51,88.12H33.67V90H51Z"/><path class="cls-6" d="M47.11,88.12h-9.6v5.76h9.6Z"/><path class="cls-1" d="M52.88,86.2H31.75v1.92H52.88Z"/><path class="cls-1" d="M54.8,84.28h-25V86.2h25Z"/><path class="cls-1" d="M56.72,82.35H27.9v1.93H56.72Z"/><path class="cls-1" d="M58.64,80.43H26v1.92H58.64Z"/><path class="cls-6" d="M45.19,80.43H39.43v3.85h5.76Z"/><path class="cls-6" d="M43.27,84.28H41.35V86.2h1.92Z"/><path class="cls-6" d="M45.19,86.2H39.43v9.6h5.76Z"/><path class="cls-5" d="M47.11,80.43h-9.6v1.92h9.6Z"/><path class="cls-7" d="M74,11.27H24.06V80.43H74Z"/><path class="cls-8" d="M77.85,9.35H72.09v36.5h5.76Z"/><path class="cls-8" d="M75.93,7.43H26v3.84h50Z"/><path class="cls-8" d="M75.93,9.35H26v3.84h50Z"/><path class="cls-8" d="M74,5.51H27.9V9.35H74Z"/><path class="cls-8" d="M60.56,7.43H29.82v7.68H60.56Z"/><path class="cls-8" d="M56.72,11.27H37.51V17H56.72Z"/><path class="cls-7" d="M79.77,42h-9.6V59.3h9.6Z"/><path class="cls-1" d="M58.64,40.09H56.72v3.84h1.92Z"/><path class="cls-6" d="M56.72,40.09H51v3.84h5.76Z"/><path class="cls-9" d="M58.64,38.17H51v1.92h7.68Z"/><path class="cls-9" d="M64.41,40.09H58.64V42h5.77Z"/><path class="cls-9" d="M58.64,42H51v1.92h7.68Z"/><path class="cls-9" d="M58.64,43.93H52.88v1.92h5.76Z"/><path class="cls-8" d="M60.56,36.25H49v1.92H60.56Z"/><path class="cls-8" d="M64.41,34.33H58.64v1.92h5.77Z"/><path class="cls-1" d="M37.51,40.09H35.59v3.84h1.92Z"/><path class="cls-6" d="M35.59,40.09H29.82v3.84h5.77Z"/><path class="cls-9" d="M37.51,38.17H29.82v1.92h7.69Z"/><path class="cls-9" d="M29.82,40.09H24.06V42h5.76Z"/><path class="cls-9" d="M37.51,42H29.82v1.92h7.69Z"/><path class="cls-9" d="M35.59,43.93H29.82v1.92h5.77Z"/><path class="cls-8" d="M39.43,36.25H27.9v1.92H39.43Z"/><path class="cls-8" d="M29.82,34.33H24.06v1.92h5.76Z"/><path class="cls-10" d="M51,65.06H31.75V67H51Z"/><path class="cls-10" d="M52.88,67H51v1.92h1.92Z"/><path class="cls-9" d="M39.43,34.33H37.51V53.54h1.92Z"/><path class="cls-9" d="M39.43,51.62H35.59v1.92h3.84Z"/><path class="cls-9" d="M39.43,57.38H35.59V59.3h3.84Z"/><path class="cls-9" d="M35.59,53.54H33.67v3.84h1.92Z"/><path class="cls-11" d="M75.93,11.27H72.09v36.5h3.84Z"/><path class="cls-9" d="M54.8,28.56h-23v1.92h23Z"/><path class="cls-9" d="M54.8,24.72h-23v1.92h23Z"/><path class="cls-9" d="M56.72,57.38H54.8V78.51h1.92Z"/><path class="cls-9" d="M29.82,57.38H27.9V78.51h1.92Z"/><path class="cls-9" d="M43.27,34.33H41.35v5.76h1.92Z"/><rect class="cls-1" x="10" y="88" width="80" height="22"/><path class="cls-2" d="M31.75,88v1h7.68V88Zm0,0v1h7.68V88ZM9,87v24H91V87Zm80,22H11V89H89ZM31.75,88v1h7.68V88Zm0,0v1h7.68V88Z"/><path class="cls-2" d="M46,95.28v2.15l-1.8.9v-3h-1.8v9h1.8v-4l2.92-1.46.68-.34V95.28Z"/><path class="cls-2" d="M49.51,95.28v1.8h1.2v3.6h-1.8v1.8h3.6v-7.2Z"/><path class="cls-2" d="M58.12,98.87l-.69-2-.55-1.59H54.56v1.8h1l.6,1.79.41,1.2-1.45-.63L54,102.05l1.66.72,1.05-2.4.81,2.35,1.69-.58Z"/></g></g></g></svg>