<svg xmlns="http://www.w3.org/2000/svg" viewBox="0 0 100 112.13"><defs><style>.cls-1{fill:#fff;}.cls-2{fill:#0033b8;}.cls-3{fill:#3d3d3d;}.cls-4{fill:#3cb0ec;}.cls-5{fill:#ffd3af;}.cls-6{fill:#be8768;}.cls-7{fill:#eab293;}.cls-8{fill:#97491d;}.cls-9{fill:#5c5c5c;}.cls-10{fill:#8b8b8b;}</style></defs><title>sqr-c-deri_1</title><g id="Layer_2" data-name="Layer 2"><g id="Layer_5" data-name="Layer 5"><g id="sqr-c-deri"><rect class="cls-1" width="100" height="100"/><path class="cls-2" d="M98,2V98H2V2H98m2-2H0V100H100V0Z"/><rect x="14.85" y="78.29" width="17.58" height="32.84"/><rect class="cls-3" x="20.71" y="78.29" width="7.81" height="32.84"/><rect x="22.66" y="76.34" width="52.72" height="34.79"/><rect class="cls-3" x="42.19" y="76.34" width="1.95" height="34.79"/><path class="cls-1" d="M30.48,78.29H55.86v1.95H30.48Z"/><path class="cls-1" d="M28.52,76.34H57.81v2H28.52Z"/><path class="cls-1" d="M32.43,80.24H53.9v2H32.43Z"/><path class="cls-1" d="M34.38,82.19H52v2H34.38Z"/><path class="cls-1" d="M36.33,84.15H50V86.1H36.33Z"/><path class="cls-1" d="M38.29,86.1h9.76v2H38.29Z"/><path class="cls-4" d="M38.29,84.15h9.76v3.9H38.29Z"/><path class="cls-4" d="M40.24,76.34H46.1v3.9H40.24Z"/><path class="cls-4" d="M42.19,80.24h2v2h-2Z"/><path class="cls-4" d="M40.24,82.19H46.1V90H40.24Z"/><path class="cls-4" d="M38.29,76.34h9.76v2H38.29Z"/><path class="cls-5" d="M24.62,13.86H73.43V76.34H24.62Z"/><path class="cls-5" d="M69.52,37.29h9.77V54.86H69.52Z"/><path class="cls-6" d="M32.43,60.72H44.14v2H32.43Z"/><path class="cls-6" d="M32.43,62.67h7.81v2H32.43Z"/><path class="cls-7" d="M36.33,52.91h3.91v2H36.33Z"/><path class="cls-7" d="M34.38,49h1.95v5.86H34.38Z"/><path class="cls-7" d="M36.33,41.19h2V49h-2Z"/><path class="cls-7" d="M44.14,45.1H53.9v1.95H44.14Z"/><path class="cls-7" d="M46.1,47.05h7.8v2H46.1Z"/><path class="cls-7" d="M48.05,49H53.9v2H48.05Z"/><path class="cls-7" d="M52,41.19H53.9v5.86H52Z"/><path class="cls-1" d="M48.05,41.19H52V45.1h-3.9Z"/><path class="cls-8" d="M44.14,41.19h3.91V45.1H44.14Z"/><path d="M42.19,39.24H53.9v1.95H42.19Z"/><path d="M52,41.19h3.91v2H52Z"/><path d="M40.24,37.29h3.9v2h-3.9Z"/><path class="cls-7" d="M26.57,45.1h9.76v1.95H26.57Z"/><path class="cls-7" d="M26.57,47.05h7.81v2H26.57Z"/><path class="cls-7" d="M26.57,49h5.86v2H26.57Z"/><path class="cls-7" d="M26.57,41.19h1.95v5.86H26.57Z"/><path class="cls-1" d="M32.43,41.19h3.9V45.1h-3.9Z"/><path class="cls-8" d="M28.52,41.19h3.91V45.1H28.52Z"/><path d="M26.57,39.24h9.76v1.95H26.57Z"/><path d="M24.62,41.19h3.9v2h-3.9Z"/><path d="M34.38,37.29h3.91v2H34.38Z"/><path class="cls-9" d="M28.52,11.9H48.05v3.91H28.52Z"/><path class="cls-9" d="M26.57,11.9H73.43v2H26.57Z"/><path class="cls-9" d="M28.52,10H73.43v2H28.52Z"/><path class="cls-9" d="M67.57,11.9h7.81v43H67.57Z"/><path class="cls-9" d="M61.71,11.9H75.38V25.57H61.71Z"/><path class="cls-9" d="M26.57,66.57H55.86V78.29H26.57Z"/><path class="cls-9" d="M34.38,64.62h5.86v1.95H34.38Z"/><path class="cls-9" d="M30.48,58.76H46.1v2H30.48Z"/><path class="cls-9" d="M53.9,54.86H73.43V76.34H53.9Z"/><path class="cls-9" d="M44.14,60.72H73.43V76.34H44.14Z"/><path class="cls-9" d="M24.62,60.72h7.81V76.34H24.62Z"/><path class="cls-10" d="M26.57,64.62h1.95V78.29H26.57Z"/><path class="cls-10" d="M30.48,68.53h1.95v9.76H30.48Z"/><path class="cls-10" d="M34.38,68.53h1.95v9.76H34.38Z"/><path class="cls-10" d="M38.29,68.53h2v9.76h-2Z"/><path class="cls-10" d="M42.19,68.53h2v9.76h-2Z"/><path class="cls-10" d="M46.1,64.62h1.95V78.29H46.1Z"/><path class="cls-10" d="M50,64.62h2V78.29H50Z"/><path class="cls-10" d="M53.9,60.72h2V78.29h-2Z"/><path class="cls-10" d="M57.81,58.76h1.95V76.34H57.81Z"/><path class="cls-10" d="M61.71,58.76h2V76.34h-2Z"/><path class="cls-10" d="M65.62,58.76h1.95V76.34H65.62Z"/><path class="cls-10" d="M69.52,58.76h2V76.34h-2Z"/><path class="cls-10" d="M67.57,27.52h3.91v2H67.57Z"/><path class="cls-10" d="M67.57,31.43h3.91v2H67.57Z"/><path class="cls-10" d="M67.57,35.33h3.91v2H67.57Z"/><path class="cls-10" d="M67.57,39.24h3.91v1.95H67.57Z"/><path class="cls-10" d="M67.57,43.14h3.91v2H67.57Z"/><path class="cls-10" d="M67.57,47.05h3.91v2H67.57Z"/><path class="cls-10" d="M67.57,51h3.91v2H67.57Z"/><path class="cls-7" d="M28.52,31.43H52v2H28.52Z"/><path class="cls-7" d="M28.52,27.52H48.05v2H28.52Z"/><path d="M61.71,10H75.38v2H61.71Z"/><path d="M59.76,8H75.38V10H59.76Z"/><path d="M65.62,11.9h9.76v2H65.62Z"/><path d="M67.57,13.86h7.81v2H67.57Z"/><path d="M69.52,15.81h5.86v2H69.52Z"/><rect class="cls-3" x="65.62" y="80.24" width="17.57" height="30.89"/><rect x="67.57" y="78.29" width="17.57" height="32.84"/><rect class="cls-1" x="10" y="89.13" width="80" height="22"/><path class="cls-2" d="M91,112.13H9v-24H91Zm-80-2H89v-20H11Z"/><path class="cls-2" d="M38.63,100h-1.8v-3.6h1.8Z"/><path class="cls-2" d="M42.6,101.81h1.13L45,100.54V96.41h1.8v4.88l-2.33,2.32H39.6v-1.8h1.2v-5.4h1.8Z"/><path class="cls-2" d="M54.6,96.41v7.2H52.8v-5.4H48v-1.8Z"/><path class="cls-2" d="M60.17,98.21H56v-1.8h7.2v1.8H62v5.4h-1.8Z"/></g></g></g></svg>