<svg xmlns="http://www.w3.org/2000/svg" viewBox="0 0 100 112.13"><defs><style>.cls-1{fill:#fff;}.cls-2{fill:#0033b8;}.cls-3{fill:#3d3d3d;}.cls-4{fill:#3cb0ec;}.cls-5{fill:#ffd3af;}.cls-6{fill:#eab293;}.cls-7{fill:#97491d;}.cls-8{fill:#be8768;}</style></defs><title>sqr-c-uda</title><g id="Layer_2" data-name="Layer 2"><g id="Layer_5" data-name="Layer 5"><g id="sqr-c-uda"><rect class="cls-1" width="100" height="100"/><path class="cls-2" d="M98,2V98H2V2H98m2-2H0V100H100V0Z"/><rect x="13.88" y="84.15" width="17.57" height="26.98"/><rect class="cls-3" x="19.73" y="84.15" width="7.81" height="26.98"/><rect x="21.69" y="82.19" width="54.66" height="28.94"/><rect class="cls-3" x="41.21" y="82.19" width="1.95" height="28.94"/><path class="cls-1" d="M29.5,84.15H54.88V86.1H29.5Z"/><path class="cls-1" d="M27.55,82.19H56.83v2H27.55Z"/><path class="cls-1" d="M31.45,86.1H52.93v2H31.45Z"/><path class="cls-1" d="M33.4,88.05H51v2H33.4Z"/><path class="cls-1" d="M35.36,90H49v2H35.36Z"/><path class="cls-1" d="M37.31,92h9.76v2H37.31Z"/><path class="cls-4" d="M37.31,90h9.76v3.91H37.31Z"/><path class="cls-4" d="M39.26,82.19h5.86V86.1H39.26Z"/><path class="cls-4" d="M41.21,86.1h2v2h-2Z"/><path class="cls-4" d="M39.26,88.05h5.86v7.81H39.26Z"/><path class="cls-4" d="M37.31,82.19h9.76v2H37.31Z"/><path class="cls-5" d="M21.69,19.71H76.36V82.19H21.69Z"/><path class="cls-5" d="M70.5,43.14h9.76V60.72H70.5Z"/><path class="cls-6" d="M41.21,35.33h2v5.86h-2Z"/><path class="cls-7" d="M51,43.14h3.9V49H51Z"/><path class="cls-6" d="M51,49h9.76v2H51Z"/><path class="cls-6" d="M52.93,51h7.81v2H52.93Z"/><path class="cls-1" d="M54.88,43.14h3.91V49H54.88Z"/><path class="cls-6" d="M58.79,43.14h2V49h-2Z"/><path d="M49,41.19H60.74v2H49Z"/><path d="M58.79,43.14h3.9v2h-3.9Z"/><path class="cls-7" d="M27.55,43.14h3.9V49h-3.9Z"/><path class="cls-6" d="M25.59,49h9.77v2H25.59Z"/><path class="cls-6" d="M25.59,51H33.4v2H25.59Z"/><path class="cls-1" d="M31.45,43.14h3.91V49H31.45Z"/><path class="cls-6" d="M25.59,43.14h2V49h-2Z"/><path d="M25.59,41.19H37.31v2H25.59Z"/><path d="M23.64,43.14h3.91v2H23.64Z"/><path class="cls-6" d="M51,64.62h2V80.24H51Z"/><path class="cls-6" d="M27.55,64.62H29.5V80.24H27.55Z"/><path class="cls-8" d="M31.45,66.57H47.07v2H31.45Z"/><path class="cls-8" d="M47.07,68.53H51v2H47.07Z"/><path class="cls-8" d="M29.5,68.53h1.95v2H29.5Z"/><path class="cls-6" d="M35.36,52.91h3.9v2h-3.9Z"/><path class="cls-6" d="M35.36,60.72h3.9v2h-3.9Z"/><path class="cls-6" d="M33.4,54.86h2v5.86h-2Z"/><path d="M21.69,15.81H76.36v3.9H21.69Z"/><path d="M23.64,13.86H72.45v3.9H23.64Z"/><path d="M25.59,11.9H70.5v3.91H25.59Z"/><path d="M29.5,10H60.74v3.91H29.5Z"/><path d="M31.45,8H56.83v3.9H31.45Z"/><path d="M27.55,17.76h41v3.91h-41Z"/><path d="M72.45,15.81h3.91V47.05H72.45Z"/><path d="M19.74,17.76h2V37.29h-2Z"/><rect class="cls-3" x="66.59" y="86.1" width="17.57" height="25.03"/><rect x="68.54" y="84.15" width="17.58" height="26.98"/><rect class="cls-1" x="10" y="89.13" width="80" height="22"/><path class="cls-2" d="M91,112.13H9v-24H91Zm-80-2H89v-20H11Z"/><path class="cls-2" d="M43.38,96.41v7.2h-1.8v-5.4h-5.4v-1.8Zm-7.2,3.3H38v3.9h-1.8Z"/><path class="cls-2" d="M49,98.21h-4.2v-1.8H52v1.8h-1.2v5.4H49Z"/><path class="cls-2" d="M55.13,103.61h-1.8v-7.2h1.8Z"/><path class="cls-2" d="M59.52,101.81h1.13l1.27-1.27V96.41h1.8v4.88l-2.33,2.32H56.52v-1.8h1.2v-5.4h1.8Z"/></g></g></g></svg>