<svg xmlns="http://www.w3.org/2000/svg" viewBox="0 0 100 112.13"><defs><style>.cls-1{fill:#fff;}.cls-2{fill:#0033b8;}.cls-3{fill:#ffd3af;}.cls-4{fill:#eab293;}.cls-5{fill:#b1b1b1;}.cls-6{fill:#00388b;}.cls-7{fill:#05224d;}.cls-8{fill:#be8768;}.cls-9{fill:#00aeef;}.cls-10{fill:#3cb0ec;}.cls-11{fill:#dadada;}</style></defs><title>sqr-c-gantz</title><g id="Layer_2" data-name="Layer 2"><g id="Layer_5" data-name="Layer 5"><g id="sqr-c-gantz"><rect class="cls-1" width="100" height="100"/><path class="cls-2" d="M98,2V98H2V2H98m2-2H0V100H100V0Z"/><path class="cls-3" d="M21.69,10.34H74.41V80.63H21.69Z"/><path class="cls-4" d="M41.21,33.77h2v5.86h-2Z"/><path class="cls-3" d="M70.5,41.58h9.76V59.15H70.5Z"/><path class="cls-5" d="M72.45,8.39h5.86V45.48H72.45Z"/><path class="cls-5" d="M25.59,6.43H76.36v3.91H25.59Z"/><path class="cls-5" d="M25.59,8.39H76.36v3.9H25.59Z"/><path class="cls-5" d="M27.55,4.48H74.41V8.39H27.55Z"/><path class="cls-5" d="M29.5,6.43H60.74v7.81H29.5Z"/><path class="cls-5" d="M37.31,10.34H56.83V16.2H37.31Z"/><rect class="cls-6" x="13.88" y="82.58" width="17.58" height="28.55"/><rect class="cls-7" x="19.74" y="82.58" width="7.81" height="28.55"/><path class="cls-8" d="M31.45,65H51V67H31.45Z"/><rect class="cls-6" x="21.69" y="80.63" width="54.67" height="30.5"/><rect class="cls-7" x="66.6" y="86.48" width="17.57" height="24.65"/><rect class="cls-7" x="41.22" y="80.63" width="1.95" height="30.5"/><rect class="cls-6" x="68.55" y="82.58" width="17.57" height="28.55"/><path class="cls-9" d="M35.36,90.39H49v2H35.36Z"/><path class="cls-1" d="M33.4,88.44H51v2H33.4Z"/><path class="cls-10" d="M37.31,88.44h9.76v5.85H37.31Z"/><path class="cls-1" d="M31.45,86.48H52.93v2H31.45Z"/><path class="cls-1" d="M29.5,84.53H54.88v2H29.5Z"/><path class="cls-1" d="M27.55,82.58H56.83v2H27.55Z"/><path class="cls-1" d="M25.59,80.63h33.2v2H25.59Z"/><path class="cls-10" d="M39.26,80.63h5.86v3.9H39.26Z"/><path class="cls-10" d="M41.21,84.53h2v2h-2Z"/><path class="cls-10" d="M39.26,86.48h5.86v9.77H39.26Z"/><path class="cls-9" d="M37.31,80.63h9.76v2H37.31Z"/><path class="cls-10" d="M51,39.63h5.85v5.85H51Z"/><path class="cls-4" d="M51,37.67h7.81v2H51Z"/><path class="cls-4" d="M54.88,39.63h5.86v1.95H54.88Z"/><path class="cls-4" d="M58.79,41.58h5.85v2H58.79Z"/><path class="cls-4" d="M51,45.48h7.81v2H51Z"/><path class="cls-5" d="M49,35.72H60.74v2H49Z"/><path class="cls-5" d="M58.79,33.77h5.85v1.95H58.79Z"/><path class="cls-10" d="M29.5,39.63h5.86v5.85H29.5Z"/><path class="cls-4" d="M29.5,37.67h7.81v2H29.5Z"/><path class="cls-4" d="M27.55,39.63H33.4v1.95H27.55Z"/><path class="cls-4" d="M23.64,41.58H29.5v2H23.64Z"/><path class="cls-4" d="M29.5,45.48h7.81v2H29.5Z"/><path class="cls-5" d="M27.55,35.72H39.26v2H27.55Z"/><path class="cls-5" d="M23.64,33.77H29.5v1.95H23.64Z"/><path class="cls-4" d="M37.31,33.77h1.95V53.29H37.31Z"/><path class="cls-4" d="M35.36,51.34h3.9v1.95h-3.9Z"/><path class="cls-4" d="M35.36,57.2h3.9v1.95h-3.9Z"/><path class="cls-4" d="M33.4,53.29h2V57.2h-2Z"/><path class="cls-1" d="M35.36,39.63h2v5.85h-2Z"/><path class="cls-1" d="M56.83,41.58h2v3.9h-2Z"/><path class="cls-11" d="M72.45,10.34h3.91v37.1H72.45Z"/><rect class="cls-1" x="10" y="89.13" width="80" height="22"/><path class="cls-2" d="M91,112.13H9v-24H91Zm-80-2H89v-20H11Z"/><path class="cls-2" d="M46,96.41v2.15l-1.8.9v-3h-1.8v9h1.8v-4l3.6-1.8V96.41Z"/><path class="cls-2" d="M49.51,96.41v1.8h1.2v3.6h-1.8v1.8h3.6v-7.2Z"/><path class="cls-2" d="M56.88,96.41H54.56v1.8h1l1,3-1.45-.63L54,103.18l1.66.72,1.05-2.4.81,2.35,1.69-.58Z"/></g></g></g></svg>