<svg xmlns="http://www.w3.org/2000/svg" viewBox="0 0 100 112.13"><defs><style>.cls-1{fill:#fff;}.cls-2{fill:#0033b8;}.cls-3{fill:#00388b;}.cls-4{fill:#05224d;}.cls-5{fill:#ffd3af;}.cls-6{fill:#cbcbcb;}.cls-7{fill:#ff9000;}.cls-8{fill:#eab293;}.cls-9{fill:#d60000;}.cls-10{fill:#5fd500;}.cls-11{fill:#aa4209;}</style></defs><title>sqr-c-shafir</title><g id="Layer_2" data-name="Layer 2"><g id="Layer_5" data-name="Layer 5"><g id="sqr-c-shaked"><rect class="cls-1" width="100" height="100"/><path class="cls-2" d="M98,2V98H2V2H98m2-2H0V100H100V0Z"/><rect class="cls-3" x="63.66" y="69.69" width="17.58" height="41.44"/><rect class="cls-4" x="69.52" y="69.69" width="7.81" height="41.44"/><rect class="cls-5" x="14.85" y="108.74" width="11.72" height="2.39"/><path class="cls-1" d="M12.9,71.64H28.52v37.1H12.9Z"/><path class="cls-6" d="M20.71,81.41H36.33v27.33H20.71Z"/><path class="cls-7" d="M18.76,13.07H32.43V87.26H18.76Z"/><rect class="cls-1" x="22.66" y="81.41" width="50.77" height="29.72"/><path class="cls-8" d="M30.48,81.41H52v2H30.48Z"/><path class="cls-5" d="M32.43,83.36H50v2H32.43Z"/><path class="cls-5" d="M34.38,85.31H48.05v2H34.38Z"/><path class="cls-5" d="M36.33,87.26H46.1v2H36.33Z"/><path class="cls-6" d="M65.62,71.64H81.24v37.1H65.62Z"/><rect class="cls-6" x="67.57" y="87.26" width="11.71" height="23.87"/><rect class="cls-5" x="69.52" y="108.74" width="11.72" height="2.39"/><path class="cls-1" d="M67.57,71.64H83.19v37.1H67.57Z"/><path class="cls-5" d="M22.67,18.93H73.43V81.41H22.67Z"/><path class="cls-9" d="M32.43,67.74H50v2H32.43Z"/><path class="cls-9" d="M48.05,65.79H52v1.95h-3.9Z"/><path class="cls-9" d="M34.38,69.69H46.1v2H34.38Z"/><path class="cls-8" d="M36.33,59.93h3.91v2H36.33Z"/><path class="cls-8" d="M36.33,63.83h3.91v2H36.33Z"/><path class="cls-8" d="M34.38,59.93h1.95v3.9H34.38Z"/><path class="cls-10" d="M46.1,50.17H50V56H46.1Z"/><path class="cls-1" d="M50,50.17h3.9V56H50Z"/><path class="cls-11" d="M44.14,48.21H55.86v2H44.14Z"/><path class="cls-11" d="M53.9,50.17h3.91v1.95H53.9Z"/><path class="cls-10" d="M26.57,50.17h3.91V56H26.57Z"/><path class="cls-1" d="M30.48,50.17h3.9V56h-3.9Z"/><path class="cls-11" d="M24.62,48.21H36.33v2H24.62Z"/><path class="cls-11" d="M22.67,50.17h3.9v1.95h-3.9Z"/><path class="cls-5" d="M71.48,46.26h9.76V63.83H71.48Z"/><path class="cls-7" d="M18.76,13.07H81.24v5.86H18.76Z"/><path class="cls-7" d="M20.71,11.12H81.24V17H20.71Z"/><path class="cls-7" d="M83.19,61.88h5.86V81.41H83.19Z"/><path class="cls-7" d="M81.24,59.93H87.1V83.36H81.24Z"/><path class="cls-7" d="M79.29,58h5.85V85.31H79.29Z"/><path class="cls-7" d="M81.24,38.45H87.1V58H81.24Z"/><path class="cls-7" d="M79.29,36.5h5.85V59.93H79.29Z"/><path class="cls-7" d="M77.33,34.55h5.86V61.88H77.33Z"/><path class="cls-7" d="M53.9,3.31H73.43V9.17H53.9Z"/><path class="cls-7" d="M44.14,5.26H75.38v5.86H44.14Z"/><path class="cls-7" d="M38.29,7.21h39v5.86h-39Z"/><path class="cls-7" d="M26.57,7.21H46.1v5.86H26.57Z"/><path class="cls-7" d="M24.62,9.17H48.05V15H24.62Z"/><path class="cls-7" d="M22.67,11.12H50V17H22.67Z"/><path class="cls-7" d="M12.9,44.31h5.86V63.83H12.9Z"/><path class="cls-7" d="M14.86,42.36h5.85V65.79H14.86Z"/><path class="cls-7" d="M16.81,40.4h5.86V67.74H16.81Z"/><path class="cls-7" d="M11,63.83h5.86V83.36H11Z"/><path class="cls-7" d="M12.9,61.88h5.86V85.31H12.9Z"/><path class="cls-7" d="M14.86,59.93h5.85V87.26H14.86Z"/><path class="cls-7" d="M65.62,13.07H81.24V87.26H65.62Z"/><path class="cls-6" d="M42.19,89.22h2v2h-2Z"/><path class="cls-6" d="M40.24,91.17h1.95v2H40.24Z"/><path class="cls-6" d="M38.29,93.12h2v1.95h-2Z"/><path class="cls-6" d="M36.33,95.07h2v2h-2Z"/><path class="cls-6" d="M34.38,97h1.95v2H34.38Z"/><path class="cls-6" d="M32.43,99h2v2h-2Z"/><path class="cls-6" d="M30.48,100.93h1.95v1.95H30.48Z"/><rect class="cls-1" x="10" y="89.13" width="80" height="22"/><path class="cls-2" d="M91,112.13H9v-24H91Zm-80-2H89v-20H11Z"/><path class="cls-2" d="M37,96.41v1.8h4.2v5.4H43v-5.4h1.2v-1.8Z"/><path class="cls-2" d="M45.27,96.41v1.8h5.4v2.33l-2.17,2.17L49.77,104l2.7-2.7V96.41Zm0,3.3v5.7h1.8v-5.7Z"/><path class="cls-2" d="M61,96.41v4.13l-1.28,1.27h-.46v-5.4h-1.8v5.4H55.88v-5.4h-1.8v7.2h6.37l2.33-2.32V96.41Z"/></g></g></g></svg>