<svg xmlns="http://www.w3.org/2000/svg" viewBox="0 0 100 112.13"><defs><style>.cls-1{fill:#fff;}.cls-2{fill:#0033b8;}.cls-3{fill:#007db1;}.cls-4{fill:#014f6f;}.cls-5{fill:#ffd3af;}.cls-6{fill:#eab293;}.cls-7{fill:#3cb0ec;}.cls-8{fill:#cd9364;}.cls-9{fill:#b13c25;}</style></defs><title>sqr-c-shaked</title><g id="Layer_2" data-name="Layer 2"><g id="Layer_5" data-name="Layer 5"><g id="sqr-c-shaked"><rect class="cls-1" width="100" height="100"/><path class="cls-2" d="M98,2V98H2V2H98m2-2H0V100H100V0Z"/><rect class="cls-3" x="20.72" y="82.5" width="50.76" height="28.63"/><rect class="cls-1" x="20.72" y="82.5" width="50.76" height="28.63"/><rect class="cls-3" x="14.86" y="84.45" width="13.67" height="26.68"/><rect class="cls-4" x="18.76" y="84.45" width="13.67" height="26.68"/><rect class="cls-3" x="46.1" y="82.5" width="25.38" height="28.63"/><rect class="cls-3" x="20.72" y="82.5" width="15.62" height="28.63"/><path class="cls-1" d="M36.33,90.31H46.1v5.86H36.33Z"/><path class="cls-5" d="M38.29,82.5h5.85v3.91H38.29Z"/><path class="cls-5" d="M36.33,82.5H46.1v2H36.33Z"/><rect class="cls-4" x="63.67" y="86.41" width="13.67" height="24.72"/><rect class="cls-3" x="65.62" y="84.45" width="13.67" height="26.68"/><path d="M14.86,14.17H28.52V88.36H14.86Z"/><path class="cls-5" d="M20.71,20H71.48V82.5H20.71Z"/><path class="cls-6" d="M32.43,59.07h3.9v2h-3.9Z"/><path class="cls-6" d="M55.86,61h5.85v2H55.86Z"/><path class="cls-6" d="M53.9,63h3.91v2H53.9Z"/><path class="cls-6" d="M32.43,63h3.9v2h-3.9Z"/><path class="cls-6" d="M30.48,59.07h1.95V63H30.48Z"/><path class="cls-7" d="M48.05,43.45H53.9v7.81H48.05Z"/><path d="M46.1,41.5H57.81v2H46.1Z"/><path d="M55.86,43.45h2V45.4h-2Z"/><path d="M57.81,43.45h1.95V45.4H57.81Z"/><path d="M57.81,45.4h1.95v2H57.81Z"/><path d="M59.76,45.4h2v2h-2Z"/><path class="cls-1" d="M53.9,43.45h2v7.81h-2Z"/><path class="cls-8" d="M46.1,43.45h9.76V45.4H46.1Z"/><path d="M22.67,41.5H34.38v2H22.67Z"/><path d="M22.67,43.45h1.95V45.4H22.67Z"/><path d="M18.76,45.4h1.95v2H18.76Z"/><path class="cls-7" d="M26.57,43.45h5.86v7.81H26.57Z"/><path class="cls-1" d="M32.43,43.45h2v7.81h-2Z"/><path class="cls-8" d="M24.62,43.45h9.76V45.4H24.62Z"/><path class="cls-9" d="M30.48,68.83H48.05v2H30.48Z"/><path class="cls-9" d="M32.43,70.79H44.14v1.95H32.43Z"/><path class="cls-9" d="M34.38,72.74h7.81v2H34.38Z"/><path class="cls-5" d="M67.57,47.36h9.76V64.93H67.57Z"/><path d="M14.86,14.17H83.19V20H14.86Z"/><path d="M18.76,12.21H83.19v5.86H18.76Z"/><path d="M20.71,10.26H81.24v5.86H20.71Z"/><path d="M36.33,8.31h43v5.86h-43Z"/><path d="M38.29,6.36h39v5.85h-39Z"/><path d="M40.24,4.4H75.38v5.86H40.24Z"/><path d="M20.71,16.12H40.24V22H20.71Z"/><path d="M18.76,18.07H38.29v5.86H18.76Z"/><path d="M65.62,14.17H85.14V88.36H65.62Z"/><rect class="cls-1" x="10" y="89.13" width="80" height="22"/><path class="cls-2" d="M91,112.13H9v-24H91Zm-80-2H89v-20H11Z"/><path class="cls-2" d="M37,96.41v1.8h4.2v5.4H43v-5.4h1.2v-1.8Z"/><path class="cls-2" d="M45.28,99.71v5.7h1.8v-5.7Zm0-3.3v1.8h5.4v2.33l-2.18,2.17L49.78,104l2.7-2.7V96.41Z"/><path class="cls-2" d="M61,96.41v4.13l-1.27,1.27h-.46v-5.4H57.44v5.4H55.89v-5.4H54.08v7.2h6.38l2.33-2.32V96.41Z"/></g></g></g></svg>