<svg xmlns="http://www.w3.org/2000/svg" viewBox="0 0 100 100"><defs><style>.cls-1{fill:#f9f9f9;}.cls-2{fill:gray;}.cls-3{fill:#8b8b8b;}.cls-4{fill:#fff;}.cls-5{fill:#737373;}.cls-6{fill:#dbdbdb;}.cls-7{fill:#afafaf;}.cls-8{fill:#a6a6a6;}.cls-9{fill:#b5b5b5;}.cls-10{fill:#1a1a1a;}</style></defs><title>sqr-bw-shaked</title><g id="Layer_2" data-name="Layer 2"><g id="Layer_5" data-name="Layer 5"><g id="sqr-bw-shaked"><rect class="cls-1" width="100" height="100"/><path class="cls-2" d="M99,1V99H1V1H99m1-1H0V100H100V0Z"/><rect class="cls-3" x="20.72" y="82.5" width="50.76" height="17.5"/><rect class="cls-4" x="20.72" y="82.5" width="50.76" height="17.5"/><rect class="cls-3" x="14.86" y="84.45" width="13.67" height="15.55"/><rect class="cls-5" x="18.77" y="84.45" width="13.66" height="15.55"/><rect class="cls-3" x="46.1" y="82.5" width="25.38" height="17.5"/><rect class="cls-3" x="20.72" y="82.5" width="15.62" height="17.5"/><path class="cls-4" d="M36.34,90.31H46.1v5.86H36.34Z"/><path class="cls-6" d="M38.29,82.5h5.86v3.91H38.29Z"/><path class="cls-6" d="M36.34,82.5H46.1v2H36.34Z"/><rect class="cls-5" x="63.67" y="86.41" width="13.67" height="13.59"/><rect class="cls-3" x="65.62" y="84.45" width="13.67" height="15.55"/><path d="M14.86,14.17H28.53V88.36H14.86Z"/><path class="cls-6" d="M20.72,20H71.48V82.5H20.72Z"/><path class="cls-7" d="M32.43,59.07h3.91v2H32.43Z"/><path class="cls-7" d="M55.86,61h5.86v2H55.86Z"/><path class="cls-7" d="M53.91,63h3.9v2h-3.9Z"/><path class="cls-7" d="M32.43,63h3.91v2H32.43Z"/><path class="cls-7" d="M30.48,59.07h1.95V63H30.48Z"/><path class="cls-8" d="M48.05,43.45h5.86v7.81H48.05Z"/><path d="M46.1,41.5H57.81v2H46.1Z"/><path d="M55.86,43.45h2V45.4h-2Z"/><path d="M57.81,43.45h2V45.4h-2Z"/><path d="M57.81,45.4h2v2h-2Z"/><path d="M59.77,45.4h1.95v2H59.77Z"/><path class="cls-4" d="M53.91,43.45h2v7.81h-2Z"/><path class="cls-9" d="M46.1,43.45h9.76V45.4H46.1Z"/><path d="M22.67,41.5H34.39v2H22.67Z"/><path d="M22.67,43.45h1.95V45.4H22.67Z"/><path d="M18.77,45.4h1.95v2H18.77Z"/><path class="cls-8" d="M26.58,43.45h5.85v7.81H26.58Z"/><path class="cls-4" d="M32.43,43.45h2v7.81h-2Z"/><path class="cls-9" d="M24.62,43.45h9.77V45.4H24.62Z"/><path class="cls-10" d="M30.48,68.83H48.05v2H30.48Z"/><path class="cls-10" d="M32.43,70.79H44.15v1.95H32.43Z"/><path class="cls-10" d="M34.39,72.74h7.8v2h-7.8Z"/><path class="cls-6" d="M67.58,47.36h9.76V64.93H67.58Z"/><path d="M14.86,14.17H83.2V20H14.86Z"/><path d="M18.77,12.21H83.2v5.86H18.77Z"/><path d="M20.72,10.26H81.24v5.86H20.72Z"/><path d="M36.34,8.31h43v5.86H36.34Z"/><path d="M38.29,6.36H77.34v5.85H38.29Z"/><path d="M40.24,4.4H75.39v5.86H40.24Z"/><path d="M20.72,16.12H40.24V22H20.72Z"/><path d="M18.77,18.07H38.29v5.86H18.77Z"/><path d="M65.62,14.17H85.15V88.36H65.62Z"/><path class="cls-2" d="M99,1V99H1V1H99m1-1H0V100H100V0Z"/></g></g></g></svg>