<svg xmlns="http://www.w3.org/2000/svg" viewBox="0 0 100 100"><defs><style>.cls-1{fill:#f9f9f9;}.cls-2{fill:gray;}.cls-3{fill:#4d4d4d;}.cls-4{fill:#fff;}.cls-5{fill:#b2b2b2;}.cls-6{fill:#dbdbdb;}.cls-7{fill:#7a7a7a;}.cls-8{fill:#afafaf;}.cls-9{fill:#333;}.cls-10{fill:#696969;}.cls-11{fill:#949494;}</style></defs><title>sqr-bw-peretz_1</title><g id="Layer_2" data-name="Layer 2"><g id="Layer_5" data-name="Layer 5"><g id="sqr-bw-deri"><rect class="cls-1" width="100" height="100"/><path class="cls-2" d="M99,1V99H1V1H99m1-1H0V100H100V0Z"/><rect x="14.85" y="78.29" width="17.57" height="21.71"/><rect class="cls-3" x="20.71" y="78.29" width="7.81" height="21.71"/><rect x="22.66" y="76.34" width="52.72" height="23.66"/><rect class="cls-3" x="42.19" y="76.34" width="1.95" height="23.66"/><path class="cls-4" d="M30.47,78.29H55.85v1.95H30.47Z"/><path class="cls-4" d="M28.52,76.34H57.81v2H28.52Z"/><path class="cls-4" d="M32.42,80.24H53.9v2H32.42Z"/><path class="cls-4" d="M34.38,82.19H52v2H34.38Z"/><path class="cls-4" d="M36.33,84.15H50V86.1H36.33Z"/><path class="cls-4" d="M38.28,86.1H48v2H38.28Z"/><path class="cls-5" d="M38.28,84.15H48v3.9H38.28Z"/><path class="cls-5" d="M40.23,76.34h5.86v3.9H40.23Z"/><path class="cls-5" d="M42.19,80.24h2v2h-2Z"/><path class="cls-5" d="M40.23,82.19h5.86V90H40.23Z"/><path class="cls-5" d="M38.28,76.34H48v2H38.28Z"/><path class="cls-6" d="M24.61,13.86H73.42V76.34H24.61Z"/><path class="cls-6" d="M69.52,37.29h9.76V54.86H69.52Z"/><path class="cls-7" d="M32.42,60.72H44.14v2H32.42Z"/><path class="cls-7" d="M32.42,62.67h7.81v2H32.42Z"/><path class="cls-8" d="M36.33,52.91h3.9v2h-3.9Z"/><path class="cls-8" d="M34.38,49h1.95v5.86H34.38Z"/><path class="cls-8" d="M36.33,41.19h2V49h-2Z"/><path class="cls-8" d="M44.14,45.1H53.9v1.95H44.14Z"/><path class="cls-8" d="M46.09,47.05H53.9v2H46.09Z"/><path class="cls-8" d="M48,49H53.9v2H48Z"/><path class="cls-8" d="M52,41.19H53.9v5.86H52Z"/><path class="cls-4" d="M48,41.19H52V45.1H48Z"/><path class="cls-9" d="M44.14,41.19H48V45.1h-3.9Z"/><path d="M42.19,39.24H53.9v1.95H42.19Z"/><path d="M52,41.19h3.9v2H52Z"/><path d="M40.23,37.29h3.91v2H40.23Z"/><path class="cls-8" d="M26.57,45.1h9.76v1.95H26.57Z"/><path class="cls-8" d="M26.57,47.05h7.81v2H26.57Z"/><path class="cls-8" d="M26.57,49h5.85v2H26.57Z"/><path class="cls-8" d="M26.57,41.19h1.95v5.86H26.57Z"/><path class="cls-4" d="M32.42,41.19h3.91V45.1H32.42Z"/><path class="cls-9" d="M28.52,41.19h3.9V45.1h-3.9Z"/><path d="M26.57,39.24h9.76v1.95H26.57Z"/><path d="M24.61,41.19h3.91v2H24.61Z"/><path d="M34.38,37.29h3.9v2h-3.9Z"/><path class="cls-10" d="M28.52,11.9H48v3.91H28.52Z"/><path class="cls-10" d="M26.57,11.9H73.42v2H26.57Z"/><path class="cls-10" d="M28.52,10h44.9v2H28.52Z"/><path class="cls-10" d="M67.57,11.9h7.81v43H67.57Z"/><path class="cls-10" d="M61.71,11.9H75.38V25.57H61.71Z"/><path class="cls-10" d="M26.57,66.57H55.85V78.29H26.57Z"/><path class="cls-10" d="M34.38,64.62h5.85v1.95H34.38Z"/><path class="cls-10" d="M30.47,58.76H46.09v2H30.47Z"/><path class="cls-10" d="M53.9,54.86H73.42V76.34H53.9Z"/><path class="cls-10" d="M44.14,60.72H73.42V76.34H44.14Z"/><path class="cls-10" d="M24.61,60.72h7.81V76.34H24.61Z"/><path class="cls-11" d="M26.57,64.62h1.95V78.29H26.57Z"/><path class="cls-11" d="M30.47,68.53h2v9.76h-2Z"/><path class="cls-11" d="M34.38,68.53h1.95v9.76H34.38Z"/><path class="cls-11" d="M38.28,68.53h1.95v9.76H38.28Z"/><path class="cls-11" d="M42.19,68.53h2v9.76h-2Z"/><path class="cls-11" d="M46.09,64.62H48V78.29H46.09Z"/><path class="cls-11" d="M50,64.62h2V78.29H50Z"/><path class="cls-11" d="M53.9,60.72h2V78.29h-2Z"/><path class="cls-11" d="M57.81,58.76h1.95V76.34H57.81Z"/><path class="cls-11" d="M61.71,58.76h1.95V76.34H61.71Z"/><path class="cls-11" d="M65.61,58.76h2V76.34h-2Z"/><path class="cls-11" d="M69.52,58.76h2V76.34h-2Z"/><path class="cls-11" d="M67.57,27.52h3.9v2h-3.9Z"/><path class="cls-11" d="M67.57,31.43h3.9v2h-3.9Z"/><path class="cls-11" d="M67.57,35.33h3.9v2h-3.9Z"/><path class="cls-11" d="M67.57,39.24h3.9v1.95h-3.9Z"/><path class="cls-11" d="M67.57,43.14h3.9v2h-3.9Z"/><path class="cls-11" d="M67.57,47.05h3.9v2h-3.9Z"/><path class="cls-11" d="M67.57,51h3.9v2h-3.9Z"/><path class="cls-8" d="M28.52,31.43H52v2H28.52Z"/><path class="cls-8" d="M28.52,27.52H48v2H28.52Z"/><path d="M61.71,10H75.38v2H61.71Z"/><path d="M59.76,8H75.38V10H59.76Z"/><path d="M65.61,11.9h9.77v2H65.61Z"/><path d="M67.57,13.86h7.81v2H67.57Z"/><path d="M69.52,15.81h5.86v2H69.52Z"/><rect class="cls-3" x="65.61" y="80.24" width="17.58" height="19.76"/><rect x="67.57" y="78.29" width="17.57" height="21.71"/><path class="cls-2" d="M99,1V99H1V1H99m1-1H0V100H100V0Z"/></g></g></g></svg>