<svg xmlns="http://www.w3.org/2000/svg" viewBox="0 0 100 111"><defs><style>.cls-1{fill:#f9f9f9;}.cls-2{fill:gray;}.cls-3{fill:#8b8b8b;}.cls-4{fill:#fff;}.cls-5{fill:#737373;}.cls-6{fill:#dbdbdb;}.cls-7{fill:#afafaf;}.cls-8{fill:#a6a6a6;}.cls-9{fill:#b5b5b5;}.cls-10{fill:#1a1a1a;}</style></defs><title>sqr-bw-shaked_1</title><g id="Layer_2" data-name="Layer 2"><g id="Layer_5" data-name="Layer 5"><g id="sqr-bw-shaked"><rect class="cls-1" width="100" height="100"/><path class="cls-2" d="M99,1V99H1V1H99m1-1H0V100H100V0Z"/><rect class="cls-3" x="20.72" y="82.5" width="50.76" height="17.5"/><rect class="cls-4" x="20.72" y="82.5" width="50.76" height="17.5"/><rect class="cls-3" x="14.86" y="84.45" width="13.67" height="15.55"/><rect class="cls-5" x="18.77" y="84.45" width="13.66" height="15.55"/><rect class="cls-3" x="46.1" y="82.5" width="25.38" height="17.5"/><rect class="cls-3" x="20.72" y="82.5" width="15.62" height="17.5"/><path class="cls-4" d="M36.33,90.31H46.1v5.86H36.33Z"/><path class="cls-6" d="M38.29,82.5h5.85v3.91H38.29Z"/><path class="cls-6" d="M36.33,82.5H46.1v2H36.33Z"/><rect class="cls-5" x="63.67" y="86.41" width="13.67" height="13.59"/><rect class="cls-3" x="65.62" y="84.45" width="13.67" height="15.55"/><path d="M14.86,14.17H28.52V88.36H14.86Z"/><path class="cls-6" d="M20.71,20H71.48V82.5H20.71Z"/><path class="cls-7" d="M32.43,59.07h3.9v2h-3.9Z"/><path class="cls-7" d="M55.86,61h5.86v2H55.86Z"/><path class="cls-7" d="M53.91,63h3.9v2h-3.9Z"/><path class="cls-7" d="M32.43,63h3.9v2h-3.9Z"/><path class="cls-7" d="M30.48,59.07h1.95V63H30.48Z"/><path class="cls-8" d="M48.05,43.45h5.86v7.81H48.05Z"/><path d="M46.1,41.5H57.81v2H46.1Z"/><path d="M55.86,43.45h2V45.4h-2Z"/><path d="M57.81,43.45h1.95V45.4H57.81Z"/><path d="M57.81,45.4h1.95v2H57.81Z"/><path d="M59.76,45.4h2v2h-2Z"/><path class="cls-4" d="M53.91,43.45h2v7.81h-2Z"/><path class="cls-9" d="M46.1,43.45h9.76V45.4H46.1Z"/><path d="M22.67,41.5H34.38v2H22.67Z"/><path d="M22.67,43.45h1.95V45.4H22.67Z"/><path d="M18.76,45.4h1.95v2H18.76Z"/><path class="cls-8" d="M26.57,43.45h5.86v7.81H26.57Z"/><path class="cls-4" d="M32.43,43.45h2v7.81h-2Z"/><path class="cls-9" d="M24.62,43.45h9.76V45.4H24.62Z"/><path class="cls-10" d="M30.48,68.83H48.05v2H30.48Z"/><path class="cls-10" d="M32.43,70.79H44.14v1.95H32.43Z"/><path class="cls-10" d="M34.38,72.74h7.81v2H34.38Z"/><path class="cls-6" d="M67.57,47.36h9.76V64.93H67.57Z"/><path d="M14.86,14.17H83.19V20H14.86Z"/><path d="M18.76,12.21H83.19v5.86H18.76Z"/><path d="M20.71,10.26H81.24v5.86H20.71Z"/><path d="M36.33,8.31h43v5.86h-43Z"/><path d="M38.29,6.36h39v5.85h-39Z"/><path d="M40.24,4.4H75.38v5.86H40.24Z"/><path d="M20.71,16.12H40.24V22H20.71Z"/><path d="M18.76,18.07H38.29v5.86H18.76Z"/><path d="M65.62,14.17H85.14V88.36H65.62Z"/><path class="cls-2" d="M99,1V99H1V1H99m1-1H0V100H100V0Z"/><rect class="cls-4" x="10" y="88.5" width="80" height="22"/><path class="cls-2" d="M90.5,111H9.5V88h81Zm-80-1h79V89h-79Z"/><path class="cls-2" d="M41.18,97.58H37v-1.8h7.2v1.8H43V103h-1.8Z"/><path class="cls-2" d="M52.47,95.78v4.87l-2.7,2.7-1.27-1.27,2.17-2.17V97.58h-5.4v-1.8Zm-5.4,9h-1.8v-5.7h1.8Z"/><path class="cls-2" d="M59.24,101.18h.47L61,99.91V95.78h1.8v4.87L60.45,103H54.08v-7.2h1.8v5.4h1.56v-5.4h1.8Z"/></g></g></g></svg>