<svg xmlns="http://www.w3.org/2000/svg" viewBox="0 0 100 100"><defs><style>.cls-1{fill:#f9f9f9;}.cls-2{fill:gray;}.cls-3{fill:#dbdbdb;}.cls-4{fill:#afafaf;}.cls-5{fill:#a1a1a1;}.cls-6{fill:#464646;}.cls-7{fill:#363636;}.cls-8{fill:#7a7a7a;}.cls-9{fill:#a5a5a5;}.cls-10{fill:#fff;}.cls-11{fill:#b2b2b2;}.cls-12{fill:#999;}.cls-13{fill:#b8b8b8;}.cls-14{fill:#cfcfcf;}</style></defs><title>sqr-bw-gantz</title><g id="Layer_2" data-name="Layer 2"><g id="Layer_5" data-name="Layer 5"><g id="sqr-bw-gantz"><rect class="cls-1" width="100" height="100"/><path class="cls-2" d="M99,1V99H1V1H99m1-1H0V100H100V0Z"/><path class="cls-3" d="M21.69,10.34H74.41V80.63H21.69Z"/><path class="cls-4" d="M41.21,33.77h2v5.86h-2Z"/><path class="cls-3" d="M70.5,41.58h9.76V59.15H70.5Z"/><path class="cls-5" d="M25.6,6.43H76.36v3.91H25.6Z"/><path class="cls-5" d="M72.45,8.39h5.86V45.48H72.45Z"/><path class="cls-5" d="M25.6,8.39H76.36v3.9H25.6Z"/><path class="cls-5" d="M27.55,4.48H74.41V8.39H27.55Z"/><path class="cls-5" d="M29.5,6.43H60.74v7.81H29.5Z"/><path class="cls-5" d="M37.31,10.34H56.83V16.2H37.31Z"/><rect class="cls-6" x="13.88" y="82.58" width="17.57" height="17.42"/><rect class="cls-7" x="19.74" y="82.58" width="7.81" height="17.42"/><path class="cls-8" d="M31.45,65H51V67H31.45Z"/><rect class="cls-6" x="21.69" y="80.63" width="54.67" height="19.37"/><rect class="cls-7" x="66.6" y="86.48" width="17.57" height="13.52"/><rect class="cls-7" x="41.21" y="80.63" width="1.96" height="19.37"/><rect class="cls-6" x="68.55" y="82.58" width="17.57" height="17.42"/><path class="cls-9" d="M35.36,90.39H49v2H35.36Z"/><path class="cls-10" d="M33.4,88.44H51v2H33.4Z"/><path class="cls-11" d="M37.31,88.44h9.76v5.85H37.31Z"/><path class="cls-10" d="M31.45,86.48H52.93v2H31.45Z"/><path class="cls-10" d="M29.5,84.53H54.88v2H29.5Z"/><path class="cls-10" d="M27.55,82.58H56.83v2H27.55Z"/><path class="cls-10" d="M25.6,80.63H58.79v2H25.6Z"/><path class="cls-11" d="M39.26,80.63h5.86v3.9H39.26Z"/><path class="cls-11" d="M41.21,84.53h2v2h-2Z"/><path class="cls-11" d="M39.26,86.48h5.86v9.77H39.26Z"/><path class="cls-9" d="M37.31,80.63h9.76v2H37.31Z"/><path class="cls-12" d="M51,39.63h5.85v5.85H51Z"/><path class="cls-4" d="M51,37.67h7.81v2H51Z"/><path class="cls-4" d="M54.88,39.63h5.86v1.95H54.88Z"/><path class="cls-4" d="M58.79,41.58h5.85v2H58.79Z"/><path class="cls-4" d="M51,45.48h7.81v2H51Z"/><path class="cls-13" d="M49,35.72H60.74v2H49Z"/><path class="cls-13" d="M58.79,33.77h5.85v1.95H58.79Z"/><path class="cls-12" d="M29.5,39.63h5.86v5.85H29.5Z"/><path class="cls-4" d="M29.5,37.67h7.81v2H29.5Z"/><path class="cls-4" d="M27.55,39.63H33.4v1.95H27.55Z"/><path class="cls-4" d="M23.64,41.58H29.5v2H23.64Z"/><path class="cls-4" d="M29.5,45.48h7.81v2H29.5Z"/><path class="cls-13" d="M27.55,35.72H39.26v2H27.55Z"/><path class="cls-13" d="M23.64,33.77H29.5v1.95H23.64Z"/><path class="cls-4" d="M37.31,33.77h1.95V53.29H37.31Z"/><path class="cls-4" d="M35.36,51.34h3.9v1.95h-3.9Z"/><path class="cls-4" d="M35.36,57.2h3.9v1.95h-3.9Z"/><path class="cls-4" d="M33.4,53.29h2V57.2h-2Z"/><path class="cls-10" d="M35.36,39.63h2v5.85h-2Z"/><path class="cls-10" d="M56.83,41.58h2v3.9h-2Z"/><path class="cls-14" d="M72.45,10.34h3.91v37.1H72.45Z"/><path class="cls-2" d="M99,1V99H1V1H99m1-1H0V100H100V0Z"/></g></g></g></svg>