<svg xmlns="http://www.w3.org/2000/svg" viewBox="0 0 100 100"><defs><style>.cls-1{fill:#f9f9f9;}.cls-2{fill:gray;}.cls-3{fill:#4d4d4d;}.cls-4{fill:#fff;}.cls-5{fill:#b2b2b2;}.cls-6{fill:#dbdbdb;}.cls-7{fill:#afafaf;}.cls-8{fill:#333;}.cls-9{fill:#7a7a7a;}</style></defs><title>sqr-bw-uda</title><g id="Layer_2" data-name="Layer 2"><g id="Layer_5" data-name="Layer 5"><g id="sqr-bw-uda"><rect class="cls-1" width="100" height="100"/><path class="cls-2" d="M99,1V99H1V1H99m1-1H0V100H100V0Z"/><rect x="13.88" y="84.15" width="17.57" height="15.85"/><rect class="cls-3" x="19.74" y="84.15" width="7.81" height="15.85"/><rect x="21.69" y="82.19" width="54.67" height="17.81"/><rect class="cls-3" x="41.22" y="82.19" width="1.95" height="17.81"/><path class="cls-4" d="M29.5,84.15H54.88V86.1H29.5Z"/><path class="cls-4" d="M27.55,82.19H56.84v2H27.55Z"/><path class="cls-4" d="M31.45,86.1H52.93v2H31.45Z"/><path class="cls-4" d="M33.41,88.05H51v2H33.41Z"/><path class="cls-4" d="M35.36,90H49v2H35.36Z"/><path class="cls-4" d="M37.31,92h9.76v2H37.31Z"/><path class="cls-5" d="M37.31,90h9.76v3.91H37.31Z"/><path class="cls-5" d="M39.26,82.19h5.86V86.1H39.26Z"/><path class="cls-5" d="M41.22,86.1h2v2h-2Z"/><path class="cls-5" d="M39.26,88.05h5.86v7.81H39.26Z"/><path class="cls-5" d="M37.31,82.19h9.76v2H37.31Z"/><path class="cls-6" d="M21.69,19.71H76.36V82.19H21.69Z"/><path class="cls-6" d="M70.5,43.14h9.76V60.72H70.5Z"/><path class="cls-7" d="M41.22,35.33h2v5.86h-2Z"/><path class="cls-8" d="M51,43.14h3.9V49H51Z"/><path class="cls-7" d="M51,49h9.76v2H51Z"/><path class="cls-7" d="M52.93,51h7.81v2H52.93Z"/><path class="cls-4" d="M54.88,43.14h3.91V49H54.88Z"/><path class="cls-7" d="M58.79,43.14h2V49h-2Z"/><path d="M49,41.19H60.74v2H49Z"/><path d="M58.79,43.14h3.9v2h-3.9Z"/><path class="cls-8" d="M27.55,43.14h3.9V49h-3.9Z"/><path class="cls-7" d="M25.6,49h9.76v2H25.6Z"/><path class="cls-7" d="M25.6,51h7.81v2H25.6Z"/><path class="cls-4" d="M31.45,43.14h3.91V49H31.45Z"/><path class="cls-7" d="M25.6,43.14h1.95V49H25.6Z"/><path d="M25.6,41.19H37.31v2H25.6Z"/><path d="M23.64,43.14h3.91v2H23.64Z"/><path class="cls-7" d="M51,64.62h2V80.24H51Z"/><path class="cls-7" d="M27.55,64.62H29.5V80.24H27.55Z"/><path class="cls-9" d="M31.45,66.57H47.07v2H31.45Z"/><path class="cls-9" d="M47.07,68.53H51v2H47.07Z"/><path class="cls-9" d="M29.5,68.53h1.95v2H29.5Z"/><path class="cls-7" d="M35.36,52.91h3.9v2h-3.9Z"/><path class="cls-7" d="M35.36,60.72h3.9v2h-3.9Z"/><path class="cls-7" d="M33.41,54.86h2v5.86h-2Z"/><path d="M21.69,15.81H76.36v3.9H21.69Z"/><path d="M23.64,13.86H72.46v3.9H23.64Z"/><path d="M25.6,11.9H70.5v3.91H25.6Z"/><path d="M29.5,10H60.74v3.91H29.5Z"/><path d="M31.45,8H56.84v3.9H31.45Z"/><path d="M27.55,17.76h41v3.91h-41Z"/><path d="M72.46,15.81h3.9V47.05h-3.9Z"/><path d="M19.74,17.76h2V37.29h-2Z"/><rect class="cls-3" x="66.6" y="86.1" width="17.57" height="13.9"/><rect x="68.55" y="84.15" width="17.57" height="15.85"/><path class="cls-2" d="M99,1V99H1V1H99m1-1H0V100H100V0Z"/></g></g></g></svg>