<svg xmlns="http://www.w3.org/2000/svg" viewBox="0 0 100 112.13"><defs><style>.cls-1{fill:#fff;}.cls-2{fill:#0033b8;}.cls-3{fill:#00388b;}.cls-4{fill:#05224d;}.cls-5{fill:#00aeef;}.cls-6{fill:#3cb0ec;}.cls-7{fill:#ffd3af;}.cls-8{fill:#b1b1b1;}.cls-9{fill:#eab293;}.cls-10{fill:#be8768;}.cls-11{fill:#dadada;}</style></defs><title>sqr-c-gantz_1</title><g id="Layer_2" data-name="Layer 2"><g id="Layer_5" data-name="Layer 5"><g id="sqr-c-gantz"><rect class="cls-1" width="100" height="100"/><path class="cls-2" d="M44.22,98v1.46l1.8-.9V98Zm0,0v1.46l1.8-.9V98Zm0,0v1.46l1.8-.9V98ZM0,0V100H100V0ZM98,98H2V2H98ZM44.22,98v1.46l1.8-.9V98Z"/><rect class="cls-3" x="14.46" y="82.35" width="17.29" height="29.78"/><rect class="cls-4" x="20.22" y="82.35" width="7.68" height="29.78"/><rect class="cls-3" x="22.14" y="80.43" width="53.79" height="31.7"/><rect class="cls-4" x="66.33" y="84.28" width="17.29" height="27.85"/><rect class="cls-4" x="41.35" y="80.43" width="1.92" height="31.7"/><rect class="cls-3" x="68.25" y="82.35" width="17.29" height="29.78"/><path class="cls-5" d="M49,90H35.59V92H49Z"/><path class="cls-1" d="M51,88.12H33.67V90H51Z"/><path class="cls-6" d="M47.12,88.12H37.51v5.76h9.61Z"/><path class="cls-1" d="M52.88,86.2H31.75v1.92H52.88Z"/><path class="cls-1" d="M54.8,84.28h-25V86.2h25Z"/><path class="cls-1" d="M56.72,82.35H27.91v1.93H56.72Z"/><path class="cls-1" d="M58.65,80.43H26v1.92H58.65Z"/><path class="cls-6" d="M45.2,80.43H39.43v3.85H45.2Z"/><path class="cls-6" d="M43.28,84.28H41.35V86.2h1.93Z"/><path class="cls-6" d="M45.2,86.2H39.43v9.6H45.2Z"/><path class="cls-5" d="M47.12,80.43H37.51v1.92h9.61Z"/><path class="cls-7" d="M74,11.27H24.06V80.43H74Z"/><path class="cls-8" d="M77.86,9.35H72.09v36.5h5.77Z"/><path class="cls-8" d="M75.94,7.43H26v3.84h50Z"/><path class="cls-8" d="M75.94,9.35H26v3.84h50Z"/><path class="cls-8" d="M74,5.51H27.91V9.35H74Z"/><path class="cls-8" d="M60.57,7.43H29.83v7.68H60.57Z"/><path class="cls-8" d="M56.72,11.27H37.51V17H56.72Z"/><path class="cls-7" d="M79.78,42H70.17V59.3h9.61Z"/><path class="cls-1" d="M58.65,40.09H56.72v3.84h1.93Z"/><path class="cls-6" d="M56.72,40.09H51v3.84h5.76Z"/><path class="cls-9" d="M58.65,38.17H51v1.92h7.69Z"/><path class="cls-9" d="M64.41,40.09H58.65V42h5.76Z"/><path class="cls-9" d="M58.65,42H51v1.92h7.69Z"/><path class="cls-9" d="M58.65,43.93H52.88v1.92h5.77Z"/><path class="cls-8" d="M60.57,36.25H49v1.92H60.57Z"/><path class="cls-8" d="M64.41,34.33H58.65v1.92h5.76Z"/><path class="cls-1" d="M37.51,40.09H35.59v3.84h1.92Z"/><path class="cls-6" d="M35.59,40.09H29.83v3.84h5.76Z"/><path class="cls-9" d="M37.51,38.17H29.83v1.92h7.68Z"/><path class="cls-9" d="M29.83,40.09H24.06V42h5.77Z"/><path class="cls-9" d="M37.51,42H29.83v1.92h7.68Z"/><path class="cls-9" d="M35.59,43.93H29.83v1.92h5.76Z"/><path class="cls-8" d="M39.43,36.25H27.91v1.92H39.43Z"/><path class="cls-8" d="M29.83,34.33H24.06v1.92h5.77Z"/><path class="cls-10" d="M51,65.06H31.75V67H51Z"/><path class="cls-10" d="M52.88,67H51v1.92h1.92Z"/><path class="cls-9" d="M39.43,34.33H37.51V53.54h1.92Z"/><path class="cls-9" d="M39.43,51.62H35.59v1.92h3.84Z"/><path class="cls-9" d="M39.43,57.38H35.59V59.3h3.84Z"/><path class="cls-9" d="M35.59,53.54H33.67v3.84h1.92Z"/><path class="cls-11" d="M75.94,11.27H72.09v36.5h3.85Z"/><path class="cls-9" d="M54.8,28.56h-23v1.92h23Z"/><path class="cls-9" d="M54.8,24.72h-23v1.92h23Z"/><path class="cls-9" d="M56.72,57.38H54.8V78.51h1.92Z"/><path class="cls-9" d="M29.83,57.38H27.91V78.51h1.92Z"/><path class="cls-9" d="M43.28,34.33H41.35v5.76h1.93Z"/><rect class="cls-1" x="10" y="89.13" width="80" height="22"/><path class="cls-2" d="M31.75,89.13v1h7.68v-1Zm0,0v1h7.68v-1ZM9,88.13v24H91v-24Zm80,22H11v-20H89Zm-57.25-21v1h7.68v-1Zm0,0v1h7.68v-1Z"/><path class="cls-2" d="M46,96.41v2.15l-1.8.9v-3h-1.8v9h1.8v-4L47.14,100l.68-.34V96.41Z"/><path class="cls-2" d="M49.51,96.41v1.8h1.2v3.6h-1.8v1.8h3.6v-7.2Z"/><path class="cls-2" d="M58.12,100l-.69-2-.55-1.59H54.56v1.8h1l.6,1.79.41,1.2-1.45-.63L54,103.18l1.66.72,1.05-2.4.81,2.35,1.69-.58Z"/></g></g></g></svg>
