<svg xmlns="http://www.w3.org/2000/svg" viewBox="0 0 100 100"><defs><style>.cls-1{fill:#f9f9f9;}.cls-2{fill:gray;}.cls-3{fill:#464646;}.cls-4{fill:#363636;}.cls-5{fill:#fff;}.cls-6{fill:#b2b2b2;}.cls-7{fill:#dbdbdb;}.cls-8{fill:#333;}.cls-9{fill:#afafaf;}.cls-10{fill:#7a7a7a;}.cls-11{fill:#bdbdbd;}</style></defs><title>sqr-bw-bibi</title><g id="Layer_2" data-name="Layer 2"><g id="Layer_5" data-name="Layer 5"><g id="sqr-bw-bibi"><rect class="cls-1" width="100" height="100"/><path class="cls-2" d="M99,1V99H1V1H99m1-1H0V100H100V0Z"/><rect class="cls-3" x="13.88" y="82.55" width="17.57" height="17.45"/><rect class="cls-4" x="19.74" y="82.55" width="7.81" height="17.45"/><rect class="cls-3" x="21.69" y="80.6" width="54.67" height="19.4"/><rect class="cls-4" x="41.21" y="80.6" width="1.96" height="19.4"/><path class="cls-5" d="M29.5,82.55H54.88v2H29.5Z"/><path class="cls-5" d="M27.55,80.6H56.83v2H27.55Z"/><path class="cls-5" d="M31.45,84.5H52.93v2H31.45Z"/><path class="cls-5" d="M33.4,86.45H51v2H33.4Z"/><path class="cls-5" d="M35.36,88.41H49v2H35.36Z"/><path class="cls-5" d="M37.31,90.36h9.76v2H37.31Z"/><path class="cls-6" d="M37.31,88.41h9.76v3.9H37.31Z"/><path class="cls-6" d="M39.26,80.6h5.86v3.9H39.26Z"/><path class="cls-6" d="M41.21,84.5h2v2h-2Z"/><path class="cls-6" d="M39.26,86.45h5.86v7.81H39.26Z"/><path class="cls-6" d="M37.31,80.6h9.76v2H37.31Z"/><path class="cls-7" d="M21.69,18.12H74.41V80.6H21.69Z"/><path class="cls-7" d="M70.5,41.55h9.76V59.12H70.5Z"/><path class="cls-5" d="M49,45.45h7.81v5.86H49Z"/><path class="cls-8" d="M49,45.45h3.91v5.86H49Z"/><path d="M47.07,43.5h9.76v2H47.07Z"/><path d="M45.12,45.45H49V47.4h-3.9Z"/><path d="M54.88,41.55h3.91v2H54.88Z"/><path class="cls-9" d="M49,49.36h7.81v2H49Z"/><path class="cls-9" d="M49,51.31h5.86v1.95H49Z"/><path class="cls-5" d="M27.55,45.45h7.81v5.86H27.55Z"/><path class="cls-8" d="M27.55,45.45h3.9v5.86h-3.9Z"/><path d="M25.59,43.5H37.31v2H25.59Z"/><path d="M23.64,41.55h3.91v2H23.64Z"/><path class="cls-9" d="M27.55,49.36h7.81v2H27.55Z"/><path class="cls-9" d="M29.5,51.31h5.86v1.95H29.5Z"/><path class="cls-10" d="M33.4,68.88H49v2H33.4Z"/><path class="cls-10" d="M49,66.93h2v1.95H49Z"/><path class="cls-10" d="M51,65h2v2H51Z"/><path class="cls-9" d="M35.36,55.21h3.9v2h-3.9Z"/><path class="cls-9" d="M35.36,61.07h3.9v2h-3.9Z"/><path class="cls-9" d="M33.4,57.17h2v3.9h-2Z"/><path class="cls-11" d="M23.64,16.17H72.45v3.9H23.64Z"/><path class="cls-11" d="M25.59,14.21H74.41v3.91H25.59Z"/><path class="cls-11" d="M27.55,12.26H74.41v3.91H27.55Z"/><path class="cls-11" d="M25.59,18.12H72.45V22H25.59Z"/><path class="cls-11" d="M72.45,14.21h3.91V45.45H72.45Z"/><rect class="cls-4" x="66.6" y="84.5" width="17.57" height="15.5"/><rect class="cls-3" x="68.55" y="82.55" width="17.57" height="17.45"/><path class="cls-2" d="M99,1V99H1V1H99m1-1H0V100H100V0Z"/></g></g></g></svg>