<svg xmlns="http://www.w3.org/2000/svg" viewBox="0 0 100 100"><defs><style>.cls-1{fill:#f9f9f9;}.cls-2{fill:gray;}.cls-3{fill:#464646;}.cls-4{fill:#363636;}.cls-5{fill:#b2b2b2;}.cls-6{fill:#fff;}.cls-7{fill:#dbdbdb;}.cls-8{fill:#b1b1b1;}.cls-9{fill:#999;}.cls-10{fill:#afafaf;}.cls-11{fill:#bdbdbd;}.cls-12{fill:#7a7a7a;}.cls-13{fill:#cfcfcf;}</style></defs><title>sqr-bw-gantz_1</title><g id="Layer_2" data-name="Layer 2"><g id="Layer_5" data-name="Layer 5"><g id="sqr-bw-gantz"><rect class="cls-1" width="100" height="100"/><path class="cls-2" d="M0,0V100H100V0ZM99,99H1V1H99Z"/><rect class="cls-3" x="12.4" y="82.35" width="17.29" height="17.65"/><rect class="cls-4" x="18.17" y="82.35" width="7.68" height="17.65"/><rect class="cls-3" x="20.09" y="80.43" width="53.79" height="19.57"/><rect class="cls-4" x="64.27" y="84.28" width="17.29" height="15.72"/><rect class="cls-4" x="39.3" y="80.43" width="1.92" height="19.57"/><rect class="cls-3" x="66.2" y="82.35" width="17.29" height="17.65"/><path class="cls-5" d="M47,90H33.54V92H47Z"/><path class="cls-6" d="M48.9,88.12H31.61V90H48.9Z"/><path class="cls-5" d="M45.06,88.12h-9.6v5.76h9.6Z"/><path class="cls-6" d="M50.83,86.2H29.69v1.92H50.83Z"/><path class="cls-6" d="M52.75,84.28h-25V86.2h25Z"/><path class="cls-6" d="M54.67,82.35H25.85v1.93H54.67Z"/><path class="cls-6" d="M56.59,80.43H23.93v1.92H56.59Z"/><path class="cls-5" d="M43.14,80.43H37.38v3.85h5.76Z"/><path class="cls-5" d="M41.22,84.28H39.3V86.2h1.92Z"/><path class="cls-5" d="M43.14,86.2H37.38v9.6h5.76Z"/><path class="cls-5" d="M45.06,80.43h-9.6v1.92h9.6Z"/><path class="cls-7" d="M72,11.27H22V80.43H72Z"/><path class="cls-8" d="M75.8,9.35H70v36.5H75.8Z"/><path class="cls-8" d="M73.88,7.43H23.93v3.84H73.88Z"/><path class="cls-8" d="M73.88,9.35H23.93v3.84H73.88Z"/><path class="cls-8" d="M72,5.51H25.85V9.35H72Z"/><path class="cls-8" d="M58.51,7.43H27.77v7.68H58.51Z"/><path class="cls-8" d="M54.67,11.27H35.46V17H54.67Z"/><path class="cls-7" d="M77.72,42h-9.6V59.3h9.6Z"/><path class="cls-6" d="M56.59,40.09H54.67v3.84h1.92Z"/><path class="cls-9" d="M54.67,40.09H48.9v3.84h5.77Z"/><path class="cls-10" d="M56.59,38.17H48.9v1.92h7.69Z"/><path class="cls-10" d="M62.35,40.09H56.59V42h5.76Z"/><path class="cls-10" d="M56.59,42H48.9v1.92h7.69Z"/><path class="cls-10" d="M56.59,43.93H50.83v1.92h5.76Z"/><path class="cls-11" d="M58.51,36.25H47v1.92H58.51Z"/><path class="cls-11" d="M62.35,34.33H56.59v1.92h5.76Z"/><path class="cls-6" d="M35.46,40.09H33.54v3.84h1.92Z"/><path class="cls-9" d="M33.54,40.09H27.77v3.84h5.77Z"/><path class="cls-10" d="M35.46,38.17H27.77v1.92h7.69Z"/><path class="cls-10" d="M27.77,40.09H22V42h5.76Z"/><path class="cls-10" d="M35.46,42H27.77v1.92h7.69Z"/><path class="cls-10" d="M33.54,43.93H27.77v1.92h5.77Z"/><path class="cls-11" d="M37.38,36.25H25.85v1.92H37.38Z"/><path class="cls-11" d="M27.77,34.33H22v1.92h5.76Z"/><path class="cls-12" d="M48.9,65.06H29.69V67H48.9Z"/><path class="cls-12" d="M50.83,67H48.9v1.92h1.93Z"/><path class="cls-10" d="M37.38,34.33H35.46V53.54h1.92Z"/><path class="cls-10" d="M37.38,51.62H33.54v1.92h3.84Z"/><path class="cls-10" d="M37.38,57.38H33.54V59.3h3.84Z"/><path class="cls-10" d="M33.54,53.54H31.61v3.84h1.93Z"/><path class="cls-13" d="M73.88,11.27H70v36.5h3.84Z"/><path class="cls-10" d="M52.75,28.56H29.69v1.92H52.75Z"/><path class="cls-10" d="M52.75,24.72H29.69v1.92H52.75Z"/><path class="cls-10" d="M54.67,57.38H52.75V78.51h1.92Z"/><path class="cls-10" d="M27.77,57.38H25.85V78.51h1.92Z"/><path class="cls-10" d="M41.22,34.33H39.3v5.76h1.92Z"/><path class="cls-2" d="M0,0V100H100V0ZM99,99H1V1H99Z"/></g></g></g></svg>
