<svg xmlns="http://www.w3.org/2000/svg" viewBox="0 0 100 111"><defs><style>.cls-1{fill:#f9f9f9;}.cls-2{fill:gray;}.cls-3{fill:#464646;}.cls-4{fill:#363636;}.cls-5{fill:#fff;}.cls-6{fill:#0d0d0d;}.cls-7{fill:#dbdbdb;}.cls-8{fill:#afafaf;}.cls-9{fill:#919191;}.cls-10{fill:#777;}.cls-11{fill:#a9a9a9;}.cls-12{fill:#7a7a7a;}.cls-13{fill:#cfcfcf;}</style></defs><title>sqr-bw-liberman_1</title><g id="Layer_2" data-name="Layer 2"><g id="Layer_5" data-name="Layer 5"><g id="sqr-bw-liberman"><rect class="cls-1" width="100" height="100"/><path class="cls-2" d="M99,1V99H1V1H99m1-1H0V100H100V0Z"/><rect class="cls-3" x="13.88" y="79.55" width="17.57" height="20.45"/><rect class="cls-4" x="19.53" y="79.55" width="7.81" height="20.45"/><rect class="cls-3" x="21.69" y="77.6" width="54.67" height="22.4"/><rect class="cls-4" x="41.22" y="77.6" width="1.95" height="22.4"/><path class="cls-5" d="M29.5,79.55H54.88v2H29.5Z"/><path class="cls-5" d="M27.55,77.6H56.83v2H27.55Z"/><path class="cls-5" d="M31.45,81.5H52.93v2H31.45Z"/><path class="cls-5" d="M33.41,83.45H51v2H33.41Z"/><path class="cls-5" d="M35.36,85.41H49v2H35.36Z"/><path class="cls-5" d="M37.31,87.36h9.76v2H37.31Z"/><path class="cls-6" d="M37.31,85.41h9.76v3.9H37.31Z"/><path class="cls-6" d="M39.26,77.6h5.86v3.9H39.26Z"/><path class="cls-6" d="M41.22,81.5h2v2h-2Z"/><path class="cls-6" d="M39.26,83.45h5.86v7.81H39.26Z"/><path class="cls-6" d="M37.31,77.6h9.76v2H37.31Z"/><path class="cls-7" d="M21.69,15.12H76.36V77.6H21.69Z"/><path class="cls-7" d="M70.5,38.55h9.76V56.12H70.5Z"/><path class="cls-8" d="M41.22,30.74h2v5.85h-2Z"/><path class="cls-9" d="M51,38.55h5.85V44.4H51Z"/><path class="cls-8" d="M51,44.4h9.76v2H51Z"/><path class="cls-8" d="M52.93,46.36h7.81v2H52.93Z"/><path class="cls-8" d="M54.88,48.31h3.91v1.95H54.88Z"/><path class="cls-5" d="M56.83,38.55h2V44.4h-2Z"/><path class="cls-8" d="M58.79,38.55h2V44.4h-2Z"/><path class="cls-10" d="M49,36.59H60.74v2H49Z"/><path class="cls-11" d="M58.79,38.55h3.9v2h-3.9Z"/><path class="cls-11" d="M60.74,40.5h3.9v2h-3.9Z"/><path class="cls-9" d="M27.55,38.55h5.86V44.4H27.55Z"/><path class="cls-8" d="M25.6,44.4h9.76v2H25.6Z"/><path class="cls-8" d="M25.6,46.36h7.81v2H25.6Z"/><path class="cls-8" d="M27.55,48.31h3.9v1.95h-3.9Z"/><path class="cls-5" d="M33.41,38.55h2V44.4h-2Z"/><path class="cls-8" d="M25.6,38.55h1.95V44.4H25.6Z"/><path class="cls-10" d="M25.6,36.59H37.31v2H25.6Z"/><path class="cls-11" d="M23.64,38.55h3.91v2H23.64Z"/><path class="cls-11" d="M23.64,40.5h2v2h-2Z"/><path class="cls-12" d="M31.45,63.93H51v1.95H31.45Z"/><path class="cls-12" d="M33.41,65.88H49v2H33.41Z"/><path class="cls-12" d="M33.41,67.83H47.07v2H33.41Z"/><path class="cls-8" d="M35.36,50.26h3.9v2h-3.9Z"/><path class="cls-8" d="M35.36,56.12h3.9v2h-3.9Z"/><path class="cls-8" d="M33.41,52.21h2v3.91h-2Z"/><path class="cls-11" d="M51,62h2V75.64H51Z"/><path class="cls-11" d="M29.5,62h1.95V75.64H29.5Z"/><path class="cls-11" d="M29.5,69.79H51v3.9H29.5Z"/><path class="cls-11" d="M29.5,62H52.93v2H29.5Z"/><path class="cls-11" d="M72.45,56.12h3.91V77.6H72.45Z"/><path class="cls-11" d="M51,73.69H72.45V77.6H51Z"/><path class="cls-11" d="M21.69,73.69h9.76V77.6H21.69Z"/><path class="cls-13" d="M31.45,69.79H51v1.95H31.45Z"/><path class="cls-13" d="M72.45,56.12h2V73.69h-2Z"/><path class="cls-11" d="M23.64,11.21H76.36v3.91H23.64Z"/><path class="cls-11" d="M25.6,9.26H72.45v3.91H25.6Z"/><path class="cls-11" d="M27.55,13.17h41v3.9h-41Z"/><path class="cls-11" d="M72.45,11.21h3.91V42.45H72.45Z"/><polygon class="cls-4" points="85.91 86.14 85.91 100 66.39 100 66.39 81.5 83.96 81.5 83.96 86.14 85.91 86.14"/><rect class="cls-3" x="68.55" y="79.55" width="17.57" height="20.45"/><path class="cls-2" d="M99,1V99H1V1H99m1-1H0V100H100V0Z"/><rect class="cls-5" x="10" y="88.5" width="80" height="22"/><path class="cls-2" d="M90.5,111H9.5V88h81Zm-80-1h79V89h-79Z"/><path class="cls-2" d="M32.51,105.08h-1.8v-9.3h1.8Z"/><path class="cls-2" d="M35.88,98.61l1.57-2.83h4.43V103h-3v-1.8h1.2v-3.6H38.51l-3,5.54-1.57-.87.43-.78,1.25-2.39H34.08v-3.3h1.8Z"/><path class="cls-2" d="M49.86,95.78V103h-1.8v-5.4h-4.8v-1.8Z"/><path class="cls-2" d="M56,101.18v-3.6h-4.8v-1.8h6.6v5.4H59V103h-7.8v-1.8Z"/><path class="cls-2" d="M61.79,99.38H60v-3.6h1.8Z"/><path class="cls-2" d="M64.68,95.78h4.8v4.87l-2.7,2.7-1.27-1.27,2.17-2.17V97.58h-4.8v-3h1.8Z"/></g></g></g></svg>