<svg xmlns="http://www.w3.org/2000/svg" viewBox="0 0 100 111"><defs><style>.cls-1{fill:#fff;}.cls-2{fill:#0033b8;}.cls-3{fill:#00388b;}.cls-4{fill:#05224d;}.cls-5{fill:#f50000;}.cls-6{fill:#ffd3af;}.cls-7{fill:#eab293;}.cls-8{fill:#3cb0ec;}.cls-9{fill:#6c6c6c;}.cls-10{fill:#a1a1a1;}.cls-11{fill:#be8768;}.cls-12{fill:#cacaca;}</style></defs><title>sqr-c-liberman_1</title><g id="Layer_2" data-name="Layer 2"><g id="Layer_5" data-name="Layer 5"><g id="sqr-c-liberman"><rect class="cls-1" width="100" height="100"/><path class="cls-2" d="M0,0V100H100V0ZM98,98H2V2H98Z"/><rect class="cls-3" x="13.88" y="79.55" width="17.58" height="20.45"/><rect class="cls-4" x="19.79" y="79.55" width="7.81" height="20.45"/><rect class="cls-3" x="21.69" y="77.6" width="54.67" height="22.4"/><rect class="cls-4" x="41.22" y="77.6" width="1.95" height="22.4"/><path class="cls-1" d="M29.5,79.55H54.89v2H29.5Z"/><path class="cls-1" d="M27.55,77.6H56.84v2H27.55Z"/><path class="cls-1" d="M31.46,81.5H52.93v2H31.46Z"/><path class="cls-1" d="M33.41,83.45H51v2H33.41Z"/><path class="cls-1" d="M35.36,85.41H49v2H35.36Z"/><path class="cls-1" d="M37.31,87.36h9.77v2H37.31Z"/><path class="cls-5" d="M37.31,85.41h9.77v3.9H37.31Z"/><path class="cls-5" d="M39.27,77.6h5.85v3.9H39.27Z"/><path class="cls-5" d="M41.22,81.5h2v2h-2Z"/><path class="cls-5" d="M39.27,83.45h5.85v7.81H39.27Z"/><path class="cls-5" d="M37.31,77.6h9.77v2H37.31Z"/><path class="cls-6" d="M21.69,15.12H76.36V77.6H21.69Z"/><path class="cls-6" d="M70.51,38.55h9.76V56.12H70.51Z"/><path class="cls-7" d="M41.22,30.74h2v5.85h-2Z"/><path class="cls-8" d="M51,38.55h5.86V44.4H51Z"/><path class="cls-7" d="M51,44.4h9.76v2H51Z"/><path class="cls-7" d="M52.93,46.36h7.81v2H52.93Z"/><path class="cls-7" d="M54.89,48.31h3.9v1.95h-3.9Z"/><path class="cls-1" d="M56.84,38.55h1.95V44.4H56.84Z"/><path class="cls-7" d="M58.79,38.55h2V44.4h-2Z"/><path class="cls-9" d="M49,36.59H60.74v2H49Z"/><path class="cls-10" d="M58.79,38.55H62.7v2H58.79Z"/><path class="cls-10" d="M60.74,40.5h3.91v2H60.74Z"/><path class="cls-8" d="M27.55,38.55h5.86V44.4H27.55Z"/><path class="cls-7" d="M25.6,44.4h9.76v2H25.6Z"/><path class="cls-7" d="M25.6,46.36h7.81v2H25.6Z"/><path class="cls-7" d="M27.55,48.31h3.91v1.95H27.55Z"/><path class="cls-1" d="M33.41,38.55h2V44.4h-2Z"/><path class="cls-7" d="M25.6,38.55h1.95V44.4H25.6Z"/><path class="cls-9" d="M25.6,36.59H37.31v2H25.6Z"/><path class="cls-10" d="M23.65,38.55h3.9v2h-3.9Z"/><path class="cls-10" d="M23.65,40.5h2v2h-2Z"/><path class="cls-11" d="M31.46,63.93H51v1.95H31.46Z"/><path class="cls-11" d="M33.41,65.88H49v2H33.41Z"/><path class="cls-11" d="M33.41,67.83H47.08v2H33.41Z"/><path class="cls-7" d="M35.36,50.26h3.91v2H35.36Z"/><path class="cls-7" d="M35.36,56.12h3.91v2H35.36Z"/><path class="cls-7" d="M33.41,52.21h2v3.91h-2Z"/><path class="cls-10" d="M51,62h2V75.64H51Z"/><path class="cls-10" d="M29.5,62h2V75.64h-2Z"/><path class="cls-10" d="M29.5,69.79H51v3.9H29.5Z"/><path class="cls-10" d="M29.5,62H52.93v2H29.5Z"/><path class="cls-10" d="M72.46,56.12h3.9V77.6h-3.9Z"/><path class="cls-10" d="M51,73.69H72.46V77.6H51Z"/><path class="cls-10" d="M21.69,73.69h9.77V77.6H21.69Z"/><path class="cls-12" d="M31.46,69.79H51v1.95H31.46Z"/><path class="cls-12" d="M72.46,56.12h2V73.69h-2Z"/><path class="cls-10" d="M23.65,11.21H76.36v3.91H23.65Z"/><path class="cls-10" d="M25.6,9.26H72.46v3.91H25.6Z"/><path class="cls-10" d="M27.55,13.17h41v3.9h-41Z"/><path class="cls-10" d="M72.46,11.21h3.9V42.45h-3.9Z"/><polygon class="cls-4" points="82.01 86.14 82.01 100 66.65 100 66.65 81.5 80.47 81.5 80.47 86.14 82.01 86.14"/><rect class="cls-3" x="68.55" y="79.55" width="17.57" height="20.45"/><rect class="cls-1" x="10" y="88" width="80" height="22"/><path class="cls-2" d="M91,111H9V87H91Zm-80-2H89V89H11Z"/><path class="cls-2" d="M30.72,95.28v9.3h1.8v-9.3Z"/><path class="cls-2" d="M37.46,95.28l-1.57,2.84V95.28h-1.8v3.3h1.53l-.15.29L34.38,101l-.44.78,1.57.88,2-3.76,1-1.79h1.57v3.6h-1.2v1.8h3v-7.2Z"/><path class="cls-2" d="M43.27,95.28v1.8h4.8v5.4h1.8v-7.2Z"/><path class="cls-2" d="M57.84,100.68v-5.4h-6.6v1.8H56v3.6h-4.8v1.8H59v-1.8Z"/><path class="cls-2" d="M60,95.28v3.6h1.8v-3.6Z"/><path class="cls-2" d="M64.69,95.28v-1.2h-1.8v3h4.8v2.33l-1,1-1.14,1.13,1.14,1.14.14.14,2.7-2.7V95.28Z"/></g></g></g></svg>