<svg xmlns="http://www.w3.org/2000/svg" viewBox="0 0 100 112.13"><defs><style>.cls-1{fill:#fff;}.cls-2{fill:#0033b8;}.cls-3{fill:#00388b;}.cls-4{fill:#05224d;}.cls-5{fill:#f50000;}.cls-6{fill:#ffd3af;}.cls-7{fill:#eab293;}.cls-8{fill:#97491d;}.cls-9{fill:#be8768;}.cls-10{fill:#0f0f0f;}.cls-11{fill:#5c5c5c;}</style></defs><title>sqr-c-peretz</title><g id="Layer_2" data-name="Layer 2"><g id="Layer_5" data-name="Layer 5"><g id="sqr-c-peretz"><rect class="cls-1" width="100" height="100"/><path class="cls-2" d="M98,2V98H2V2H98m2-2H0V100H100V0Z"/><rect class="cls-3" x="13.88" y="82.55" width="17.57" height="24.58"/><rect class="cls-4" x="19.73" y="82.55" width="7.81" height="24.58"/><rect class="cls-3" x="21.69" y="80.6" width="54.67" height="26.53"/><rect class="cls-4" x="41.21" y="80.6" width="1.95" height="26.53"/><path class="cls-1" d="M29.5,82.55H54.88v2H29.5Z"/><path class="cls-1" d="M27.55,80.6H56.83v2H27.55Z"/><path class="cls-1" d="M31.45,84.5H52.93v2H31.45Z"/><path class="cls-1" d="M33.4,86.45H51v2H33.4Z"/><path class="cls-1" d="M35.36,88.41H49v2H35.36Z"/><path class="cls-1" d="M37.31,90.36h9.76v2H37.31Z"/><path class="cls-5" d="M37.31,88.41h9.76v3.9H37.31Z"/><path class="cls-5" d="M39.26,80.6h5.86v3.9H39.26Z"/><path class="cls-5" d="M41.21,84.5h2v2h-2Z"/><path class="cls-5" d="M39.26,86.45h5.86v7.81H39.26Z"/><path class="cls-5" d="M37.31,80.6h9.76v2H37.31Z"/><path class="cls-6" d="M21.69,18.12H76.36V80.6H21.69Z"/><path class="cls-6" d="M70.5,41.55h9.76V59.12H70.5Z"/><path class="cls-7" d="M47.07,49.36H51v2H47.07Z"/><path class="cls-7" d="M45.12,47.4h7.81v2H45.12Z"/><path class="cls-7" d="M43.17,45.45H54.88V47.4H43.17Z"/><path class="cls-8" d="M45.12,43.5H49v2h-3.9Z"/><path class="cls-1" d="M49,43.5h3.91v2H49Z"/><path d="M52.93,43.5h7.81v2H52.93Z"/><path d="M41.21,41.55H58.79v2H41.21Z"/><path d="M41.21,39.59H56.83v2H41.21Z"/><path d="M43.17,37.64H54.88v2H43.17Z"/><path class="cls-7" d="M27.55,49.36h3.9v2h-3.9Z"/><path class="cls-7" d="M25.59,47.4H33.4v2H25.59Z"/><path class="cls-7" d="M23.64,45.45H35.36V47.4H23.64Z"/><path class="cls-8" d="M25.59,43.5H29.5v2H25.59Z"/><path class="cls-1" d="M29.5,43.5h3.9v2H29.5Z"/><path d="M21.69,43.5h3.9v2h-3.9Z"/><path d="M21.69,41.55H37.31v2H21.69Z"/><path d="M21.69,39.59H37.31v2H21.69Z"/><path d="M23.64,37.64H35.36v2H23.64Z"/><path class="cls-9" d="M31.45,63H43.17v2H31.45Z"/><path class="cls-9" d="M43.17,61.07h3.9v2h-3.9Z"/><path class="cls-9" d="M29.5,61.07h1.95v2H29.5Z"/><path class="cls-7" d="M35.36,49.36h3.9v2h-3.9Z"/><path class="cls-7" d="M35.36,55.21h3.9v2h-3.9Z"/><path class="cls-7" d="M33.4,51.31h2v3.9h-2Z"/><path class="cls-10" d="M21.69,14.21H76.36v3.91H21.69Z"/><path class="cls-10" d="M23.64,12.26H72.45v3.91H23.64Z"/><path class="cls-10" d="M25.59,10.31H70.5v3.9H25.59Z"/><path class="cls-10" d="M27.55,8.36h41v3.9h-41Z"/><path class="cls-10" d="M25.59,16.17h41v3.9h-41Z"/><path class="cls-10" d="M72.45,14.21h3.91V45.45H72.45Z"/><path class="cls-10" d="M76.36,18.12h2V41.55h-2Z"/><path class="cls-10" d="M19.74,16.17h2V35.69h-2Z"/><path class="cls-11" d="M68.55,14.21h2v3.91h-2Z"/><path class="cls-11" d="M64.64,14.21h2v5.86h-2Z"/><path class="cls-11" d="M60.74,14.21h1.95v5.86H60.74Z"/><path class="cls-11" d="M56.83,14.21h2v5.86h-2Z"/><path class="cls-11" d="M52.93,14.21h2v5.86h-2Z"/><path class="cls-11" d="M49,14.21h2v5.86H49Z"/><path class="cls-11" d="M45.12,14.21h2v5.86h-2Z"/><path class="cls-11" d="M41.21,14.21h2v5.86h-2Z"/><path class="cls-11" d="M37.31,14.21h1.95v5.86H37.31Z"/><path class="cls-11" d="M33.4,14.21h2v5.86h-2Z"/><path class="cls-11" d="M29.5,14.21h1.95v5.86H29.5Z"/><path class="cls-11" d="M72.45,37.64h2v2h-2Z"/><path class="cls-11" d="M72.45,41.55h2v2h-2Z"/><path class="cls-11" d="M72.45,33.74h2v1.95h-2Z"/><path class="cls-11" d="M72.45,29.83h2v2h-2Z"/><path class="cls-11" d="M72.45,25.93h2v1.95h-2Z"/><path class="cls-11" d="M72.45,22h2v2h-2Z"/><path class="cls-11" d="M72.45,18.12h2v1.95h-2Z"/><path class="cls-11" d="M25.59,14.21h2v5.86h-2Z"/><path class="cls-11" d="M21.69,14.21h1.95v3.91H21.69Z"/><path class="cls-7" d="M31.45,70.83h9.76v2H31.45Z"/><path class="cls-7" d="M29.5,68.88h3.9v2H29.5Z"/><rect class="cls-4" x="66.59" y="84.5" width="17.58" height="22.63"/><rect class="cls-3" x="68.55" y="82.55" width="17.57" height="24.58"/><rect class="cls-1" x="10" y="89.13" width="80" height="22"/><path class="cls-2" d="M91,112.13H9v-24H91Zm-80-2H89v-20H11Z"/><path class="cls-2" d="M42.77,96.41v2.15l-1.56.78-.24.12v-3h-1.8v9H41v-4l.24-.12,1.95-1,.73-.37.68-.34V96.41Z"/><path class="cls-2" d="M45.66,96.41v1.8h4.8v5.4h1.8v-7.2Z"/><path class="cls-2" d="M53.64,96.41v1.8h.6V100H56v-1.8h3v3.6h-5.4v1.8h7.2v-7.2Z"/></g></g></g></svg>