<svg xmlns="http://www.w3.org/2000/svg" viewBox="0 0 100 111"><defs><style>.cls-1{fill:#f9f9f9;}.cls-2{fill:gray;}.cls-3{fill:#464646;}.cls-4{fill:#363636;}.cls-5{fill:#b2b2b2;}.cls-6{fill:#fff;}.cls-7{fill:#dbdbdb;}.cls-8{fill:#b1b1b1;}.cls-9{fill:#999;}.cls-10{fill:#afafaf;}.cls-11{fill:#bdbdbd;}.cls-12{fill:#7a7a7a;}.cls-13{fill:#cfcfcf;}</style></defs><title>sqr-bw-gantz_2</title><g id="Layer_2" data-name="Layer 2"><g id="Layer_5" data-name="Layer 5"><g id="sqr-bw-gantz"><rect class="cls-1" width="100" height="100"/><path class="cls-2" d="M0,0V100H100V0ZM99,99H1V1H99Z"/><rect class="cls-3" x="14.46" y="82.35" width="17.29" height="17.65"/><rect class="cls-4" x="20.22" y="82.35" width="7.68" height="17.65"/><rect class="cls-3" x="22.15" y="80.43" width="53.79" height="19.57"/><rect class="cls-4" x="66.33" y="84.28" width="17.29" height="15.72"/><rect class="cls-4" x="41.35" y="80.43" width="1.92" height="19.57"/><rect class="cls-3" x="68.26" y="82.35" width="17.29" height="17.65"/><path class="cls-5" d="M49,90H35.59V92H49Z"/><path class="cls-6" d="M51,88.12H33.67V90H51Z"/><path class="cls-5" d="M47.12,88.12H37.51v5.76h9.61Z"/><path class="cls-6" d="M52.88,86.2H31.75v1.92H52.88Z"/><path class="cls-6" d="M54.8,84.28h-25V86.2h25Z"/><path class="cls-6" d="M56.72,82.35H27.91v1.93H56.72Z"/><path class="cls-6" d="M58.64,80.43H26v1.92H58.64Z"/><path class="cls-5" d="M45.2,80.43H39.43v3.85H45.2Z"/><path class="cls-5" d="M43.27,84.28H41.35V86.2h1.92Z"/><path class="cls-5" d="M45.2,86.2H39.43v9.6H45.2Z"/><path class="cls-5" d="M47.12,80.43H37.51v1.92h9.61Z"/><path class="cls-7" d="M74,11.27H24.06V80.43H74Z"/><path class="cls-8" d="M77.86,9.35H72.09v36.5h5.77Z"/><path class="cls-8" d="M75.93,7.43H26v3.84h50Z"/><path class="cls-8" d="M75.93,9.35H26v3.84h50Z"/><path class="cls-8" d="M74,5.51H27.91V9.35H74Z"/><path class="cls-8" d="M60.57,7.43H29.83v7.68H60.57Z"/><path class="cls-8" d="M56.72,11.27H37.51V17H56.72Z"/><path class="cls-7" d="M79.78,42H70.17V59.3h9.61Z"/><path class="cls-6" d="M58.64,40.09H56.72v3.84h1.92Z"/><path class="cls-9" d="M56.72,40.09H51v3.84h5.76Z"/><path class="cls-10" d="M58.64,38.17H51v1.92h7.68Z"/><path class="cls-10" d="M64.41,40.09H58.64V42h5.77Z"/><path class="cls-10" d="M58.64,42H51v1.92h7.68Z"/><path class="cls-10" d="M58.64,43.93H52.88v1.92h5.76Z"/><path class="cls-11" d="M60.57,36.25H49v1.92H60.57Z"/><path class="cls-11" d="M64.41,34.33H58.64v1.92h5.77Z"/><path class="cls-6" d="M37.51,40.09H35.59v3.84h1.92Z"/><path class="cls-9" d="M35.59,40.09H29.83v3.84h5.76Z"/><path class="cls-10" d="M37.51,38.17H29.83v1.92h7.68Z"/><path class="cls-10" d="M29.83,40.09H24.06V42h5.77Z"/><path class="cls-10" d="M37.51,42H29.83v1.92h7.68Z"/><path class="cls-10" d="M35.59,43.93H29.83v1.92h5.76Z"/><path class="cls-11" d="M39.43,36.25H27.91v1.92H39.43Z"/><path class="cls-11" d="M29.83,34.33H24.06v1.92h5.77Z"/><path class="cls-12" d="M51,65.06H31.75V67H51Z"/><path class="cls-12" d="M52.88,67H51v1.92h1.92Z"/><path class="cls-10" d="M39.43,34.33H37.51V53.54h1.92Z"/><path class="cls-10" d="M39.43,51.62H35.59v1.92h3.84Z"/><path class="cls-10" d="M39.43,57.38H35.59V59.3h3.84Z"/><path class="cls-10" d="M35.59,53.54H33.67v3.84h1.92Z"/><path class="cls-13" d="M75.93,11.27H72.09v36.5h3.84Z"/><path class="cls-10" d="M54.8,28.56h-23v1.92h23Z"/><path class="cls-10" d="M54.8,24.72h-23v1.92h23Z"/><path class="cls-10" d="M56.72,57.38H54.8V78.51h1.92Z"/><path class="cls-10" d="M29.83,57.38H27.91V78.51h1.92Z"/><path class="cls-10" d="M43.27,34.33H41.35v5.76h1.92Z"/><path class="cls-2" d="M0,0V100H100V0ZM99,99H1V1H99Z"/><rect class="cls-6" x="10" y="88.5" width="80" height="22"/><path class="cls-2" d="M90.5,111H9.5V88h81Zm-80-1h79V89h-79Z"/><path class="cls-2" d="M47.81,99l-3.6,1.8v4h-1.8v-9h1.8v3l1.8-.9V95.78h1.8Z"/><path class="cls-2" d="M52.5,95.78V103H48.9v-1.8h1.8v-3.6H49.5v-1.8Z"/><path class="cls-2" d="M55.17,99.93l1.45.64-1-3h-1v-1.8h2.31l2.37,6.85-1.69.59-.81-2.35-1.05,2.4L54,102.55Z"/></g></g></g></svg>