<svg xmlns="http://www.w3.org/2000/svg" viewBox="0 0 100 112.13"><defs><style>.cls-1{fill:#fff;}.cls-2{fill:#0033b8;}.cls-3{fill:#00388b;}.cls-4{fill:#05224d;}.cls-5{fill:#3cb0ec;}.cls-6{fill:#ffd3af;}.cls-7{fill:#97491d;}.cls-8{fill:#eab293;}.cls-9{fill:#be8768;}.cls-10{fill:#c5bccb;}</style></defs><title>sqr-c-bibi_1</title><g id="Layer_2" data-name="Layer 2"><g id="Layer_5" data-name="Layer 5"><g id="sqr-c-bibi"><rect class="cls-1" width="100" height="100"/><path class="cls-2" d="M0,0V100H100V0ZM98,98H2V2H98ZM41.22,98v2H66.6V98Z"/><rect class="cls-3" x="13.88" y="82.55" width="17.58" height="29.58"/><rect class="cls-4" x="19.74" y="82.55" width="7.81" height="29.58"/><rect class="cls-3" x="21.69" y="80.6" width="54.67" height="31.53"/><rect class="cls-4" x="41.22" y="80.6" width="1.95" height="31.53"/><path class="cls-1" d="M29.5,82.55H54.88v2H29.5Z"/><path class="cls-1" d="M27.55,80.6H56.84v2H27.55Z"/><path class="cls-1" d="M31.46,84.5H52.93v2H31.46Z"/><path class="cls-1" d="M33.41,86.45H51v2H33.41Z"/><path class="cls-1" d="M35.36,88.41H49v2H35.36Z"/><path class="cls-1" d="M37.31,90.36h9.76v2H37.31Z"/><path class="cls-5" d="M37.31,88.41h9.76v3.9H37.31Z"/><path class="cls-5" d="M39.26,80.6h5.86v3.9H39.26Z"/><path class="cls-5" d="M41.22,84.5h2v2h-2Z"/><path class="cls-5" d="M39.26,86.45h5.86v7.81H39.26Z"/><path class="cls-5" d="M37.31,80.6h9.76v2H37.31Z"/><path class="cls-6" d="M21.69,18.12H74.41V80.6H21.69Z"/><path class="cls-6" d="M70.5,41.55h9.77V59.12H70.5Z"/><path class="cls-1" d="M49,45.45h7.81v5.86H49Z"/><path class="cls-7" d="M49,45.45h3.9v5.86H49Z"/><path d="M47.07,43.5h9.77v2H47.07Z"/><path d="M45.12,45.45H49V47.4H45.12Z"/><path d="M54.88,41.55h3.91v2H54.88Z"/><path class="cls-8" d="M49,49.36h7.81v2H49Z"/><path class="cls-8" d="M49,51.31h5.85v1.95H49Z"/><path class="cls-1" d="M27.55,45.45h7.81v5.86H27.55Z"/><path class="cls-7" d="M27.55,45.45h3.91v5.86H27.55Z"/><path d="M25.6,43.5H37.31v2H25.6Z"/><path d="M23.65,41.55h3.9v2h-3.9Z"/><path class="cls-8" d="M27.55,49.36h7.81v2H27.55Z"/><path class="cls-8" d="M29.5,51.31h5.86v1.95H29.5Z"/><path class="cls-9" d="M33.41,68.88H49v2H33.41Z"/><path class="cls-9" d="M49,66.93H51v1.95H49Z"/><path class="cls-9" d="M51,65h2v2H51Z"/><path class="cls-8" d="M35.36,55.21h3.9v2h-3.9Z"/><path class="cls-8" d="M35.36,61.07h3.9v2h-3.9Z"/><path class="cls-8" d="M33.41,57.17h2v3.9h-2Z"/><path class="cls-10" d="M23.65,16.17H72.46v3.9H23.65Z"/><path class="cls-10" d="M25.6,14.21H74.41v3.91H25.6Z"/><path class="cls-10" d="M27.55,12.26H74.41v3.91H27.55Z"/><path class="cls-10" d="M25.6,18.12H72.46V22H25.6Z"/><path class="cls-10" d="M72.46,14.21h3.9V45.45h-3.9Z"/><rect class="cls-4" x="66.6" y="84.5" width="17.57" height="27.63"/><rect class="cls-3" x="68.55" y="82.55" width="17.57" height="29.58"/><rect class="cls-1" x="10" y="89.13" width="80" height="22"/><path class="cls-2" d="M31.46,89.13v1h7.8v-1ZM9,88.13v24H91v-24Zm80,22H11v-20H89Z"/><path class="cls-2" d="M40.76,100H39v-3.6h1.8Z"/><path class="cls-2" d="M46.52,101.81v-3.6h-4.8v-1.8h6.6v5.4h1.2v1.8h-7.8v-1.8Z"/><path class="cls-2" d="M52.28,100h-1.8v-3.6h1.8Z"/><path class="cls-2" d="M58,101.81v-3.6h-4.8v-1.8h6.6v5.4H61v1.8h-7.8v-1.8Z"/></g></g></g></svg>