<svg xmlns="http://www.w3.org/2000/svg" viewBox="0 0 100 100"><defs><style>.cls-1{fill:#f9f9f9;}.cls-2{fill:gray;}.cls-3{fill:#464646;}.cls-4{fill:#363636;}.cls-5{fill:#fff;}.cls-6{fill:#0d0d0d;}.cls-7{fill:#dbdbdb;}.cls-8{fill:#afafaf;}.cls-9{fill:#333;}.cls-10{fill:#7a7a7a;}.cls-11{fill:#0f0f0f;}.cls-12{fill:#696969;}</style></defs><title>sqr-bw-peretz</title><g id="Layer_2" data-name="Layer 2"><g id="Layer_5" data-name="Layer 5"><g id="sqr-bw-peretz"><rect class="cls-1" width="100" height="100"/><path class="cls-2" d="M99,1V99H1V1H99m1-1H0V100H100V0Z"/><rect class="cls-3" x="13.88" y="82.55" width="17.58" height="17.45"/><rect class="cls-4" x="19.74" y="82.55" width="7.81" height="17.45"/><rect class="cls-3" x="21.69" y="80.6" width="54.67" height="19.4"/><rect class="cls-4" x="41.22" y="80.6" width="1.95" height="19.4"/><path class="cls-5" d="M29.5,82.55H54.89v2H29.5Z"/><path class="cls-5" d="M27.55,80.6H56.84v2H27.55Z"/><path class="cls-5" d="M31.46,84.5H52.93v2H31.46Z"/><path class="cls-5" d="M33.41,86.45H51v2H33.41Z"/><path class="cls-5" d="M35.36,88.41H49v2H35.36Z"/><path class="cls-5" d="M37.31,90.36h9.77v2H37.31Z"/><path class="cls-6" d="M37.31,88.41h9.77v3.9H37.31Z"/><path class="cls-6" d="M39.27,80.6h5.85v3.9H39.27Z"/><path class="cls-6" d="M41.22,84.5h2v2h-2Z"/><path class="cls-6" d="M39.27,86.45h5.85v7.81H39.27Z"/><path class="cls-6" d="M37.31,80.6h9.77v2H37.31Z"/><path class="cls-7" d="M21.69,18.12H76.36V80.6H21.69Z"/><path class="cls-7" d="M70.5,41.55h9.77V59.12H70.5Z"/><path class="cls-8" d="M47.08,49.36H51v2h-3.9Z"/><path class="cls-8" d="M45.12,47.4h7.81v2H45.12Z"/><path class="cls-8" d="M43.17,45.45H54.89V47.4H43.17Z"/><path class="cls-9" d="M45.12,43.5H49v2H45.12Z"/><path class="cls-5" d="M49,43.5h3.9v2H49Z"/><path d="M52.93,43.5h7.81v2H52.93Z"/><path d="M41.22,41.55H58.79v2H41.22Z"/><path d="M41.22,39.59H56.84v2H41.22Z"/><path d="M43.17,37.64H54.89v2H43.17Z"/><path class="cls-8" d="M27.55,49.36h3.91v2H27.55Z"/><path class="cls-8" d="M25.6,47.4h7.81v2H25.6Z"/><path class="cls-8" d="M23.65,45.45H35.36V47.4H23.65Z"/><path class="cls-9" d="M25.6,43.5h3.9v2H25.6Z"/><path class="cls-5" d="M29.5,43.5h3.91v2H29.5Z"/><path d="M21.69,43.5H25.6v2H21.69Z"/><path d="M21.69,41.55H37.31v2H21.69Z"/><path d="M21.69,39.59H37.31v2H21.69Z"/><path d="M23.65,37.64H35.36v2H23.65Z"/><path class="cls-10" d="M31.46,63H43.17v2H31.46Z"/><path class="cls-10" d="M43.17,61.07h3.91v2H43.17Z"/><path class="cls-10" d="M29.5,61.07h2v2h-2Z"/><path class="cls-8" d="M35.36,49.36h3.91v2H35.36Z"/><path class="cls-8" d="M35.36,55.21h3.91v2H35.36Z"/><path class="cls-8" d="M33.41,51.31h2v3.9h-2Z"/><path class="cls-11" d="M21.69,14.21H76.36v3.91H21.69Z"/><path class="cls-11" d="M23.65,12.26H72.46v3.91H23.65Z"/><path class="cls-11" d="M25.6,10.31H70.5v3.9H25.6Z"/><path class="cls-11" d="M27.55,8.36h41v3.9h-41Z"/><path class="cls-11" d="M25.6,16.17h41v3.9h-41Z"/><path class="cls-11" d="M72.46,14.21h3.9V45.45h-3.9Z"/><path class="cls-11" d="M76.36,18.12h2V41.55h-2Z"/><path class="cls-11" d="M19.74,16.17h2V35.69h-2Z"/><path class="cls-12" d="M68.55,14.21h2v3.91h-2Z"/><path class="cls-12" d="M64.65,14.21H66.6v5.86H64.65Z"/><path class="cls-12" d="M60.74,14.21h2v5.86h-2Z"/><path class="cls-12" d="M56.84,14.21h1.95v5.86H56.84Z"/><path class="cls-12" d="M52.93,14.21h2v5.86h-2Z"/><path class="cls-12" d="M49,14.21H51v5.86H49Z"/><path class="cls-12" d="M45.12,14.21h2v5.86h-2Z"/><path class="cls-12" d="M41.22,14.21h2v5.86h-2Z"/><path class="cls-12" d="M37.31,14.21h2v5.86h-2Z"/><path class="cls-12" d="M33.41,14.21h2v5.86h-2Z"/><path class="cls-12" d="M29.5,14.21h2v5.86h-2Z"/><path class="cls-12" d="M72.46,37.64h2v2h-2Z"/><path class="cls-12" d="M72.46,41.55h2v2h-2Z"/><path class="cls-12" d="M72.46,33.74h2v1.95h-2Z"/><path class="cls-12" d="M72.46,29.83h2v2h-2Z"/><path class="cls-12" d="M72.46,25.93h2v1.95h-2Z"/><path class="cls-12" d="M72.46,22h2v2h-2Z"/><path class="cls-12" d="M72.46,18.12h2v1.95h-2Z"/><path class="cls-12" d="M25.6,14.21h1.95v5.86H25.6Z"/><path class="cls-12" d="M21.69,14.21h2v3.91h-2Z"/><path class="cls-8" d="M31.46,70.83h9.76v2H31.46Z"/><path class="cls-8" d="M29.5,68.88h3.91v2H29.5Z"/><rect class="cls-4" x="66.6" y="84.5" width="17.57" height="15.5"/><rect class="cls-3" x="68.55" y="82.55" width="17.57" height="17.45"/><path class="cls-2" d="M99,1V99H1V1H99m1-1H0V100H100V0Z"/></g></g></g></svg>